<?xml version="1.0" encoding="UTF-8" standalone="no"?>
<!DOCTYPE svg PUBLIC "-//W3C//DTD SVG 1.1//EN" "http://www.w3.org/Graphics/SVG/1.1/DTD/svg11.dtd">
<!-- Generated by Microsoft Visio, SVG Export scalable-web-app.svg svg9698 -->
<svg xmlns="http://www.w3.org/2000/svg" xmlns:xlink="http://www.w3.org/1999/xlink" xmlns:ev="http://www.w3.org/2001/xml-events"
		xmlns:v="http://schemas.microsoft.com/visio/2003/SVGExtensions/" width="3.33333in" height="1.5in" viewBox="0 0 240 108"
		xml:space="preserve" color-interpolation-filters="sRGB" class="st34">
	<v:documentProperties v:langID="1033" v:viewMarkup="false"/>

	<style type="text/css">
	<![CDATA[
		.st1 {fill:#59b4d9;stroke:none;stroke-linecap:butt;stroke-width:0.582413}
		.st2 {fill:#ffffff;stroke:none;stroke-linecap:butt;stroke-width:0.582413}
		.st3 {fill:none;stroke:none;stroke-linecap:butt;stroke-width:0.75}
		.st4 {fill:#0090c6;font-family:Arial;font-size:0.625008em}
		.st5 {fill:#59b4d9;stroke:none;stroke-linecap:butt;stroke-width:0.63417}
		.st6 {fill:#ffffff;stroke:none;stroke-linecap:butt;stroke-width:0.63417}
		.st7 {fill:#7a7a7a;stroke:none;stroke-linecap:butt;stroke-width:0.176158}
		.st8 {fill:none;stroke:none;stroke-linecap:butt;stroke-width:0.176158}
		.st9 {fill:#ffffff;fill-opacity:0.25;stroke:none;stroke-linecap:butt;stroke-width:0.176158}
		.st10 {fill:#0078d7;stroke:none;stroke-linecap:butt;stroke-width:0.652747}
		.st11 {fill:#7a7a7a;stroke:none;stroke-linecap:butt;stroke-width:0.652747}
		.st12 {fill:#3999c6;stroke:none;stroke-linecap:butt;stroke-width:0.652747}
		.st13 {fill:#ffffff;fill-opacity:0.2;stroke:none;stroke-linecap:butt;stroke-width:0.652747}
		.st14 {fill:#3999c6;stroke:none;stroke-linecap:butt;stroke-width:0.47044}
		.st15 {fill:#59b4d9;stroke:none;stroke-linecap:butt;stroke-width:0.47044}
		.st16 {fill:#ffffff;stroke:none;stroke-linecap:butt;stroke-width:0.47044}
		.st17 {fill:#7fba00;stroke:none;stroke-linecap:butt;stroke-width:0.47044}
		.st18 {fill:#b8d432;stroke:none;stroke-linecap:butt;stroke-width:0.47044}
		.st19 {fill:#0072c6;stroke:none;stroke-linecap:butt;stroke-width:0.47044}
		.st20 {fill:#ffffff;fill-opacity:0.15;stroke:none;stroke-linecap:butt;stroke-width:0.47044}
		.st21 {fill:#ffffff;stroke:none;stroke-linecap:butt;stroke-width:0.0784066}
		.st22 {fill:#0072c6;stroke:none;stroke-linecap:butt;stroke-width:0.582413}
		.st23 {fill:#ffffff;fill-opacity:0.15;stroke:none;stroke-linecap:butt;stroke-width:0.582413}
		.st24 {fill:#7fba00;stroke:none;stroke-linecap:butt;stroke-width:0.582413}
		.st25 {fill:#b8d432;stroke:none;stroke-linecap:butt;stroke-width:0.582413}
		.st26 {fill:#3999c6;stroke:none;stroke-linecap:butt;stroke-width:0.582413}
		.st27 {fill:#0078d7;stroke:none;stroke-linecap:butt;stroke-width:0.647665}
		.st28 {stroke:#a0a0a0;stroke-linecap:round;stroke-linejoin:round;stroke-width:0.513911}
		.st29 {fill:#777777;stroke:#777777;stroke-linecap:butt;stroke-width:0.192717}
		.st30 {fill:none}
		.st31 {stroke:#a0a0a0;stroke-linecap:butt;stroke-width:0.525}
		.st32 {fill:#a0a0a0;stroke:#a0a0a0;stroke-linecap:butt;stroke-width:0.28}
		.st33 {fill:#787878;stroke:#787878;stroke-linecap:butt;stroke-width:0.192717}
		.st34 {fill:none;fill-rule:evenodd;font-size:12px;overflow:visible;stroke-linecap:square;stroke-miterlimit:3}
	]]>
	</style>

	<g v:mID="0" v:index="1" v:groupContext="foregroundPage">
		<title>svg9698</title>
		<v:pageProperties v:drawingScale="1" v:pageScale="1" v:drawingUnits="19" v:shadowOffsetX="9" v:shadowOffsetY="-9"/>
		<g id="group1-1" transform="translate(4.92484,-3.85905)" v:mID="1" v:groupContext="group">
			<title>layer1</title>
			<g id="group2-2" v:mID="2" v:groupContext="group">
				<title>Layer_1</title>
			</g>
			<g id="group3-3" transform="translate(0.171237,-68.381)" v:mID="3" v:groupContext="group">
				<title>g4941-3</title>
				<g id="shape4-4" v:mID="4" v:groupContext="shape">
					<title>path3-3</title>
					<path d="M25.3 105 C22.66 107.02 19.55 108 16.46 108 C12.08 108 7.75 106.03 4.89 102.29 C0 95.91 1.21 86.78 7.6
								 81.88 C10.24 79.85 13.35 78.89 16.44 78.89 C20.81 78.89 25.15 80.85 28.01 84.6 C32.9 90.98 31.68
								 100.11 25.3 105 Z" class="st1"/>
				</g>
				<g id="shape5-6" v:mID="5" v:groupContext="shape" transform="translate(3.79908,-3.01166)">
					<title>path5-4</title>
					<path d="M18.82 99.01 C19.88 100.39 21.84 100.64 23.21 99.59 C23.29 99.54 23.34 99.47 23.41 99.41 C24.81 100.4
								 25.78 101.05 26.33 101.43 C26.5 101.01 26.61 100.6 26.72 100.18 C26.14 99.75 25.36 99.14 24.22 98.22
								 C24.6 97.25 24.48 96.1 23.8 95.21 C22.83 93.95 21.1 93.63 19.76 94.41 C18.28 93.08 16.65 91.56 14.93
								 89.85 C20.27 86.98 24.06 87.4 24.06 87.4 C23.43 86.59 22.72 85.88 21.96 85.25 C19.71 84.9 16.21
								 84.94 12.22 87.06 L12.21 87.06 L12.21 87.06 C10.88 85.67 9.53 84.17 8.15 82.57 C7.49 82.78 6.84
								 83.04 6.22 83.35 C7.24 85.02 8.61 86.7 10.15 88.34 C10.15 88.34 10.16 88.35 10.16 88.35 C8.87 89.25
								 7.44 90.46 6.12 91.85 C5.95 92.03 5.79 92.22 5.63 92.4 C4.84 92.23 4.01 92.28 3.23 92.56 C1.91 89.72
								 2.02 87.43 2.23 86.25 C1.65 86.85 1.12 87.48 0.66 88.15 C0.31 89.56 0.22 91.59 1.23 94.03 C0.06
								 95.57 0 97.76 1.23 99.37 C1.33 99.5 1.44 99.62 1.55 99.74 C1.02 101.57 0.78 103.33 0.7 104.84 C0.84
								 105.03 0.84 105.18 0.98 105.37 C1.68 106.26 2.55 107.02 3.4 107.7 C3.3 106.1 3.41 103.74 4.4 101.08
								 C5.08 101.13 5.78 101.02 6.43 100.75 C6.8 101.07 7.19 101.41 7.61 101.74 C9.04 102.87 10.46 103.75
								 11.85 104.45 C11.78 105.15 11.96 105.89 12.41 106.5 C13.4 107.76 15.21 108 16.48 107.03 C16.74 106.83
								 16.95 106.59 17.13 106.32 C19.39 106.83 21.37 106.92 22.84 106.92 C23.06 106.92 24.11 105.5 24.7
								 104.62 C23.81 104.81 21.16 105.17 17.54 104.13 C17.45 103.72 17.28 103.33 17.02 102.98 C16.1 101.77
								 14.42 101.51 13.16 102.32 C11.9 101.63 10.59 100.78 9.23 99.7 C8.95 99.48 8.69 99.27 8.43 99.05
								 C9.27 97.74 9.35 96.06 8.62 94.65 C8.79 94.49 8.95 94.32 9.13 94.15 C10.47 92.9 11.74 91.89 12.92
								 91.08 C12.88 91.04 12.83 90.99 12.79 90.95 C12.83 90.99 12.88 91.03 12.93 91.08 C12.92 91.08 12.92
								 91.08 12.92 91.08 C14.74 92.76 16.67 94.35 18.49 95.78 C18.01 96.8 18.09 98.05 18.82 99.01 Z"
							class="st2"/>
				</g>
			</g>
			<g id="shape6-8" v:mID="6" v:groupContext="shape" transform="translate(1.16707E-12,-54.9024)">
				<title>text10286</title>
				<desc>Web App</desc>
				<v:textBlock v:margins="rect(0,0,0,0)"/>
				<v:textRect cx="26.25" cy="103.5" width="52.5" height="9"/>
				<rect x="0" y="99" width="52.5" height="9" class="st3"/>
				<text x="0" y="105.75" class="st4" v:langID="1033"><v:paragraph/><v:tabList/>Web App</text>			</g>
			<g id="group7-11" transform="translate(49.2417,-65.7697)" v:mID="7" v:groupContext="group">
				<title>g10016</title>
				<g id="shape8-12" v:mID="8" v:groupContext="shape" transform="translate(1.39888E-14,-5.72515)">
					<title>path3</title>
					<path d="M22.64 105.34 C20.29 107.12 17.49 108 14.78 108 C10.85 108 6.98 106.22 4.44 102.93 C0 97.22 1.07 89.05
								 6.78 84.66 C9.2 82.88 11.93 82 14.71 82 C18.64 82 22.51 83.78 25.05 87.07 C29.42 92.78 28.27 100.95
								 22.64 105.34 Z" class="st5"/>
				</g>
				<g id="shape9-14" v:mID="9" v:groupContext="shape" transform="translate(3.43509,-8.40274)">
					<title>path5</title>
					<path d="M21.61 99.26 C21.93 98.38 21.86 97.36 21.23 96.6 C20.35 95.46 18.81 95.21 17.62 95.9 C16.28 94.7 14.83
								 93.36 13.3 91.85 C17.93 89.31 21.23 89.56 21.42 89.56 C20.86 88.85 20.22 88.22 19.52 87.65 C17.49
								 87.34 14.37 87.41 10.83 89.31 C9.64 88.11 8.42 86.77 7.22 85.31 C6.66 85.5 6.08 85.75 5.51 86.02
								 C6.39 87.48 7.61 88.99 9 90.45 C7.79 91.26 6.59 92.29 5.37 93.56 C5.25 93.75 5.06 93.87 4.93 94.07
								 C4.23 93.94 3.47 93.94 2.78 94.19 C1.64 91.65 1.71 89.68 1.9 88.6 C1.46 89.17 1.02 89.75 0.56 90.31
								 C0.25 91.58 0.18 93.36 1.07 95.51 C0 96.9 0 98.8 1.07 100.27 C1.15 100.39 1.27 100.51 1.39 100.58
								 C0.95 102.17 0.69 103.75 0.63 105.09 C0.76 105.29 0.83 105.41 0.95 105.6 C1.59 106.43 2.29 107.12
								 3.05 107.75 C2.98 106.29 3.05 104.19 3.93 101.85 C4.56 101.92 5.13 101.78 5.76 101.53 C6.08 101.85
								 6.47 102.1 6.83 102.42 C8.1 103.44 9.37 104.19 10.64 104.83 C10.57 105.46 10.71 106.1 11.15 106.66
								 C12.03 107.81 13.62 108 14.76 107.17 C15.01 106.98 15.2 106.78 15.33 106.54 C17.3 106.98 19.06 107.05
								 20.33 107.05 C20.89 106.49 21.47 105.85 21.91 105.22 C21.98 105.15 21.98 105.09 22.04 105.02 C21.21
								 105.22 18.87 105.53 15.63 104.58 C15.55 104.19 15.38 103.88 15.18 103.56 C14.36 102.49 12.84 102.22
								 11.77 103 C10.62 102.36 9.48 101.61 8.28 100.65 C8.03 100.46 7.77 100.27 7.57 100.09 C8.33 98.95
								 8.4 97.43 7.77 96.16 C7.89 96.04 8.09 95.85 8.21 95.72 C9.37 94.7 10.64 93.68 11.66 92.99 C13.3
								 94.51 15.01 95.9 16.59 97.17 C16.15 98.05 16.21 99.19 16.91 100.02 C17.86 101.22 19.64 101.48 20.84
								 100.53 C20.91 100.46 20.96 100.41 21.03 100.34 C22.18 101.17 23.13 101.8 23.64 102.12 C23.76 101.73
								 23.89 101.36 23.96 100.97 C23.32 100.6 22.57 100.02 21.61 99.26 Z" class="st6"/>
				</g>
				<g id="shape10-16" v:mID="10" v:groupContext="shape" transform="translate(16.418,-0.0352317)">
					<title>path9</title>
					<path d="M13.76 92.73 L13.51 92.85 L11.54 93.87 L10.2 93.31 L9.37 90.97 L7.49 90.97 L7.36 91.21 L6.66 93.31 L5.32
								 93.87 L3.1 92.8 L1.76 94.19 L1.88 94.44 L2.91 96.41 L2.34 97.75 L0 98.58 L0 100.55 L0.25 100.62
								 L2.34 101.32 L2.91 102.66 L1.85 104.85 L3.24 106.24 L3.49 106.12 L5.46 105.09 L6.8 105.66 L7.63
								 108 L9.6 108 L9.67 107.75 L10.38 105.66 L11.71 105.09 L14 106.17 L15.4 104.78 L14.13 102.56 L14.69
								 101.22 L17.03 100.39 L17.03 98.51 L16.79 98.38 L14.69 97.68 L14.13 96.34 L15.08 94.31 L13.76 92.73
								 ZM8.51 102.24 C6.99 102.24 5.78 101.04 5.78 99.51 C5.78 97.99 6.98 96.78 8.51 96.78 C10.04 96.78
								 11.24 97.98 11.24 99.51 C11.22 101.04 10.02 102.24 8.51 102.24 Z" class="st7"/>
				</g>
				<g id="group11-18" transform="translate(16.418,-1.79682)" v:mID="11" v:groupContext="group">
					<title>g11</title>
					<g id="shape12-19" v:mID="12" v:groupContext="shape" transform="translate(5.77799,-4.24542)">
						<title>path13</title>
						<path d="M0 105.53 C0 106.61 0.7 107.56 1.66 108 L3.75 103 C3.44 102.87 3.12 102.8 2.73 102.8 C1.2 102.8
									 0 104 0 105.53 Z" class="st8"/>
					</g>
					<g id="shape13-21" v:mID="13" v:groupContext="shape">
						<title>path15</title>
						<path d="M5.78 101.29 C5.78 99.77 6.98 98.56 8.51 98.56 C8.9 98.56 9.21 98.63 9.53 98.75 L10.92 95.39 L10.29
									 95.14 L9.41 92.73 L7.49 92.73 L7.36 92.97 L6.66 95.07 L5.32 95.63 L3.1 94.56 L1.76 95.95 L1.88
									 96.2 L2.91 98.17 L2.34 99.51 L0 100.34 L0 102.31 L0.25 102.38 L2.34 103.09 L2.91 104.42 L1.85
									 106.61 L3.24 108 L3.49 107.88 L5.46 106.85 L6.02 107.1 L7.42 103.74 C6.47 103.31 5.78 102.36
									 5.78 101.29 Z" class="st9"/>
					</g>
				</g>
				<g id="shape14-23" v:mID="14" v:groupContext="shape" transform="translate(6.3417,-1.56319E-13)">
					<title>path19-7</title>
					<path d="M8.16 98.95 L8 99.02 L6.83 99.61 L6.04 99.28 L5.55 97.89 L4.42 97.89 L4.35 98.05 L3.95 99.28 L3.15 99.61
								 L1.85 98.98 L1.06 99.81 L1.13 99.97 L1.73 101.13 L1.39 101.92 L0 102.42 L0 103.58 L0.16 103.61 L1.39
								 104.02 L1.73 104.81 L1.09 106.12 L1.92 106.94 L2.08 106.87 L3.24 106.27 L4.03 106.61 L4.53 108 L5.69
								 108 L5.73 107.84 L6.13 106.61 L6.92 106.27 L8.28 106.91 L9.11 106.08 L8.35 104.78 L8.68 103.98 L10.08
								 103.49 L10.08 102.36 L9.92 102.29 L8.68 101.89 L8.35 101.09 L8.91 99.9 L8.16 98.95 ZM5.04 104.56
								 C4.14 104.56 3.44 103.86 3.44 102.96 C3.44 102.06 4.14 101.36 5.04 101.36 C5.94 101.36 6.64 102.06
								 6.64 102.96 C6.64 103.86 5.94 104.56 5.04 104.56 Z" class="st7"/>
				</g>
				<g id="group15-25" transform="translate(6.35932,-1.05695)" v:mID="15" v:groupContext="group">
					<title>g21</title>
					<g id="shape16-26" v:mID="16" v:groupContext="shape" transform="translate(3.41747,-2.51906)">
						<title>path23-0</title>
						<path d="M0 106.54 C0 107.17 0.41 107.74 0.97 108 L2.2 105.04 C2.01 104.97 1.83 104.93 1.6 104.93 C0.7 104.92
									 0 105.64 0 106.54 Z" class="st8"/>
					</g>
					<g id="shape17-28" v:mID="17" v:groupContext="shape">
						<title>path25</title>
						<path d="M3.42 104.02 C3.42 103.12 4.12 102.42 5.02 102.42 C5.25 102.42 5.43 102.45 5.62 102.52 L6.45 100.53
									 L6.08 100.37 L5.55 98.95 L4.42 98.95 L4.35 99.1 L3.95 100.34 L3.15 100.67 L1.85 100.04 L1.06
									 100.87 L1.13 101.02 L1.73 102.19 L1.39 102.98 L0 103.47 L0 104.64 L0.16 104.67 L1.39 105.08
									 L1.73 105.87 L1.09 107.17 L1.92 108 L2.08 107.93 L3.24 107.33 L3.58 107.49 L4.4 105.5 C3.82
									 105.22 3.42 104.65 3.42 104.02 Z" class="st9"/>
					</g>
				</g>
			</g>
			<g id="shape18-30" v:mID="18" v:groupContext="shape" transform="translate(52.4323,-54.2048)">
				<title>text10286-3</title>
				<desc>WebJob</desc>
				<v:textBlock v:margins="rect(0,0,0,0)"/>
				<v:textRect cx="22.5" cy="103.5" width="45.01" height="9"/>
				<rect x="0" y="99" width="45" height="9" class="st3"/>
				<text x="0" y="105.75" class="st4" v:langID="1033"><v:paragraph/><v:tabList/>WebJob</text>			</g>
			<g id="group19-33" transform="translate(29.3986,-10.8435)" v:mID="19" v:groupContext="group">
				<title>paths</title>
				<g id="group20-34" v:mID="20" v:groupContext="group">
					<title>g61</title>
					<g id="shape21-35" v:mID="21" v:groupContext="shape" transform="translate(13.9035,-10.0523)">
						<title>polygon63</title>
						<path d="M5.35 105.91 L0 105.91 L2.68 108 L5.35 105.91 Z" class="st10"/>
					</g>
					<g id="shape22-37" v:mID="22" v:groupContext="shape" transform="translate(5.74417,-8.15933)">
						<title>path65</title>
						<path d="M2.68 106.83 C2.61 106.83 2.55 106.83 2.48 106.76 L0 104.8 L0 108 L5.68 108 L5.68 104.74 L3 106.76
									 C2.87 106.83 2.74 106.83 2.68 106.83 Z" class="st10"/>
					</g>
					<g id="shape23-39" v:mID="23" v:groupContext="shape" transform="translate(13.8382,-8.15933)">
						<title>path67</title>
						<path d="M2.74 106.83 C2.68 106.83 2.55 106.83 2.55 106.76 L0 104.8 L0 108 L5.68 108 L5.68 104.74 L3 106.76
									 C2.87 106.83 2.81 106.83 2.74 106.83 Z" class="st10"/>
					</g>
					<g id="shape24-41" v:mID="24" v:groupContext="shape">
						<title>path69</title>
						<path d="M18.6 86.59 L6.2 86.59 L0 97.29 L6.2 108 L18.54 108 L24.74 97.29 L18.6 86.59 ZM20.76 101.86 L3.85
									 101.86 C3.33 101.86 2.94 101.41 2.94 100.89 L2.94 94.42 C2.94 93.9 3.33 93.44 3.85 93.44 L20.76
									 93.44 C20.95 93.44 21.28 93.44 23.5 97.62 L23.56 97.82 L23.5 98.01 C21.28 101.86 20.95 101.86
									 20.76 101.86 Z" class="st10"/>
					</g>
					<g id="shape25-43" v:mID="25" v:groupContext="shape" transform="translate(5.6789,-10.0523)">
						<title>polygon71</title>
						<path d="M5.42 105.91 L0 105.91 L2.68 108 L5.42 105.91 Z" class="st10"/>
					</g>
					<g id="shape26-45" v:mID="26" v:groupContext="shape" transform="translate(3.59011,-6.78857)">
						<title>path73</title>
						<path d="M0.26 100.95 C0.13 100.95 0 101.08 0 101.21 L0 107.67 C0 107.8 0.13 108 0.26 108 L17.04 108 C17.36
									 107.67 18.34 106.11 19.19 104.61 C18.34 102.97 17.3 101.28 17.04 100.95 L0.26 100.95 ZM8.49
									 106.96 C8.49 107.15 8.29 107.35 8.03 107.35 L1.63 107.35 C1.44 107.35 1.37 107.15 1.37 106.96
									 L1.37 102.19 C1.37 101.99 1.44 101.93 1.63 101.93 L8.03 101.93 C8.22 101.93 8.49 101.99 8.49
									 102.19 L8.49 106.96 ZM16.51 106.96 C16.51 107.15 16.38 107.35 16.19 107.35 L9.86 107.35 C9.66
									 107.35 9.53 107.15 9.53 106.96 L9.53 102.19 C9.53 101.99 9.66 101.93 9.86 101.93 L16.19 101.93
									 C16.38 101.93 16.51 101.99 16.51 102.19 L16.51 106.96 Z" class="st10"/>
					</g>
				</g>
			</g>
			<g id="shape27-47" v:mID="27" v:groupContext="shape" transform="translate(29.5752,-0.747075)">
				<title>text10852</title>
				<desc>Queue</desc>
				<v:textBlock v:margins="rect(0,0,0,0)"/>
				<v:textRect cx="18.75" cy="103.5" width="37.51" height="9"/>
				<rect x="0" y="99" width="37.5" height="9" class="st3"/>
				<text x="0" y="105.75" class="st4" v:langID="1033"><v:paragraph/><v:tabList/>Queue</text>			</g>
			<g id="group28-50" transform="translate(184.925,-14.524)" v:mID="28" v:groupContext="group">
				<title>g3354</title>
				<g id="shape29-51" v:mID="29" v:groupContext="shape" transform="translate(4.1123,-10.9009)">
					<title>path3356</title>
					<path d="M18.67 108 L1.31 108 C0.59 108 0 107.41 0 106.69 C0 105.98 0.59 105.39 1.31 105.39 L18.67 105.39 C19.39
								 105.39 19.97 105.98 19.97 106.69 C19.97 107.41 19.39 108 18.67 108 Z" class="st11"/>
				</g>
				<g id="shape30-53" v:mID="30" v:groupContext="shape" transform="translate(1.89297,-1.42109E-14)">
					<title>path3358</title>
					<path d="M17.36 108 L1.31 108 C0.59 108 0 107.41 0 106.69 C0 105.98 0.59 105.39 1.31 105.39 L17.36 105.39 C18.08
								 105.39 18.67 105.98 18.67 106.69 C18.67 107.41 18.08 108 17.36 108 Z" class="st11"/>
				</g>
				<g id="shape31-55" v:mID="31" v:groupContext="shape" transform="translate(-2.79776E-13,-5.28725)">
					<title>path3360</title>
					<path d="M17.36 108 L1.31 108 C0.59 108 0 107.41 0 106.69 C0 105.98 0.59 105.39 1.31 105.39 L17.36 105.39 C18.08
								 105.39 18.67 105.98 18.67 106.69 C18.67 107.41 18.08 108 17.36 108 Z" class="st11"/>
				</g>
				<g id="shape32-57" v:mID="32" v:groupContext="shape" transform="translate(8.94263,-9.9476E-14)">
					<title>path3362</title>
					<path d="M23.69 105.19 C23.69 103.63 22.45 102.39 20.95 102.39 C20.82 102.39 20.76 102.39 20.56 102.39 C20.69
								 101.8 20.82 101.15 20.82 100.43 C20.82 96.38 17.49 93.12 13.51 93.12 C10.31 93.12 7.57 95.27 6.59
								 98.08 C6.07 97.95 5.55 97.82 4.96 97.82 C2.15 97.82 0 100.1 0 102.91 C0 105.72 2.22 108 4.96 108
								 L21.08 108 C22.59 107.8 23.69 106.63 23.69 105.19 Z" class="st12"/>
				</g>
				<g id="shape33-59" v:mID="33" v:groupContext="shape" transform="translate(8.94263,-9.9476E-14)">
					<title>path3364</title>
					<path d="M7.57 107.93 C6.92 107.28 6.4 106.5 6.2 105.45 C5.61 102.71 7.25 100.04 9.92 99.45 C10.51 99.32 11.03
								 99.32 11.62 99.38 C11.81 96.84 13.38 94.62 15.73 93.51 C15.01 93.31 14.3 93.12 13.51 93.12 C10.31
								 93.12 7.57 95.27 6.59 98.08 C6.07 97.95 5.55 97.82 4.96 97.82 C2.15 97.82 0 100.1 0 102.91 C0 105.72
								 2.22 108 4.96 108 L7.57 107.93 Z" class="st13"/>
				</g>
			</g>
			<g id="shape34-61" v:mID="34" v:groupContext="shape" transform="translate(193.072,-0.084225)">
				<title>text10856</title>
				<desc>CDN</desc>
				<v:textBlock v:margins="rect(0,0,0,0)"/>
				<v:textRect cx="11.25" cy="103.5" width="22.51" height="9"/>
				<rect x="0" y="99" width="22.5" height="9" class="st3"/>
				<text x="0" y="105.75" class="st4" v:langID="1033"><v:paragraph/><v:tabList/>CDN</text>			</g>
			<g id="group35-64" transform="translate(110.941,-64.6016)" v:mID="35" v:groupContext="group">
				<title>g5253</title>
				<g id="shape36-65" v:mID="36" v:groupContext="shape">
					<title>path3-4</title>
					<path d="M0 91.18 L0 105.33 C0 106.82 3.29 108 7.33 108 L7.33 91.18 L0 91.18 Z" class="st14"/>
				</g>
				<g id="shape37-67" v:mID="37" v:groupContext="shape" transform="translate(7.25261,-2.70006E-13)">
					<title>path5-26</title>
					<path d="M0 108 L0.12 108 C4.19 108 7.45 106.82 7.45 105.33 L7.45 91.18 L0 91.18 L0 108 Z" class="st15"/>
				</g>
				<g id="shape38-69" v:mID="38" v:groupContext="shape" transform="translate(-8.69305E-14,-14.1524)">
					<title>path7-09</title>
					<path d="M14.7 105.33 C14.7 106.78 11.41 108 7.37 108 C3.33 108 0 106.78 0 105.33 C0 103.88 3.29 102.67 7.33
								 102.67 C11.37 102.67 14.7 103.88 14.7 105.33 Z" class="st16"/>
				</g>
				<g id="shape39-71" v:mID="39" v:groupContext="shape" transform="translate(1.48973,-15.2109)">
					<title>path9-77</title>
					<path d="M11.72 106.24 C11.72 107.22 9.1 108 5.88 108 C2.67 108 0 107.22 0 106.24 C0 105.26 2.63 104.47 5.84
								 104.47 C9.06 104.47 11.72 105.26 11.72 106.24 Z" class="st17"/>
				</g>
				<g id="shape40-73" v:mID="40" v:groupContext="shape" transform="translate(1.48973,-15.9165)">
					<title>path11-8</title>
					<path d="M10.47 108 C11.25 107.69 11.68 107.33 11.68 106.94 C11.68 105.96 9.06 105.18 5.84 105.18 C2.63 105.18
								 0 105.96 0 106.94 C0 107.33 0.47 107.73 1.22 108 C2.27 107.57 3.96 107.33 5.84 107.33 C7.72 107.33
								 9.41 107.61 10.47 108 Z" class="st18"/>
				</g>
				<g id="shape41-75" v:mID="41" v:groupContext="shape" transform="translate(9.33039,-1.56319E-13)">
					<title>path13-1</title>
					<path d="M0 96.79 L0 106.24 C0 107.22 2.2 108 4.9 108 L4.9 96.79 L0 96.79 Z" class="st19"/>
				</g>
				<g id="shape42-77" v:mID="42" v:groupContext="shape" transform="translate(14.1524,-1.56319E-13)">
					<title>path15-3</title>
					<path d="M0 108 L0.08 108 C2.78 108 4.98 107.22 4.98 106.24 L4.98 96.79 L0 96.79 L0 108 Z" class="st19"/>
				</g>
				<g id="shape43-79" v:mID="43" v:groupContext="shape" transform="translate(14.1524,-1.56319E-13)">
					<title>path17-7</title>
					<path d="M0 108 L0.08 108 C2.78 108 4.98 107.22 4.98 106.24 L4.98 96.79 L0 96.79 L0 108 Z" class="st20"/>
				</g>
				<g id="shape44-81" v:mID="44" v:groupContext="shape" transform="translate(9.33039,-9.44799)">
					<title>path19</title>
					<path d="M9.8 106.24 C9.8 107.22 7.61 108 4.9 108 C2.2 108 0 107.22 0 106.24 C0 105.26 2.2 104.47 4.9 104.47
								 C7.61 104.47 9.8 105.26 9.8 106.24 Z" class="st16"/>
				</g>
				<g id="shape45-83" v:mID="45" v:groupContext="shape" transform="translate(10.3497,-10.1537)">
					<title>path21</title>
					<path d="M7.76 106.82 C7.76 107.45 6 108 3.88 108 C1.76 108 0 107.49 0 106.82 C0 106.2 1.76 105.65 3.88 105.65
								 C6 105.65 7.76 106.2 7.76 106.82 Z" class="st17"/>
				</g>
				<g id="shape46-85" v:mID="46" v:groupContext="shape" transform="translate(10.3497,-10.6241)">
					<title>path23</title>
					<path d="M6.94 108 C7.45 107.8 7.76 107.57 7.76 107.29 C7.76 106.67 6 106.12 3.88 106.12 C1.72 106.12 0 106.63
								 0 107.29 C0 107.57 0.31 107.8 0.82 108 C1.53 107.73 2.67 107.53 3.92 107.53 C5.1 107.53 6.19 107.73
								 6.94 108 Z" class="st18"/>
				</g>
				<g id="shape47-87" v:mID="47" v:groupContext="shape" transform="translate(11.4474,-0.980084)">
					<title>polygon25</title>
					<path d="M0 108 L2.12 104.51 L0.27 104.51 L5.72 100.04 L3.61 103.49 L5.45 103.49 L0 108 Z" class="st21"/>
				</g>
			</g>
			<g id="shape48-89" v:mID="48" v:groupContext="shape" transform="translate(98.278,-54.2048)">
				<title>text10860</title>
				<desc>Redis Cache</desc>
				<v:textBlock v:margins="rect(0,0,0,0)"/>
				<v:textRect cx="41.25" cy="103.5" width="82.5" height="9"/>
				<rect x="0" y="99" width="82.5" height="9" class="st3"/>
				<text x="0" y="105.75" class="st4" v:langID="1033"><v:paragraph/><v:tabList/>Redis Cache</text>			</g>
			<g id="group49-92" transform="translate(165.587,-68.3752)" v:mID="49" v:groupContext="group">
				<title>g4361</title>
				<g id="group50-93" transform="translate(2.01839E-13,-0.0908568)" v:mID="50" v:groupContext="group">
					<title>g3366-3</title>
					<g id="shape51-94" v:mID="51" v:groupContext="shape">
						<title>path3-5-6</title>
						<path d="M0 83.01 L0 104.05 C0 106.23 4.89 108 10.92 108 L10.92 83.01 C10.92 83.01 0 83.01 0 83.01 Z"
								class="st22"/>
					</g>
					<g id="shape52-96" v:mID="52" v:groupContext="shape" transform="translate(10.7665,-0.000582413)">
						<title>path5-3-4</title>
						<path d="M0 108 L0.15 108 C6.18 108 11.07 106.23 11.07 104.05 L11.07 83.02 L0 83.02 L0 108 Z" class="st22"/>
					</g>
					<g id="shape53-98" v:mID="53" v:groupContext="shape" transform="translate(10.7665,-0.000582413)">
						<title>path7-0</title>
						<path d="M0 108 L0.15 108 C6.18 108 11.07 106.23 11.07 104.05 L11.07 83.02 L0 83.02 L0 108 Z" class="st23"/>
					</g>
					<g id="shape54-100" v:mID="54" v:groupContext="shape" transform="translate(-4.39648E-14,-21.0321)">
						<title>path9-9</title>
						<path d="M21.83 104.05 C21.83 106.23 16.94 108 10.92 108 C4.89 108 0 106.23 0 104.05 C0 101.86 4.89 100.09
									 10.92 100.09 C16.94 100.09 21.83 101.86 21.83 104.05 Z" class="st2"/>
					</g>
					<g id="shape55-102" v:mID="55" v:groupContext="shape" transform="translate(2.23122,-22.6046)">
						<title>path11-5</title>
						<path d="M17.37 105.39 C17.37 106.83 13.48 108 8.68 108 C3.89 108 0 106.83 0 105.39 C0 103.95 3.89 102.78
									 8.68 102.78 C13.48 102.78 17.37 103.95 17.37 105.39 Z" class="st24"/>
					</g>
					<g id="shape56-104" v:mID="56" v:groupContext="shape" transform="translate(2.23181,-23.6192)">
						<title>path13-5</title>
						<path d="M15.55 108 C16.69 107.56 17.37 107.01 17.37 106.41 C17.37 104.97 13.48 103.8 8.68 103.8 C3.89 103.8
									 0 104.97 0 106.41 C0 107.01 0.68 107.56 1.82 108 C3.41 107.38 5.89 106.99 8.68 106.99 C11.48
									 106.99 13.96 107.38 15.55 108 Z" class="st25"/>
					</g>
					<g id="shape57-106" v:mID="57" v:groupContext="shape" transform="translate(2.96215,-8.33025)">
						<title>path15-8</title>
						<path d="M4.49 105.94 C4.49 106.6 4.25 107.1 3.78 107.46 C3.3 107.82 2.65 108 1.81 108 C1.1 108 0.51 107.87
									 0.03 107.62 L0.03 106.08 C0.58 106.55 1.19 106.78 1.85 106.78 C2.17 106.78 2.42 106.72 2.59
									 106.59 C2.77 106.46 2.85 106.29 2.85 106.08 C2.85 105.87 2.77 105.69 2.6 105.54 C2.43 105.38
									 2.09 105.18 1.58 104.94 C0.53 104.45 0 103.77 0 102.92 C0 102.3 0.23 101.81 0.69 101.44 C1.15
									 101.06 1.75 100.88 2.51 100.88 C3.19 100.88 3.74 100.96 4.18 101.14 L4.18 102.58 C3.72 102.26
									 3.19 102.1 2.6 102.1 C2.3 102.1 2.07 102.16 1.89 102.28 C1.72 102.41 1.63 102.58 1.63 102.79
									 C1.63 103.01 1.7 103.19 1.84 103.33 C1.98 103.47 2.27 103.64 2.7 103.84 C3.34 104.15 3.8 104.46
									 4.08 104.77 C4.35 105.09 4.49 105.48 4.49 105.94 Z" class="st2"/>
					</g>
					<g id="shape58-108" v:mID="58" v:groupContext="shape" transform="translate(8.11126,-6.73036)">
						<title>path17-2</title>
						<path d="M6.75 102.79 C6.75 103.6 6.57 104.3 6.2 104.9 C5.83 105.49 5.31 105.91 4.64 106.15 L6.64 108 L4.62
									 108 L3.2 106.4 C2.58 106.38 2.03 106.22 1.54 105.91 C1.05 105.61 0.67 105.2 0.4 104.68 C0.13
									 104.15 0 103.57 0 102.93 C0 102.21 0.15 101.58 0.43 101.02 C0.72 100.46 1.13 100.03 1.66 99.73
									 C2.18 99.43 2.78 99.28 3.46 99.28 C4.1 99.28 4.67 99.42 5.17 99.71 C5.67 100 6.06 100.42 6.33
									 100.96 C6.61 101.5 6.75 102.11 6.75 102.79 ZM5.12 102.87 C5.12 102.18 4.97 101.62 4.66 101.22
									 C4.36 100.81 3.94 100.61 3.41 100.61 C2.87 100.61 2.44 100.81 2.12 101.22 C1.8 101.63 1.63 102.17
									 1.63 102.84 C1.63 103.52 1.79 104.05 2.11 104.46 C2.43 104.86 2.85 105.06 3.37 105.06 C3.91
									 105.06 4.33 104.86 4.65 104.48 C4.96 104.09 5.12 103.55 5.12 102.87 Z" class="st2"/>
					</g>
					<g id="shape59-110" v:mID="59" v:groupContext="shape" transform="translate(16,-8.45023)">
						<title>polygon19-6</title>
						<path d="M1.55 106.74 L4.1 106.74 L4.1 108 L0 108 L0 101.11 L1.55 101.11 L1.55 106.74 Z" class="st2"/>
					</g>
				</g>
				<g id="group60-112" transform="translate(29.5464,-2.13163E-13)" v:mID="60" v:groupContext="group">
					<title>g10168</title>
					<g id="shape61-113" v:mID="61" v:groupContext="shape" transform="translate(8.19345E-14,-0.0582413)">
						<title>path3-2</title>
						<path d="M0 82.9 L0 104.04 C0 106.25 4.89 108 11.01 108 L11.01 82.9 L0 82.9 Z" class="st26"/>
					</g>
					<g id="shape62-115" v:mID="62" v:groupContext="shape" transform="translate(10.8329,-1.56319E-13)">
						<title>path5-2</title>
						<path d="M0 108 L0.17 108 C6.23 108 11.18 106.19 11.18 104.04 L11.18 82.84 L0 82.84 L0 108 Z" class="st1"/>
					</g>
					<g id="shape63-117" v:mID="63" v:groupContext="shape" transform="translate(1.51879E-13,-21.1998)">
						<title>path7-5</title>
						<path d="M22.02 104.04 C22.02 106.25 17.12 108 11.01 108 C4.89 108 0 106.25 0 104.04 C0 101.88 4.95 100.08
									 11.01 100.08 C17.06 100.08 22.02 101.88 22.02 104.04 Z" class="st2"/>
					</g>
					<g id="shape64-119" v:mID="64" v:groupContext="shape" transform="translate(2.27141,-22.7723)">
						<title>path9-7</title>
						<path d="M17.47 105.38 C17.47 106.84 13.57 108 8.74 108 C3.9 108 0 106.84 0 105.38 C0 103.92 3.9 102.76 8.74
									 102.76 C13.57 102.76 17.47 103.92 17.47 105.38 Z" class="st24"/>
					</g>
					<g id="shape65-121" v:mID="65" v:groupContext="shape" transform="translate(2.27141,-23.7624)">
						<title>path11-9</title>
						<path d="M15.67 108 C16.83 107.53 17.47 107.01 17.47 106.37 C17.47 104.91 13.57 103.75 8.74 103.75 C3.9 103.75
									 0 104.91 0 106.37 C0 106.95 0.7 107.53 1.81 108 C3.38 107.36 5.88 106.95 8.74 106.95 C11.53
									 106.95 14.04 107.36 15.67 108 Z" class="st25"/>
					</g>
					<g id="group66-123" transform="translate(3.31975,-4.77578)" v:mID="66" v:groupContext="group">
						<title>g13</title>
						<g id="shape67-124" v:mID="67" v:groupContext="shape">
							<title>path15-2</title>
							<path d="M4.54 108 C3.67 108 2.97 107.88 2.5 107.71 C1.98 107.53 1.63 107.24 1.4 106.89 C1.16 106.49
										 1.05 105.9 1.05 105.15 L1.05 103.86 C1.05 103.05 0.7 102.58 0 102.58 L0 101.01 C0.7 101.01
										 1.05 100.6 1.05 99.73 L1.05 98.56 C1.05 97.75 1.16 97.11 1.4 96.76 C1.63 96.35 1.98 96.12
										 2.45 95.89 C2.97 95.71 3.61 95.59 4.48 95.59 L4.48 97.17 C4.08 97.17 3.84 97.23 3.61 97.4
										 C3.44 97.57 3.32 97.87 3.32 98.27 L3.32 99.26 C3.32 99.9 3.26 100.43 3.09 100.84 C2.91 101.24
										 2.62 101.54 2.21 101.71 C2.62 101.88 2.91 102.18 3.09 102.64 C3.26 103.05 3.38 103.63 3.38
										 104.27 L3.38 105.15 C3.38 105.55 3.44 105.85 3.61 106.02 C3.79 106.19 4.08 106.31 4.48 106.31
										 L4.48 108 L4.54 108 Z" class="st2"/>
						</g>
						<g id="shape68-126" v:mID="68" v:groupContext="shape" transform="translate(9.95926,-9.9476E-14)">
							<title>path17-4</title>
							<path d="M4.48 102.58 C3.79 102.58 3.44 102.99 3.44 103.86 L3.44 105.03 C3.44 105.85 3.32 106.49 3.09
										 106.84 C2.85 107.24 2.5 107.48 2.04 107.71 C1.51 107.88 0.87 108 0 108 L0 106.43 C0.41 106.43
										 0.7 106.37 0.87 106.19 C1.05 106.02 1.16 105.73 1.16 105.32 L1.16 104.33 C1.16 103.69 1.22
										 103.17 1.4 102.76 C1.57 102.35 1.86 102.06 2.27 101.88 C1.86 101.71 1.57 101.36 1.4 100.95
										 C1.22 100.55 1.11 99.96 1.11 99.32 L1.11 98.45 C1.11 98.04 1.05 97.75 0.87 97.57 C0.7 97.4
										 0.41 97.28 0 97.28 L0 95.71 C0.87 95.71 1.57 95.83 2.04 96 C2.56 96.18 2.91 96.47 3.15 96.82
										 C3.38 97.23 3.49 97.81 3.49 98.56 L3.49 99.85 C3.49 100.66 3.84 101.13 4.54 101.13 L4.54
										 102.58 L4.48 102.58 Z" class="st2"/>
						</g>
					</g>
				</g>
			</g>
			<g id="shape69-128" v:mID="69" v:groupContext="shape" transform="translate(173.519,-54.2048)">
				<title>text4272</title>
				<desc>Database</desc>
				<v:textBlock v:margins="rect(0,0,0,0)"/>
				<v:textRect cx="30" cy="103.5" width="60" height="9"/>
				<rect x="0" y="99" width="60" height="9" class="st3"/>
				<text x="0" y="105.75" class="st4" v:langID="1033"><v:paragraph/><v:tabList/>Database</text>			</g>
			<g id="group70-131" v:mID="70" v:groupContext="group">
				<title>Layer_1-7</title>
			</g>
			<g id="group71-132" transform="translate(118.294,-10.6216)" v:mID="71" v:groupContext="group">
				<title>paths-6</title>
				<g id="group72-133" v:mID="72" v:groupContext="group">
					<title>g59</title>
					<g id="shape73-134" v:mID="73" v:groupContext="shape">
						<title>path61</title>
						<path d="M18.72 86.37 L6.22 86.37 L0 97.18 L6.22 108 L18.72 108 L24.94 97.18 L18.72 86.37 ZM18.78 102.04
									 C18.78 102.95 18.01 103.73 17.1 103.73 L7.9 103.73 C6.99 103.73 6.22 102.95 6.22 102.04 L6.22
									 92.39 C6.22 91.48 6.99 90.71 7.9 90.71 L14.7 90.71 C15.35 90.71 16 90.71 16 90.71 L16.19 90.71
									 L18.78 93.3 L18.78 94.66 L18.78 102.04 Z" class="st27"/>
					</g>
					<g id="shape74-136" v:mID="74" v:groupContext="shape" transform="translate(10.4922,-6.99479)">
						<title>path63</title>
						<path d="M1.04 105.93 C1.04 105.8 0.97 105.73 0.97 105.67 C0.97 105.6 0.91 105.54 0.84 105.47 C0.78 105.41
									 0.78 105.41 0.71 105.41 C0.65 105.41 0.58 105.41 0.52 105.41 C0.39 105.41 0.32 105.41 0.26 105.47
									 C0.19 105.54 0.13 105.6 0.06 105.73 C0 105.86 0 105.99 0 106.12 C0 106.25 0 106.45 0 106.7 C0
									 106.96 0 107.16 0 107.35 C0 107.55 0.06 107.68 0.13 107.74 C0.19 107.87 0.26 107.94 0.32 107.94
									 C0.39 108 0.45 108 0.58 108 C0.65 108 0.71 108 0.78 107.94 C0.84 107.94 0.91 107.87 0.91 107.81
									 C0.97 107.74 0.97 107.68 1.04 107.61 C1.04 107.55 1.1 107.48 1.1 107.35 C1.1 107.29 1.1 107.16
									 1.17 107.03 C1.17 106.9 1.17 106.77 1.17 106.64 C1.17 106.45 1.17 106.32 1.17 106.19 C1.04 106.12
									 1.04 106.06 1.04 105.93 Z" class="st27"/>
					</g>
					<g id="shape75-138" v:mID="75" v:groupContext="shape" transform="translate(13.4067,-12.0466)">
						<title>path65-4</title>
						<path d="M1.04 105.93 C1.04 105.8 0.97 105.73 0.97 105.67 C0.97 105.6 0.91 105.54 0.84 105.47 C0.78 105.41
									 0.78 105.41 0.71 105.41 C0.65 105.41 0.58 105.41 0.52 105.41 C0.39 105.41 0.32 105.41 0.26 105.47
									 C0.19 105.54 0.13 105.6 0.06 105.73 C0 105.86 0 105.99 0 106.12 C0 106.25 0 106.45 0 106.7 C0
									 106.96 0 107.16 0 107.35 C0 107.55 0.06 107.68 0.13 107.74 C0.19 107.87 0.26 107.94 0.32 107.94
									 C0.39 108 0.45 108 0.58 108 C0.65 108 0.71 108 0.78 107.94 C0.84 107.94 0.91 107.87 0.91 107.81
									 C0.97 107.74 0.97 107.68 1.04 107.61 C1.04 107.55 1.1 107.48 1.1 107.35 C1.1 107.29 1.1 107.16
									 1.17 107.03 C1.17 106.9 1.17 106.77 1.17 106.64 C1.17 106.45 1.17 106.32 1.17 106.19 C1.1 106.19
									 1.1 106.06 1.04 105.93 Z" class="st27"/>
					</g>
					<g id="shape76-140" v:mID="76" v:groupContext="shape" transform="translate(7.12432,-5.18132)">
						<title>path67-9</title>
						<path d="M8.61 96.8 C8.35 96.8 7.97 96.8 7.58 96.8 L0.78 96.8 C0.32 96.8 0 97.12 0 97.57 L0 107.22 C0 107.68
									 0.32 108 0.78 108 L9.97 108 C10.36 108 10.75 107.68 10.75 107.22 L10.75 98.93 L8.68 98.93 L8.68
									 96.8 L8.61 96.8 ZM2.85 98.74 C2.85 98.74 2.85 98.67 2.85 98.67 C2.85 98.67 2.85 98.61 2.85 98.61
									 C2.85 98.61 2.85 98.61 2.91 98.54 L3.69 98.03 C3.69 98.03 3.69 98.03 3.76 98.03 C3.76 98.03
									 3.82 98.03 3.82 98.03 C3.82 98.03 3.89 98.03 3.89 98.03 C3.95 98.03 3.95 98.03 4.02 98.03 C4.08
									 98.03 4.15 98.03 4.21 98.03 C4.27 98.03 4.27 98.03 4.34 98.03 C4.34 98.03 4.4 98.03 4.4 98.03
									 C4.4 98.03 4.4 98.03 4.4 98.09 L4.4 101.13 L4.99 101.13 C4.99 101.13 5.05 101.13 5.05 101.13
									 C5.05 101.13 5.05 101.13 5.12 101.2 C5.18 101.26 5.12 101.26 5.12 101.26 C5.12 101.33 5.12 101.33
									 5.12 101.39 C5.12 101.46 5.12 101.52 5.12 101.52 C5.12 101.59 5.12 101.59 5.12 101.59 C5.12
									 101.59 5.12 101.65 5.05 101.65 C5.05 101.65 5.05 101.65 4.99 101.65 L2.98 101.65 C2.98 101.65
									 2.98 101.65 2.91 101.65 C2.91 101.65 2.91 101.65 2.85 101.59 C2.85 101.59 2.85 101.52 2.85 101.52
									 C2.85 101.46 2.85 101.46 2.85 101.39 C2.85 101.33 2.85 101.26 2.85 101.26 C2.85 101.2 2.85 101.2
									 2.85 101.2 C2.85 101.2 2.85 101.13 2.91 101.13 C2.91 101.13 2.91 101.13 2.98 101.13 L3.69 101.13
									 L3.69 98.74 L3.11 99.06 C3.04 99.06 3.04 99.13 2.98 99.13 C2.98 99.13 2.91 99.13 2.91 99.13
									 C2.91 99.13 2.91 99.06 2.85 99.06 C2.85 99 2.85 99 2.85 98.87 C2.85 98.8 2.85 98.74 2.85 98.74
									 ZM5.12 105.67 C5.05 105.93 4.99 106.12 4.86 106.25 C4.73 106.45 4.6 106.58 4.47 106.64 C4.27
									 106.7 4.08 106.77 3.82 106.77 C3.56 106.77 3.37 106.7 3.17 106.64 C2.98 106.58 2.85 106.45 2.78
									 106.25 C2.72 106.06 2.59 105.86 2.59 105.67 C2.53 105.41 2.53 105.15 2.53 104.89 C2.53 104.57
									 2.53 104.31 2.59 104.11 C2.66 103.85 2.72 103.66 2.85 103.53 C2.98 103.4 3.11 103.21 3.24 103.14
									 C3.43 103.08 3.63 103.01 3.89 103.01 C4.15 103.01 4.34 103.08 4.53 103.14 C4.73 103.21 4.86
									 103.34 4.92 103.53 C4.99 103.73 5.12 103.92 5.12 104.11 C5.18 104.37 5.18 104.63 5.18 104.89
									 C5.18 105.22 5.18 105.47 5.12 105.67 ZM8.03 106.58 C8.03 106.64 8.03 106.64 8.03 106.64 C8.03
									 106.64 8.03 106.7 7.97 106.7 C7.97 106.7 7.97 106.7 7.9 106.7 L5.89 106.7 C5.89 106.7 5.89 106.7
									 5.83 106.7 C5.83 106.7 5.83 106.7 5.76 106.64 C5.76 106.64 5.76 106.58 5.76 106.58 C5.76 106.51
									 5.76 106.51 5.76 106.45 C5.76 106.38 5.76 106.32 5.76 106.32 C5.76 106.25 5.76 106.25 5.76 106.25
									 C5.76 106.25 5.76 106.19 5.83 106.19 C5.83 106.19 5.83 106.19 5.89 106.19 L6.61 106.19 L6.61
									 103.79 L6.02 104.11 C5.96 104.11 5.96 104.18 5.89 104.18 C5.89 104.18 5.83 104.18 5.83 104.18
									 C5.83 104.18 5.83 104.11 5.76 104.11 C5.76 104.05 5.76 104.05 5.76 103.92 C5.76 103.85 5.76
									 103.85 5.76 103.79 C5.76 103.79 5.76 103.73 5.76 103.73 C5.76 103.73 5.76 103.66 5.76 103.66
									 C5.76 103.66 5.76 103.66 5.83 103.6 L6.61 103.08 C6.61 103.08 6.61 103.08 6.67 103.08 C6.67
									 103.08 6.74 103.08 6.74 103.08 C6.74 103.08 6.8 103.08 6.8 103.08 C6.87 103.08 6.87 103.08 6.93
									 103.08 C6.99 103.08 7.06 103.08 7.12 103.08 C7.19 103.08 7.19 103.08 7.25 103.08 C7.25 103.08
									 7.32 103.08 7.32 103.08 C7.32 103.08 7.32 103.08 7.32 103.14 L7.32 106.19 L7.9 106.19 C7.9 106.19
									 7.97 106.19 7.97 106.19 C7.97 106.19 7.97 106.19 8.03 106.25 C8.03 106.25 8.03 106.32 8.03 106.32
									 C8.03 106.38 8.03 106.38 8.03 106.45 C8.03 106.51 8.03 106.58 8.03 106.58 ZM8.1 100.62 C8.03
									 100.88 7.97 101.07 7.84 101.2 C7.71 101.39 7.58 101.52 7.45 101.59 C7.25 101.65 7.06 101.72
									 6.8 101.72 C6.54 101.72 6.35 101.65 6.15 101.59 C5.96 101.52 5.83 101.39 5.76 101.2 C5.7 101.07
									 5.57 100.81 5.57 100.62 C5.57 100.42 5.51 100.1 5.51 99.84 C5.51 99.52 5.51 99.26 5.57 99.06
									 C5.63 98.8 5.7 98.61 5.83 98.48 C5.96 98.29 6.09 98.16 6.22 98.09 C6.41 98.03 6.61 97.96 6.87
									 97.96 C7.12 97.96 7.32 98.03 7.51 98.09 C7.71 98.16 7.84 98.29 7.9 98.48 C7.97 98.67 8.1 98.87
									 8.1 99.06 C8.16 99.32 8.16 99.58 8.16 99.84 C8.16 100.16 8.1 100.42 8.1 100.62 Z" class="st27"/>
					</g>
				</g>
			</g>
			<g id="shape77-142" v:mID="77" v:groupContext="shape" transform="translate(111.058,2.84217E-14)">
				<title>text10852-3</title>
				<desc>Static files</desc>
				<v:textBlock v:margins="rect(0,0,0,0)"/>
				<v:textRect cx="45" cy="103.5" width="90" height="9"/>
				<rect x="0" y="99" width="90" height="9" class="st3"/>
				<text x="0" y="105.75" class="st4" v:langID="1033"><v:paragraph/><v:tabList/>Static files</text>			</g>
			<g id="shape78-145" v:mID="78" v:groupContext="shape"
					transform="translate(122.013,50.8677) rotate(74.1393) scale(-1,1)">
				<title>Sheet.78</title>
				<path d="M0 100.61 A25.9205 15.94 -73.04 0 0 23.17 100.61" class="st28"/>
				<path d="M0.01 104.93 L-0.43 99.71 L3.29 103.4 C1.99 103.14 0.67 103.76 0.01 104.93 Z" class="st29"/>
			</g>
			<g id="group87-149" transform="translate(143.2,-21.3195)" v:mID="87" v:groupContext="group">
				<title>Sheet.87</title>
				<g id="shape88-150" v:mID="88" v:groupContext="shape">
					<title>path5380</title>
					<path d="M0 108 C38.04 108 38.04 108 38.04 108 L0 108 Z" class="st30"/>
					<path d="M0 108 C38.04 108 38.04 108 38.04 108" class="st31"/>
				</g>
				<g id="group89-153" transform="translate(34.8857,1.05)" v:mID="89" v:groupContext="group">
					<title>marker5412</title>
					<g id="shape90-154" v:mID="90" v:groupContext="shape" transform="translate(3.675,213.9) rotate(180)">
						<title>path5414</title>
						<path d="M2.62 106.95 L3.67 105.9 L0 106.95 L3.67 108 L2.62 106.95 Z" class="st32"/>
					</g>
				</g>
			</g>
			<g id="group91-156" transform="translate(-43.4399,51.3414) rotate(-74.1393)" v:mID="91" v:groupContext="group">
				<title>Sheet.91</title>
				<g id="group93-157" transform="translate(188.081,5.74937) rotate(-25.8312)" v:mID="93" v:groupContext="group">
					<title>marker5396</title>
					<g id="shape94-158" v:mID="94" v:groupContext="shape" transform="translate(3.36896,213.522) rotate(180)">
						<title>path5398</title>
						<path d="M3.37 108 L0 106.76 L3.37 105.52 C2.83 106.25 2.83 107.25 3.37 108 Z" class="st33"/>
					</g>
				</g>
			</g>
			<g id="group95-160" transform="translate(79.718,-89.0874)" v:mID="95" v:groupContext="group">
				<title>Sheet.95</title>
				<g id="shape96-161" v:mID="96" v:groupContext="shape">
					<title>path5422</title>
					<path d="M0 108 L82.77 108 L0 108 Z" class="st30"/>
					<path d="M0 108 L82.77 108" class="st31"/>
				</g>
				<g id="group97-164" transform="translate(79.6179,1.05)" v:mID="97" v:groupContext="group">
					<title>marker5424</title>
					<g id="shape98-165" v:mID="98" v:groupContext="shape" transform="translate(3.675,213.9) rotate(180)">
						<title>path5426</title>
						<path d="M2.62 106.95 L3.67 105.9 L0 106.95 L3.67 108 L2.62 106.95 Z" class="st32"/>
					</g>
				</g>
			</g>
		</g>
		<g id="shape100-167" v:mID="100" v:groupContext="shape" transform="translate(-29.1026,25.7715) rotate(-75) scale(-1,1)">
			<title>Sheet.100</title>
			<path d="M0 100.61 A25.9205 15.94 -73.04 0 0 23.17 100.61" class="st28"/>
			<path d="M0.01 104.93 L-0.43 99.71 L3.29 103.4 C1.99 103.14 0.67 103.76 0.01 104.93 Z" class="st29"/>
		</g>
		<g id="group101-171" transform="translate(112.5,135) rotate(180)" v:mID="101" v:groupContext="group">
			<title>Sheet.101</title>
			<g id="shape102-172" v:mID="102" v:groupContext="shape">
				<title>path5422</title>
				<path d="M0 108 L20.66 108 L0 108 Z" class="st30"/>
				<path d="M0 108 L20.66 108" class="st31"/>
			</g>
			<g id="group103-175" transform="translate(17.5071,1.05)" v:mID="103" v:groupContext="group">
				<title>marker5424</title>
				<g id="shape104-176" v:mID="104" v:groupContext="shape" transform="translate(3.675,213.9) rotate(180)">
					<title>path5426</title>
					<path d="M2.62 106.95 L3.67 105.9 L0 106.95 L3.67 108 L2.62 106.95 Z" class="st32"/>
				</g>
			</g>
		</g>
		<g id="group105-178" transform="translate(165.375,135) rotate(180)" v:mID="105" v:groupContext="group">
			<title>Sheet.105</title>
			<g id="shape106-179" v:mID="106" v:groupContext="shape">
				<title>path5422</title>
				<path d="M0 108 L28.53 108 L0 108 Z" class="st30"/>
				<path d="M0 108 L28.53 108" class="st31"/>
			</g>
			<g id="group107-182" transform="translate(25.3821,1.05)" v:mID="107" v:groupContext="group">
				<title>marker5424</title>
				<g id="shape108-183" v:mID="108" v:groupContext="shape" transform="translate(3.675,213.9) rotate(180)">
					<title>path5426</title>
					<path d="M2.62 106.95 L3.67 105.9 L0 106.95 L3.67 108 L2.62 106.95 Z" class="st32"/>
				</g>
			</g>
		</g>
	</g>
</svg>
