<?xml version="1.0" encoding="UTF-8" standalone="no"?>
<!-- Created with Inkscape (http://www.inkscape.org/) -->

<svg
   xmlns:v="http://schemas.microsoft.com/visio/2003/SVGExtensions/"
   xmlns:dc="http://purl.org/dc/elements/1.1/"
   xmlns:cc="http://creativecommons.org/ns#"
   xmlns:rdf="http://www.w3.org/1999/02/22-rdf-syntax-ns#"
   xmlns:svg="http://www.w3.org/2000/svg"
   xmlns="http://www.w3.org/2000/svg"
   xmlns:sodipodi="http://sodipodi.sourceforge.net/DTD/sodipodi-0.dtd"
   xmlns:inkscape="http://www.inkscape.org/namespaces/inkscape"
   width="320"
   height="144"
   viewBox="0 0 320 144"
   id="svg4615"
   version="1.1"
   inkscape:version="0.91 r13725"
   sodipodi:docname="aad.svg">
  <defs
     id="defs4617">
    <marker
       inkscape:isstock="true"
       style="overflow:visible;"
       id="marker8745"
       refX="0.0"
       refY="0.0"
       orient="auto"
       inkscape:stockid="Arrow2Mend">
      <path
         transform="scale(0.6) rotate(180) translate(0,0)"
         d="M 8.7185878,4.0337352 L -2.2072895,0.016013256 L 8.7185884,-4.0017078 C 6.9730900,-1.6296469 6.9831476,1.6157441 8.7185878,4.0337352 z "
         style="fill-rule:evenodd;stroke-width:0.625;stroke-linejoin:round;stroke:#3c3c3c;stroke-opacity:1;fill:#3c3c3c;fill-opacity:1"
         id="path8747" />
    </marker>
    <marker
       inkscape:stockid="Arrow2Mend"
       orient="auto"
       refY="0.0"
       refX="0.0"
       id="marker8685"
       style="overflow:visible;"
       inkscape:isstock="true"
       inkscape:collect="always">
      <path
         id="path8687"
         style="fill-rule:evenodd;stroke-width:0.625;stroke-linejoin:round;stroke:#3c3c3c;stroke-opacity:1;fill:#3c3c3c;fill-opacity:1"
         d="M 8.7185878,4.0337352 L -2.2072895,0.016013256 L 8.7185884,-4.0017078 C 6.9730900,-1.6296469 6.9831476,1.6157441 8.7185878,4.0337352 z "
         transform="scale(0.6) rotate(180) translate(0,0)" />
    </marker>
    <marker
       inkscape:stockid="Arrow1Send"
       orient="auto"
       refY="0.0"
       refX="0.0"
       id="Arrow1Send"
       style="overflow:visible;"
       inkscape:isstock="true">
      <path
         id="path5833"
         d="M 0.0,0.0 L 5.0,-5.0 L -12.5,0.0 L 5.0,5.0 L 0.0,0.0 z "
         style="fill-rule:evenodd;stroke:#3c3c3c;stroke-width:1pt;stroke-opacity:1;fill:#3c3c3c;fill-opacity:1"
         transform="scale(0.2) rotate(180) translate(6,0)" />
    </marker>
    <marker
       inkscape:stockid="Arrow2Mend"
       orient="auto"
       refY="0.0"
       refX="0.0"
       id="Arrow2Mend"
       style="overflow:visible;"
       inkscape:isstock="true">
      <path
         id="path5845"
         style="fill-rule:evenodd;stroke-width:0.62500000;stroke-linejoin:round;"
         d="M 8.7185878,4.0337352 L -2.2072895,0.016013256 L 8.7185884,-4.0017078 C 6.9730900,-1.6296469 6.9831476,1.6157441 8.7185878,4.0337352 z "
         transform="scale(0.6) rotate(180) translate(0,0)" />
    </marker>
    <marker
       inkscape:stockid="Arrow2Mend"
       orient="auto"
       refY="0.0"
       refX="0.0"
       id="marker7414"
       style="overflow:visible;"
       inkscape:isstock="true">
      <path
         id="path7416"
         style="fill-rule:evenodd;stroke-width:0.625;stroke-linejoin:round;stroke:#4b4b4b;stroke-opacity:1;fill:#4b4b4b;fill-opacity:1"
         d="M 8.7185878,4.0337352 L -2.2072895,0.016013256 L 8.7185884,-4.0017078 C 6.9730900,-1.6296469 6.9831476,1.6157441 8.7185878,4.0337352 z "
         transform="scale(0.6) rotate(180) translate(0,0)" />
    </marker>
    <marker
       inkscape:isstock="true"
       style="overflow:visible;"
       id="marker6382"
       refX="0.0"
       refY="0.0"
       orient="auto"
       inkscape:stockid="Arrow2Mend">
      <path
         transform="scale(0.6) rotate(180) translate(0,0)"
         d="M 8.7185878,4.0337352 L -2.2072895,0.016013256 L 8.7185884,-4.0017078 C 6.9730900,-1.6296469 6.9831476,1.6157441 8.7185878,4.0337352 z "
         style="fill-rule:evenodd;stroke-width:0.625;stroke-linejoin:round;stroke:#3c3c3c;stroke-opacity:1;fill:#3c3c3c;fill-opacity:1"
         id="path6384" />
    </marker>
    <marker
       inkscape:isstock="true"
       style="overflow:visible;"
       id="marker6094"
       refX="0.0"
       refY="0.0"
       orient="auto"
       inkscape:stockid="Arrow2Lend">
      <path
         transform="scale(1.1) rotate(180) translate(1,0)"
         d="M 8.7185878,4.0337352 L -2.2072895,0.016013256 L 8.7185884,-4.0017078 C 6.9730900,-1.6296469 6.9831476,1.6157441 8.7185878,4.0337352 z "
         style="fill-rule:evenodd;stroke-width:0.625;stroke-linejoin:round;stroke:#4b4b4b;stroke-opacity:1;fill:#4b4b4b;fill-opacity:1"
         id="path6096" />
    </marker>
  </defs>
  <sodipodi:namedview
     id="base"
     pagecolor="#ffffff"
     bordercolor="#666666"
     borderopacity="1.0"
     inkscape:pageopacity="0.0"
     inkscape:pageshadow="2"
     inkscape:zoom="1.4"
     inkscape:cx="79.942319"
     inkscape:cy="-17.35935"
     inkscape:document-units="px"
     inkscape:current-layer="layer1"
     showgrid="false"
     units="px"
     inkscape:window-width="1536"
     inkscape:window-height="897"
     inkscape:window-x="-8"
     inkscape:window-y="-8"
     inkscape:window-maximized="1" />
  <metadata
     id="metadata4620">
    <rdf:RDF>
      <cc:Work
         rdf:about="">
        <dc:format>image/svg+xml</dc:format>
        <dc:type
           rdf:resource="http://purl.org/dc/dcmitype/StillImage" />
        <dc:title></dc:title>
      </cc:Work>
    </rdf:RDF>
  </metadata>
  <g
     inkscape:label="Layer 1"
     inkscape:groupmode="layer"
     id="layer1"
     transform="translate(0,-908.36216)">
    <g
       transform="matrix(0.66238217,0,0,0.66238217,19.819846,892.79527)"
       id="Layer_1-0" />
    <g
       id="File_x2C__general"
       transform="translate(159.31886,816.91847)">
      <title
         id="title6">Sheet.1071</title>
    </g>
    <g
       id="Message"
       transform="translate(159.31886,816.91847)" />
    <g
       id="Monitor"
       transform="translate(159.31886,816.91847)" />
    <g
       id="Monitor_running_apps"
       transform="translate(159.31886,816.91847)" />
    <g
       id="Mouse"
       transform="translate(159.31886,816.91847)" />
    <g
       id="Network_card"
       transform="translate(159.31886,816.91847)" />
    <g
       id="Not_allowed"
       transform="translate(159.31886,816.91847)" />
    <g
       id="Performance"
       transform="translate(159.31886,816.91847)" />
    <g
       id="Phone"
       transform="translate(159.31886,816.91847)" />
    <g
       id="Plug_and_play"
       transform="translate(159.31886,816.91847)" />
    <g
       id="Powershell_script_file"
       transform="translate(159.31886,816.91847)" />
    <g
       id="Protocol_stack"
       transform="translate(159.31886,816.91847)" />
    <g
       id="Queue_x2C__general"
       transform="translate(159.31886,816.91847)" />
    <g
       id="RMS_connector"
       transform="translate(159.31886,816.91847)" />
    <g
       transform="translate(159.31886,816.91847)"
       id="paths">
      <g
         id="Access_control" />
      <g
         id="Azure_active_directory" />
      <g
         id="Generic_code" />
      <g
         id="Laptop" />
      <g
         id="Load_balancer" />
      <g
         id="Lock_x2C__protected" />
    </g>
    <g
       transform="translate(159.31886,816.91847)"
       id="symbols" />
    <g
       transform="translate(159.31886,816.91847)"
       id="slices" />
    <g
       transform="matrix(0.66238217,0,0,0.66238217,11.699646,891.89087)"
       id="Layer_1-0-8" />
    <g
       id="File_x2C__general-9"
       transform="translate(151.19867,816.01408)">
      <title
         id="title6-5">Sheet.1071</title>
    </g>
    <g
       id="Message-5"
       transform="translate(151.19867,816.01408)" />
    <g
       id="Monitor-9"
       transform="translate(151.19867,816.01408)" />
    <g
       id="Monitor_running_apps-8"
       transform="translate(151.19867,816.01408)" />
    <g
       id="Mouse-2"
       transform="translate(151.19867,816.01408)" />
    <g
       id="Network_card-4"
       transform="translate(151.19867,816.01408)" />
    <g
       id="Not_allowed-1"
       transform="translate(151.19867,816.01408)" />
    <g
       id="Performance-1"
       transform="translate(151.19867,816.01408)" />
    <g
       id="Phone-2"
       transform="translate(151.19867,816.01408)" />
    <g
       id="Plug_and_play-4"
       transform="translate(151.19867,816.01408)" />
    <g
       id="Powershell_script_file-4"
       transform="translate(151.19867,816.01408)" />
    <g
       id="Protocol_stack-4"
       transform="translate(151.19867,816.01408)" />
    <g
       id="Queue_x2C__general-4"
       transform="translate(151.19867,816.01408)" />
    <g
       id="RMS_connector-7"
       transform="translate(151.19867,816.01408)" />
    <g
       transform="translate(151.19867,816.01408)"
       id="paths-6">
      <g
         id="Access_control-4" />
      <g
         id="Azure_active_directory-3" />
      <g
         id="Generic_code-8" />
      <g
         id="Laptop-7" />
      <g
         id="Load_balancer-8" />
      <g
         id="Lock_x2C__protected-4" />
    </g>
    <g
       transform="translate(151.19867,816.01408)"
       id="symbols-8" />
    <g
       transform="translate(151.19867,816.01408)"
       id="slices-2" />
    <g
       transform="matrix(0.06125617,0,0,0.06125617,164.39831,909.15317)"
       id="Layer_1_1_">
      <g
         id="File_x2C__general-6">
        <title
           id="title5">Sheet.1071</title>
      </g>
    </g>
    <g
       transform="matrix(0.06125617,0,0,0.06125617,164.39831,909.15317)"
       id="Access_control-2" />
    <g
       transform="matrix(0.06125617,0,0,0.06125617,164.39831,909.15317)"
       id="Azure_active_directory-8" />
    <g
       transform="matrix(0.06125617,0,0,0.06125617,164.39831,909.15317)"
       id="symbols-6" />
    <g
       transform="translate(138.84625,777.89073)"
       id="Layer_1_1_-0" />
    <g
       transform="translate(138.84625,777.89073)"
       id="Access_control-7" />
    <g
       transform="translate(138.84625,777.89073)"
       id="Azure_active_directory-9" />
    <g
       transform="translate(138.84625,777.89073)"
       id="symbols-7" />
    <g
       id="g8618">
      <rect
         y="922.92615"
         x="21.199177"
         height="105.21704"
         width="71.161552"
         id="rect11496"
         style="fill:#000000;fill-opacity:0.07692309;stroke:#4c4c4c;stroke-width:0.53883952;stroke-miterlimit:4;stroke-dasharray:none;stroke-opacity:1" />
      <text
         x="56.557785"
         y="1038.5825"
         class="st13"
         v:langID="1033"
         id="text5728"
         style="font-style:normal;font-variant:normal;font-weight:normal;font-stretch:normal;font-size:10px;line-height:125%;font-family:Arial;-inkscape-font-specification:'Arial, Normal';text-align:center;writing-mode:lr-tb;text-anchor:middle;fill:#0090c6"
         sodipodi:linespacing="125%">On-premises network<v:paragraph />
<v:tabList />
</text>
      <g
         transform="translate(-81.79422,-240)"
         id="g5751">
        <path
           id="path11491"
           d="m 148.9943,1168.651 -21.03085,0 c -0.69891,0 -1.27074,0.6354 -1.27074,1.3343 l 0,14.6771 c 0,0.6989 0.57183,1.3343 1.27074,1.3343 l 7.17972,0 c 0.76244,2.7321 -0.25415,3.1133 -4.82884,3.1133 l 0,1.4613 5.7819,0 4.25699,0 5.46421,0 0,-1.4613 c -4.57468,0 -5.01944,-0.3812 -4.257,-3.1133 l 7.43387,0 c 0.69891,0 1.46135,-0.6354 1.46135,-1.3343 l 0,-14.6771 c 0,-0.6989 -0.76244,-1.3343 -1.46135,-1.3343 z m -0.38123,1.779 0,13.7241 -20.14132,0 0,-13.7241 20.14132,0 0,0 z"
           inkscape:connector-curvature="0"
           style="fill:#000000;fill-opacity:1" />
        <text
           xml:space="preserve"
           style="font-style:normal;font-variant:normal;font-weight:normal;font-stretch:normal;font-size:10px;line-height:125%;font-family:sans-serif;-inkscape-font-specification:'sans-serif, Normal';text-align:center;letter-spacing:0px;word-spacing:0px;writing-mode:lr-tb;text-anchor:middle;fill:#000000;fill-opacity:1;stroke:none;stroke-width:1px;stroke-linecap:butt;stroke-linejoin:miter;stroke-opacity:1"
           x="138.27876"
           y="1204.505"
           id="text5730"
           sodipodi:linespacing="125%"><tspan
             sodipodi:role="line"
             id="tspan5732"
             x="138.27876"
             y="1204.505">Domain</tspan><tspan
             sodipodi:role="line"
             x="138.27876"
             y="1217.005"
             id="tspan5734">Controller</tspan></text>
      </g>
      <g
         transform="translate(-165.64522,-181.42857)"
         id="g5746">
        <path
           style="fill:#000000;fill-opacity:1"
           inkscape:connector-curvature="0"
           d="m 232.84528,1167.938 -21.03084,0 c -0.69891,0 -1.27074,0.6353 -1.27074,1.3342 l 0,14.6772 c 0,0.6989 0.57183,1.3342 1.27074,1.3342 l 7.17971,0 c 0.76245,2.7321 -0.25415,3.1134 -4.82883,3.1134 l 0,1.4613 5.78189,0 4.257,0 5.46421,0 0,-1.4613 c -4.57469,0 -5.01945,-0.3813 -4.257,-3.1134 l 7.43386,0 c 0.69891,0 1.46136,-0.6353 1.46136,-1.3342 l 0,-14.6772 c 0,-0.6989 -0.76245,-1.3342 -1.46136,-1.3342 z m -0.38122,1.779 0,13.7241 -20.14132,0 0,-13.7241 20.14132,0 0,0 z"
           id="path11493" />
        <text
           xml:space="preserve"
           style="font-style:normal;font-variant:normal;font-weight:normal;font-stretch:normal;font-size:10px;line-height:125%;font-family:sans-serif;-inkscape-font-specification:'sans-serif, Normal';text-align:center;letter-spacing:0px;word-spacing:0px;writing-mode:lr-tb;text-anchor:middle;fill:#000000;fill-opacity:1;stroke:none;stroke-width:1px;stroke-linecap:butt;stroke-linejoin:miter;stroke-opacity:1"
           x="222.24939"
           y="1204.7833"
           id="text5742"
           sodipodi:linespacing="125%"><tspan
             sodipodi:role="line"
             id="tspan5744"
             x="222.24939"
             y="1204.7833">Client</tspan></text>
      </g>
    </g>
    <g
       id="g8568"
       transform="translate(0,0.52457344)">
      <g
         transform="matrix(1.442156,0,0,1.3255271,240.18836,885.07521)"
         v:groupContext="shape"
         v:mID="2"
         id="shape2-2">
        <title
           id="title11510">rect4743</title>
        <rect
           style="fill:#e4faff;stroke:#3a99c6;stroke-width:0.27230299;stroke-linecap:butt"
           id="rect11512"
           class="st1"
           height="79.549896"
           width="47.3186"
           y="28.4501"
           x="0" />
      </g>
      <g
         v:groupContext="group"
         v:mID="4"
         transform="matrix(1.2499987,0,0,1.2499987,247.04869,802.86451)"
         id="group4-6">
        <title
           id="title11520">g5181</title>
        <g
           transform="translate(10.0836,0)"
           v:groupContext="shape"
           v:mID="5"
           id="shape5-7">
          <title
             id="title11523">path3</title>
          <path
             style="fill:#3999c6;stroke:none;stroke-width:0.77554101;stroke-linecap:butt"
             inkscape:connector-curvature="0"
             id="path11525"
             class="st3"
             d="m 4.59,103.94 c 0.14,-0.14 0.11,-0.38 0,-0.53 l -0.71,-0.7 -3.17,-3.09 c -0.15,-0.15 -0.36,-0.15 -0.5,0 -0.15,0.15 -0.18,0.38 0,0.53 l 3.32,3.26 c 0.14,0.15 0.14,0.39 0,0.53 l -3.38,3.38 c -0.15,0.15 -0.15,0.39 0,0.53 0.14,0.15 0.38,0.12 0.5,0 l 3.14,-3.11 c 0,0 0,0 0.03,-0.03 l 0.77,-0.77 0,0 z" />
        </g>
        <g
           v:groupContext="shape"
           v:mID="6"
           id="shape6-9">
          <title
             id="title11528">path5</title>
          <path
             style="fill:#3999c6;stroke:none;stroke-width:0.77554101;stroke-linecap:butt"
             inkscape:connector-curvature="0"
             id="path11530"
             class="st3"
             d="m 0.15,103.94 c -0.15,-0.14 -0.12,-0.38 0,-0.53 l 0.7,-0.7 3.18,-3.09 c 0.14,-0.15 0.35,-0.15 0.5,0 0.14,0.15 0.17,0.38 0,0.53 l -3.27,3.26 c -0.14,0.15 -0.14,0.39 0,0.53 l 3.33,3.38 c 0.14,0.15 0.14,0.39 0,0.53 -0.15,0.15 -0.39,0.12 -0.5,0 l -3.21,-3.08 c 0,0 0,0 -0.03,-0.03 l -0.7,-0.8 0,0 z" />
        </g>
        <g
           transform="translate(3.41018,-3.35139)"
           v:groupContext="shape"
           v:mID="7"
           id="shape7-11">
          <title
             id="title11533">path7</title>
          <path
             style="fill:#7fba00;stroke:none;stroke-width:0.77554101;stroke-linecap:butt"
             inkscape:connector-curvature="0"
             id="path11535"
             class="st4"
             d="M 2,107.03 C 2,107.59 1.53,108 1.03,108 0.53,108 0,107.53 0,107.03 c 0,-0.5 0.41,-0.97 1.03,-0.97 0.59,0 0.97,0.47 0.97,0.97 z" />
        </g>
        <g
           transform="translate(6.3794,-3.35139)"
           v:groupContext="shape"
           v:mID="8"
           id="shape8-13">
          <title
             id="title11538">path9</title>
          <path
             style="fill:#7fba00;stroke:none;stroke-width:0.77554101;stroke-linecap:butt"
             inkscape:connector-curvature="0"
             id="path11540"
             class="st4"
             d="M 2,107.03 C 2,107.59 1.53,108 1.03,108 0.53,108 0,107.53 0,107.03 c 0,-0.5 0.47,-0.97 1.03,-0.97 0.56,0 0.97,0.47 0.97,0.97 z" />
        </g>
        <g
           transform="translate(9.4368,-3.35139)"
           v:groupContext="shape"
           v:mID="9"
           id="shape9-15">
          <title
             id="title11543">circle11</title>
          <circle
             style="fill:#7fba00;stroke:none;stroke-width:0.77554101;stroke-linecap:butt"
             r="0.97013801"
             id="ellipse11545"
             class="st4"
             cy="107.03"
             cx="0.97013801" />
        </g>
      </g>
      <g
         transform="translate(-10.785714,0)"
         id="g5776">
        <path
           style="fill:#0078d7"
           inkscape:connector-curvature="0"
           d="m 298.19003,988.24572 -26.43067,0 c -0.87836,0 -1.59702,0.79851 -1.59702,1.67687 l 0,18.44561 c 0,0.8783 0.71866,1.6768 1.59702,1.6768 l 9.02316,0 c 0.95821,3.4336 -0.3194,3.9127 -6.06867,3.9127 l 0,1.8366 7.26644,0 5.35001,0 6.86718,0 0,-1.8366 c -5.74927,0 -6.30822,-0.4791 -5.35001,-3.9127 l 9.34256,0 c 0.87836,0 1.83658,-0.7985 1.83658,-1.6768 l 0,-18.44561 c 0,-0.87836 -0.95822,-1.67687 -1.83658,-1.67687 z m -0.4791,2.23582 0,17.24786 -25.31276,0 0,-17.24786 25.31276,0 0,0 z"
           id="path8-3" />
        <g
           id="group975-1984_1_"
           transform="matrix(0.79850972,0,0,0.79850972,1133.0399,-1274.9943)">
          <title
             id="title11">Sheet.975</title>
          <g
             id="shape976-1985_2_"
             transform="translate(0.8685,-17.652)">
            <title
               id="title14">Sheet.976</title>
            <path
               style="fill:#0078d7"
               inkscape:connector-curvature="0"
               d="m -1057.4,2861.6 -5.8,-3.3 -5.8,3.3 0,0.1 5.8,3.3 5.8,-3.4 0,0 z"
               id="path16" />
          </g>
          <g
             id="shape977-1987_1_"
             transform="translate(15.8925,0)">
            <title
               id="title19">Sheet.977</title>
            <path
               style="fill:#0078d7"
               inkscape:connector-curvature="0"
               d="m -1077.6,2848.3 0,6.6 5.8,-3.3 0,-6.6 -5.8,3.3 z"
               id="path21" />
          </g>
          <g
             id="shape978-1989_1_">
            <title
               id="title24">Sheet.978</title>
            <path
               style="fill:#0078d7"
               inkscape:connector-curvature="0"
               d="m -1062.9,2848.3 -5.8,-3.3 0,6.6 5.8,3.3 0,-6.6 z"
               id="path26" />
          </g>
        </g>
        <g
           id="g12829"
           transform="matrix(0.79850972,0,0,0.79850972,193.58526,893.58487)">
          <g
             id="g12831">
            <path
               id="path12833"
               d="m 131,71.7 -33.1,0 c -1.1,0 -2,1 -2,2.1 l 0,23.1 c 0,1.1 0.9,2.1 2,2.1 l 11.3,0 c 1.2,4.3 -0.4,4.9 -7.6,4.9 l 0,2.3 9.1,0 6.7,0 8.6,0 0,-2.3 c -7.2,0 -7.9,-0.6 -6.7,-4.9 l 11.7,0 c 1.1,0 2.3,-1 2.3,-2.1 l 0,-23.1 c 0,-1.1 -1.2,-2.1 -2.3,-2.1 z m -0.6,2.8 0,21.6 -31.7,0 0,-21.6 31.7,0 0,0 z"
               inkscape:connector-curvature="0"
               style="fill:#0078d7" />
            <g
               transform="translate(1176.51,-2762.63)"
               id="g12835">
              <title
                 id="title12837">Sheet.975</title>
              <g
                 transform="translate(0.8685,-17.652)"
                 id="g12839">
                <title
                   id="title12841">Sheet.976</title>
                <path
                   id="path12843"
                   d="m -1057.4,2861.6 -5.8,-3.3 -5.8,3.3 0,0.1 5.8,3.3 5.8,-3.4 0,0 z"
                   inkscape:connector-curvature="0"
                   style="fill:#0078d7" />
              </g>
              <g
                 transform="translate(15.8925,0)"
                 id="g12845">
                <title
                   id="title12847">Sheet.977</title>
                <path
                   id="path12849"
                   d="m -1077.6,2848.3 0,6.6 5.8,-3.3 0,-6.6 -5.8,3.3 z"
                   inkscape:connector-curvature="0"
                   style="fill:#0078d7" />
              </g>
              <g
                 id="g12851">
                <title
                   id="title12853">Sheet.978</title>
                <path
                   id="path12855"
                   d="m -1062.9,2848.3 -5.8,-3.3 0,6.6 5.8,3.3 0,-6.6 z"
                   inkscape:connector-curvature="0"
                   style="fill:#0078d7" />
              </g>
            </g>
          </g>
        </g>
      </g>
      <text
         sodipodi:linespacing="125%"
         style="font-style:normal;font-variant:normal;font-weight:normal;font-stretch:normal;font-size:10px;line-height:125%;font-family:Arial;-inkscape-font-specification:'Arial, Normal';text-align:center;writing-mode:lr-tb;text-anchor:middle;fill:#0090c6"
         id="text5812"
         v:langID="1033"
         class="st13"
         y="1039.4541"
         x="274.35025">Azure VNet<v:paragraph />
<v:tabList />
</text>
    </g>
    <g
       id="g6889"
       transform="translate(-26.084511,8.7384926)">
      <g
         transform="translate(-176.94258,-221.89775)"
         id="g5593">
        <path
           inkscape:connector-curvature="0"
           style="fill:#59b4d9"
           d="m 368.57243,1213.7912 c -1.232,0 -2.392,-0.48 -3.261,-1.352 l -20.389,-20.388 c -0.859,-0.859 -1.351,-2.046 -1.351,-3.261 0,-1.214 0.492,-2.402 1.351,-3.26 l 20.389,-20.388 c 0.871,-0.872 2.029,-1.352 3.261,-1.352 1.231,0 2.39,0.48 3.261,1.352 l 20.386,20.388 c 0.873,0.868 1.352,2.027 1.352,3.26 0,1.233 -0.479,2.392 -1.353,3.263 l -20.385,20.386 c -0.87,0.872 -2.03,1.352 -3.261,1.352"
           id="path3" />
        <path
           inkscape:connector-curvature="0"
           style="fill:#ffffff"
           d="m 382.18543,1184.8832 c -2.16,0 -3.91,1.75 -3.91,3.909 0,0.792 0.239,1.527 0.645,2.143 l -7.744,7.744 c -0.206,-0.144 -0.427,-0.264 -0.656,-0.373 l 0,-19.757 c 1.167,-0.676 1.961,-1.924 1.961,-3.37 0,-2.159 -1.75,-3.909 -3.91,-3.909 -2.158,0 -3.908,1.75 -3.908,3.909 0,1.446 0.794,2.694 1.96,3.37 l 0,19.756 c -0.219,0.104 -0.434,0.216 -0.632,0.353 l -7.753,-7.753 c 0.394,-0.61 0.628,-1.333 0.628,-2.113 0,-2.159 -1.75,-3.909 -3.908,-3.909 -2.16,0 -3.91,1.75 -3.91,3.909 0,2.159 1.75,3.909 3.91,3.909 0.448,0 0.872,-0.091 1.274,-0.23 l 8.15,8.15 c -0.234,0.548 -0.364,1.15 -0.364,1.783 0,2.513 2.038,4.551 4.551,4.551 2.514,0 4.551,-2.038 4.551,-4.551 0,-0.621 -0.126,-1.212 -0.351,-1.751 l 8.173,-8.172 c 0.392,0.132 0.804,0.22 1.241,0.22 2.158,0 3.908,-1.75 3.908,-3.909 0,-2.159 -1.749,-3.909 -3.906,-3.909 z"
           id="path5" />
        <rect
           style="opacity:0.5;fill:#ffffff"
           x="569.18805"
           y="-1112.0686"
           transform="matrix(-0.70700677,0.70720678,-0.70720678,-0.70700677,0,0)"
           width="2.5229759"
           height="20.675802"
           id="rect7" />
        <rect
           style="opacity:0.5;fill:#ffffff"
           x="1090.291"
           y="570.23236"
           transform="matrix(0.70710678,0.70710678,-0.70710678,0.70710678,0,0)"
           width="2.5239756"
           height="20.676802"
           id="rect9" />
        <path
           inkscape:connector-curvature="0"
           style="fill:#b8d432"
           d="m 371.23643,1202.4042 c 0,1.496 -1.214,2.709 -2.71,2.709 -1.497,0 -2.709,-1.213 -2.709,-2.709 0,-1.496 1.212,-2.709 2.709,-2.709 1.495,0 2.71,1.213 2.71,2.709"
           id="path11" />
        <path
           inkscape:connector-curvature="0"
           style="fill:#b8d432"
           d="m 370.74543,1175.1792 c 0,1.201 -0.973,2.174 -2.174,2.174 -1.201,0 -2.174,-0.973 -2.174,-2.174 0,-1.201 0.973,-2.174 2.174,-2.174 1.201,0 2.174,0.973 2.174,2.174"
           id="path13" />
        <path
           inkscape:connector-curvature="0"
           style="fill:#b8d432"
           d="m 357.13443,1188.7912 c 0,1.201 -0.975,2.174 -2.174,2.174 -1.201,0 -2.174,-0.973 -2.174,-2.174 0,-1.201 0.973,-2.174 2.174,-2.174 1.199,0 2.174,0.973 2.174,2.174"
           id="path15" />
        <path
           inkscape:connector-curvature="0"
           style="fill:#b8d432"
           d="m 384.35943,1188.7912 c 0,1.201 -0.975,2.174 -2.175,2.174 -1.2,0 -2.174,-0.973 -2.174,-2.174 0,-1.201 0.974,-2.174 2.174,-2.174 1.2,0 2.175,0.973 2.175,2.174"
           id="path17" />
        <path
           inkscape:connector-curvature="0"
           style="opacity:0.1;fill:#ffffff"
           d="m 371.83343,1165.1422 c -0.871,-0.872 -2.029,-1.352 -3.261,-1.352 -1.231,0 -2.389,0.48 -3.26,1.352 l -20.389,20.388 c -0.86,0.858 -1.352,2.046 -1.352,3.26 0,1.215 0.492,2.403 1.352,3.261 l 11.543,11.544 21.715,-32.106 -6.348,-6.347 z"
           id="path19" />
      </g>
      <text
         x="192.77785"
         y="1003.7399"
         class="st13"
         v:langID="1033"
         id="text6837"
         style="font-style:normal;font-variant:normal;font-weight:normal;font-stretch:normal;font-size:10px;line-height:125%;font-family:Arial;-inkscape-font-specification:'Arial, Normal';text-align:center;writing-mode:lr-tb;text-anchor:middle;fill:#0090c6"
         sodipodi:linespacing="125%">Azure AD<v:paragraph />
<v:tabList />
</text>
    </g>
    <path
       style="fill:none;fill-rule:evenodd;stroke:#3c3c3c;stroke-width:1;stroke-linecap:butt;stroke-linejoin:miter;stroke-opacity:1;stroke-miterlimit:4;stroke-dasharray:3, 3;stroke-dashoffset:0;marker-end:url(#marker8685)"
       d="m 92.142857,975.2193 42.857143,0"
       id="path8633"
       inkscape:connector-curvature="0" />
    <path
       inkscape:connector-curvature="0"
       id="path8743"
       d="m 192.5,975.2193 42.85714,0"
       style="fill:none;fill-rule:evenodd;stroke:#3c3c3c;stroke-width:1;stroke-linecap:butt;stroke-linejoin:miter;stroke-miterlimit:4;stroke-dasharray:3, 3;stroke-dashoffset:0;stroke-opacity:1;marker-end:url(#marker8745)" />
  </g>
</svg>
