<?xml version="1.0" encoding="UTF-8" standalone="no"?>
<!-- Created with Inkscape (http://www.inkscape.org/) -->

<svg
   xmlns:dc="http://purl.org/dc/elements/1.1/"
   xmlns:cc="http://creativecommons.org/ns#"
   xmlns:rdf="http://www.w3.org/1999/02/22-rdf-syntax-ns#"
   xmlns:svg="http://www.w3.org/2000/svg"
   xmlns="http://www.w3.org/2000/svg"
   xmlns:sodipodi="http://sodipodi.sourceforge.net/DTD/sodipodi-0.dtd"
   xmlns:inkscape="http://www.inkscape.org/namespaces/inkscape"
   width="320"
   height="144"
   viewBox="0 0 320 144"
   id="svg12810"
   version="1.1"
   inkscape:version="0.91 r13725"
   sodipodi:docname="multi-region.svg">
  <defs
     id="defs12812">
    <marker
       inkscape:stockid="DotM"
       orient="auto"
       refY="0"
       refX="0"
       id="DotM-68"
       style="overflow:visible"
       inkscape:isstock="true">
      <path
         inkscape:connector-curvature="0"
         id="path4935-9"
         d="m -2.5,-1 c 0,2.76 -2.24,5 -5,5 -2.76,0 -5,-2.24 -5,-5 0,-2.76 2.24,-5 5,-5 2.76,0 5,2.24 5,5 z"
         style="fill:#000000;fill-opacity:1;fill-rule:evenodd;stroke:#000000;stroke-width:1pt;stroke-opacity:1"
         transform="matrix(0.4,0,0,0.4,2.96,0.4)" />
    </marker>
    <marker
       inkscape:stockid="Arrow2Mend"
       orient="auto"
       refY="0"
       refX="0"
       id="marker8680"
       style="overflow:visible"
       inkscape:isstock="true">
      <path
         inkscape:connector-curvature="0"
         id="path8682"
         style="fill:#6f6f6f;fill-opacity:1;fill-rule:evenodd;stroke:#6f6f6f;stroke-width:0.625;stroke-linejoin:round;stroke-opacity:1"
         d="M 8.7185878,4.0337352 -2.2072895,0.01601326 8.7185884,-4.0017078 c -1.7454984,2.3720609 -1.7354408,5.6174519 -6e-7,8.035443 z"
         transform="scale(-0.6,-0.6)" />
    </marker>
    <marker
       inkscape:stockid="DotM"
       orient="auto"
       refY="0"
       refX="0"
       id="DotM-68-6"
       style="overflow:visible"
       inkscape:isstock="true">
      <path
         inkscape:connector-curvature="0"
         id="path4935-9-3"
         d="m -2.5,-1 c 0,2.76 -2.24,5 -5,5 -2.76,0 -5,-2.24 -5,-5 0,-2.76 2.24,-5 5,-5 2.76,0 5,2.24 5,5 z"
         style="fill:#000000;fill-opacity:1;fill-rule:evenodd;stroke:#000000;stroke-width:1pt;stroke-opacity:1"
         transform="matrix(0.4,0,0,0.4,2.96,0.4)" />
    </marker>
  </defs>
  <sodipodi:namedview
     id="base"
     pagecolor="#ffffff"
     bordercolor="#666666"
     borderopacity="1.0"
     inkscape:pageopacity="0.0"
     inkscape:pageshadow="2"
     inkscape:zoom="1.979899"
     inkscape:cx="120.56179"
     inkscape:cy="146.15196"
     inkscape:document-units="px"
     inkscape:current-layer="layer1"
     showgrid="false"
     units="px"
     inkscape:window-width="1536"
     inkscape:window-height="897"
     inkscape:window-x="1528"
     inkscape:window-y="-8"
     inkscape:window-maximized="1" />
  <metadata
     id="metadata12815">
    <rdf:RDF>
      <cc:Work
         rdf:about="">
        <dc:format>image/svg+xml</dc:format>
        <dc:type
           rdf:resource="http://purl.org/dc/dcmitype/StillImage" />
        <dc:title></dc:title>
      </cc:Work>
    </rdf:RDF>
  </metadata>
  <g
     inkscape:label="Layer 1"
     inkscape:groupmode="layer"
     id="layer1"
     transform="translate(0,-908.36216)">
    <path
       style="fill:none;fill-rule:evenodd;stroke:#000000;stroke-width:0.56448144px;stroke-linecap:butt;stroke-linejoin:miter;stroke-opacity:1"
       d="m 78.836171,979.50555 38.524989,-38.75"
       id="path4865-4"
       inkscape:connector-curvature="0"
       sodipodi:nodetypes="cc" />
    <g
       id="g5923"
       transform="matrix(0.77466735,0,0,0.77466735,-1.1450433,222.84331)">
      <polygon
         transform="matrix(0.70705576,0,0,0.70705576,67.934034,960.18701)"
         id="polygon3"
         points="14.662,0 0,15.029 0,35.426 14.632,50 35.368,50 50,35.5 50,14.588 35.368,0 "
         style="fill:#804998" />
      <path
         id="path5"
         d="m 92.354326,961.60112 -13.469412,0 -9.536768,9.77646 0,13.2679 9.518384,9.48021 13.488503,0 9.517677,-9.43213 0,-13.60304 -9.518384,-9.4894 z m -0.802508,30.57309 -0.107473,0 -7.975589,-8.09296 1.684207,-1.88218 -5.781595,0 0,5.92654 1.892788,-2.03773 6.270171,6.08633 -7.861753,0 -8.372955,-8.33901 0,-11.66359 2.34884,-2.40824 6.242595,5.62463 -3.555783,3.69154 11.354608,0 0,-11.28107 -3.712043,3.70143 -6.28219,-5.88482 2.012281,-2.06248 11.839648,0 8.373662,8.3482 0,10.42554 -3.975068,-3.74598 2.911656,-2.62035 -8.048416,0 0,7.60085 2.630247,-2.60974 4.502532,4.88929 -6.39037,6.3338 z"
         style="opacity:0.8;fill:#ffffff"
         inkscape:connector-curvature="0" />
      <polygon
         transform="matrix(0.70705576,0,0,0.70705576,67.934034,960.18701)"
         id="polygon7"
         points="35.368,0 14.662,0 0,15.029 0,35.427 7.503,42.899 42.896,7.506 "
         style="opacity:0.2;fill:#ffffff" />
    </g>
    <text
       xml:space="preserve"
       style="font-style:normal;font-variant:normal;font-weight:normal;font-stretch:normal;font-size:7.5px;line-height:125%;font-family:sans-serif;-inkscape-font-specification:'sans-serif, Normal';text-align:start;letter-spacing:0px;word-spacing:0px;writing-mode:lr-tb;text-anchor:start;fill:#0090c6;fill-opacity:1;stroke:none;stroke-width:1px;stroke-linecap:butt;stroke-linejoin:miter;stroke-opacity:1"
       x="36.269531"
       y="1004.3154"
       id="text4280"
       sodipodi:linespacing="125%"><tspan
         sodipodi:role="line"
         id="tspan4282"
         x="36.269531"
         y="1004.3154">Traffic Manager</tspan></text>
    <text
       sodipodi:linespacing="125%"
       id="text16167"
       y="983.10217"
       x="226.17821"
       style="font-style:normal;font-variant:normal;font-weight:normal;font-stretch:normal;font-size:7.5px;line-height:125%;font-family:sans-serif;-inkscape-font-specification:'sans-serif, Normal';text-align:start;letter-spacing:0px;word-spacing:0px;writing-mode:lr-tb;text-anchor:start;fill:#0090c6;fill-opacity:1;stroke:none;stroke-width:1px;stroke-linecap:butt;stroke-linejoin:miter;stroke-opacity:1"
       xml:space="preserve"><tspan
         y="983.10217"
         x="226.17821"
         id="tspan16169"
         sodipodi:role="line">VPN Gateway</tspan></text>
    <path
       sodipodi:nodetypes="cc"
       inkscape:connector-curvature="0"
       id="path16171"
       d="m 78.836171,979.50555 38.524989,38.75005"
       style="fill:none;fill-rule:evenodd;stroke:#000000;stroke-width:0.56448144px;stroke-linecap:butt;stroke-linejoin:miter;stroke-opacity:1" />
  </g>
  <g
     inkscape:groupmode="layer"
     id="layer8"
     inkscape:label="Layer 2">
    <g
       transform="matrix(0.03999917,0,0,0.03999917,-69.998974,77.301807)"
       id="Layer_1_1_">
      <g
         id="File_x2C__general">
        <title
           id="title5">Sheet.1071</title>
      </g>
    </g>
    <g
       transform="matrix(0.03999917,0,0,0.03999917,-69.998974,77.301807)"
       id="Access_control" />
    <g
       transform="matrix(0.03999917,0,0,0.03999917,-69.998974,77.301807)"
       id="Azure_active_directory" />
    <g
       id="g15299">
      <rect
         y="911.19055"
         x="135.00717"
         height="59.783676"
         width="158.96292"
         id="rect4743"
         style="fill:#e4faff;fill-opacity:1;stroke:#3a99c6;stroke-width:0.15054353;stroke-miterlimit:4;stroke-dasharray:none;stroke-opacity:1"
         transform="translate(0,-908.36216)" />
      <rect
         y="913.42493"
         x="137.94986"
         height="53.61264"
         width="27.280029"
         id="rect5174"
         style="fill:#eaeaea;fill-opacity:1;stroke:#4c4c4c;stroke-width:0.16132021;stroke-miterlimit:4;stroke-dasharray:none;stroke-dashoffset:0;stroke-opacity:1"
         transform="translate(0,-908.36216)" />
      <rect
         style="fill:#eaeaea;fill-opacity:1;stroke:#4c4c4c;stroke-width:0.17021061;stroke-miterlimit:4;stroke-dasharray:none;stroke-dashoffset:0;stroke-opacity:1"
         id="rect9363"
         width="30.374605"
         height="53.603989"
         x="184.98584"
         y="914.22864"
         transform="translate(0,-908.36216)" />
      <rect
         style="fill:#eaeaea;fill-opacity:1;stroke:#4c4c4c;stroke-width:0.16543306;stroke-miterlimit:4;stroke-dasharray:none;stroke-dashoffset:0;stroke-opacity:1"
         id="rect9367"
         width="28.69091"
         height="53.608639"
         x="235.80415"
         y="913.9671"
         transform="translate(0,-908.36216)" />
      <g
         id="g6636"
         transform="matrix(1.1299246,0,0,1.1299246,-129.25637,-196.70018)"
         style="">
        <path
           style="fill:#7a7a7a;fill-opacity:1;fill-rule:nonzero;stroke:none"
           d="m 253.10782,205.88315 -0.33866,0 -3.32314,0 -0.16933,0 c 0.46563,1.62983 -0.14817,1.86266 -2.87866,1.86266 l 0,0.84667 3.45013,0 2.51883,0 3.25964,0 0,-0.84667 c -2.70931,0 -2.96331,-0.23283 -2.51881,-1.86266 z"
           id="path6638"
           inkscape:connector-curvature="0" />
        <path
           style="fill:#a0a1a2;fill-opacity:1;fill-rule:nonzero;stroke:none"
           d="m 257.21413,195.57506 -12.48825,0 c -0.42334,0 -0.762,0.381 -0.762,0.80433 l 0,8.72062 c 0,0.40214 0.33866,0.78314 0.762,0.78314 l 12.48825,0 c 0.4233,0 0.8678,-0.381 0.8678,-0.78314 l 0,-8.72062 c 0,-0.42333 -0.4445,-0.80433 -0.8678,-0.80433 z"
           id="path6640"
           inkscape:connector-curvature="0" />
        <path
           style="fill:#ffffff;fill-opacity:1;fill-rule:nonzero;stroke:none"
           d="m 257.2353,195.57506 c 0,0 0,0 -0.0212,0 l -12.48826,0 c -0.42333,0 -0.76199,0.381 -0.76199,0.80433 l 0,8.72062 c 0,0.40214 0.33866,0.78314 0.762,0.78314 l 0.29633,0 12.21309,-10.30809 z"
           id="path6642"
           inkscape:connector-curvature="0" />
        <path
           style="fill:#59b4d9;fill-opacity:1;fill-rule:nonzero;stroke:none"
           d="m 245.04337,196.65456 11.93793,0 0,8.14911 -11.93793,0 z"
           id="path6644"
           inkscape:connector-curvature="0" />
        <path
           style="fill:#59b4d9;fill-opacity:1;fill-rule:nonzero;stroke:none"
           d="m 255.9653,196.65456 0,0 -10.92193,0 0,8.14911 0,0 0,-8.14911 z"
           id="path6646"
           inkscape:connector-curvature="0" />
        <path
           style="fill:#a0a1a2;fill-opacity:1;fill-rule:nonzero;stroke:none"
           d="m 246.39803,207.74581 9.2286,0 0,0.84667 -9.2286,0 z"
           id="path6648"
           inkscape:connector-curvature="0" />
        <path
           style="fill:#b8d432;fill-opacity:1;fill-rule:nonzero;stroke:none"
           d="m 251.16049,196.16772 c 0,0.10584 -0.0847,0.1905 -0.1905,0.1905 -0.10583,0 -0.21167,-0.0847 -0.21167,-0.1905 0,-0.10583 0.10584,-0.21166 0.21167,-0.21166 0.10583,0 0.1905,0.10583 0.1905,0.21166 z"
           id="path6650"
           inkscape:connector-curvature="0" />
        <path
           style="fill:#ffffff;fill-opacity:1;fill-rule:nonzero;stroke:none"
           d="m 251.18166,200.4857 c -0.0212,0 -0.0423,0 -0.0423,-0.0212 l -2.49763,-1.41817 c -0.0212,-0.0212 -0.0212,-0.0423 -0.0212,-0.0635 0,-0.0423 0,-0.0635 0.0212,-0.0635 l 2.47647,-1.43932 c 0.0212,0 0.0635,0 0.0847,0 l 2.47648,1.43932 c 0.0212,0.0212 0.0423,0.0423 0.0423,0.0635 0,0.0212 -0.0212,0.0423 -0.0423,0.0635 l -2.47648,1.41817 c 0,0.0212 -0.0212,0.0212 -0.0212,0.0212 z"
           id="path6652"
           inkscape:connector-curvature="0" />
        <path
           style="fill:#ffffff;fill-opacity:1;fill-rule:nonzero;stroke:none"
           d="m 250.82182,203.97817 c -0.0212,0 -0.0423,-0.0212 -0.0423,-0.0212 l -2.47647,-1.41817 c -0.0212,-0.0212 -0.0423,-0.0423 -0.0423,-0.0635 l 0,-2.87864 c 0,-0.0212 0.0212,-0.0423 0.0423,-0.0635 0.0212,-0.0212 0.0423,-0.0212 0.0635,0 l 2.49764,1.41817 c 0.0212,0.0212 0.0212,0.0423 0.0212,0.0847 l 0,2.85747 c 0,0.0212 0,0.0423 -0.0212,0.0635 -0.0212,0 -0.0423,0.0212 -0.0423,0.0212 z"
           id="path6654"
           inkscape:connector-curvature="0" />
        <path
           style="fill:#ffffff;fill-opacity:1;fill-rule:nonzero;stroke:none"
           d="m 251.52032,203.97817 c -0.0212,0 -0.0212,-0.0212 -0.0423,-0.0212 -0.0212,-0.0212 -0.0423,-0.0423 -0.0423,-0.0635 l 0,-2.85747 c 0,-0.0212 0.0212,-0.0423 0.0423,-0.0635 l 2.47647,-1.41817 c 0.0212,-0.0212 0.0423,-0.0212 0.0847,0 0.0212,0 0.0212,0.0423 0.0212,0.0635 l 0,2.85747 c 0,0.0212 0,0.0423 -0.0212,0.0635 l -2.47647,1.41817 c -0.0212,0 -0.0423,0.0212 -0.0423,0.0212 z"
           id="path6656"
           inkscape:connector-curvature="0" />
      </g>
      <g
         transform="matrix(1.1299246,0,0,1.1299246,-129.25637,-179.59807)"
         id="g6658"
         style="">
        <path
           inkscape:connector-curvature="0"
           id="path6660"
           d="m 253.10782,205.88315 -0.33866,0 -3.32314,0 -0.16933,0 c 0.46563,1.62983 -0.14817,1.86266 -2.87866,1.86266 l 0,0.84667 3.45013,0 2.51883,0 3.25964,0 0,-0.84667 c -2.70931,0 -2.96331,-0.23283 -2.51881,-1.86266 z"
           style="fill:#7a7a7a;fill-opacity:1;fill-rule:nonzero;stroke:none" />
        <path
           inkscape:connector-curvature="0"
           id="path6662"
           d="m 257.21413,195.57506 -12.48825,0 c -0.42334,0 -0.762,0.381 -0.762,0.80433 l 0,8.72062 c 0,0.40214 0.33866,0.78314 0.762,0.78314 l 12.48825,0 c 0.4233,0 0.8678,-0.381 0.8678,-0.78314 l 0,-8.72062 c 0,-0.42333 -0.4445,-0.80433 -0.8678,-0.80433 z"
           style="fill:#a0a1a2;fill-opacity:1;fill-rule:nonzero;stroke:none" />
        <path
           inkscape:connector-curvature="0"
           id="path6664"
           d="m 257.2353,195.57506 c 0,0 0,0 -0.0212,0 l -12.48826,0 c -0.42333,0 -0.76199,0.381 -0.76199,0.80433 l 0,8.72062 c 0,0.40214 0.33866,0.78314 0.762,0.78314 l 0.29633,0 12.21309,-10.30809 z"
           style="fill:#ffffff;fill-opacity:1;fill-rule:nonzero;stroke:none" />
        <path
           inkscape:connector-curvature="0"
           id="path6666"
           d="m 245.04337,196.65456 11.93793,0 0,8.14911 -11.93793,0 z"
           style="fill:#59b4d9;fill-opacity:1;fill-rule:nonzero;stroke:none" />
        <path
           inkscape:connector-curvature="0"
           id="path6668"
           d="m 255.9653,196.65456 0,0 -10.92193,0 0,8.14911 0,0 0,-8.14911 z"
           style="fill:#59b4d9;fill-opacity:1;fill-rule:nonzero;stroke:none" />
        <path
           inkscape:connector-curvature="0"
           id="path6670"
           d="m 246.39803,207.74581 9.2286,0 0,0.84667 -9.2286,0 z"
           style="fill:#a0a1a2;fill-opacity:1;fill-rule:nonzero;stroke:none" />
        <path
           inkscape:connector-curvature="0"
           id="path6672"
           d="m 251.16049,196.16772 c 0,0.10584 -0.0847,0.1905 -0.1905,0.1905 -0.10583,0 -0.21167,-0.0847 -0.21167,-0.1905 0,-0.10583 0.10584,-0.21166 0.21167,-0.21166 0.10583,0 0.1905,0.10583 0.1905,0.21166 z"
           style="fill:#b8d432;fill-opacity:1;fill-rule:nonzero;stroke:none" />
        <path
           inkscape:connector-curvature="0"
           id="path6674"
           d="m 251.18166,200.4857 c -0.0212,0 -0.0423,0 -0.0423,-0.0212 l -2.49763,-1.41817 c -0.0212,-0.0212 -0.0212,-0.0423 -0.0212,-0.0635 0,-0.0423 0,-0.0635 0.0212,-0.0635 l 2.47647,-1.43932 c 0.0212,0 0.0635,0 0.0847,0 l 2.47648,1.43932 c 0.0212,0.0212 0.0423,0.0423 0.0423,0.0635 0,0.0212 -0.0212,0.0423 -0.0423,0.0635 l -2.47648,1.41817 c 0,0.0212 -0.0212,0.0212 -0.0212,0.0212 z"
           style="fill:#ffffff;fill-opacity:1;fill-rule:nonzero;stroke:none" />
        <path
           inkscape:connector-curvature="0"
           id="path6676"
           d="m 250.82182,203.97817 c -0.0212,0 -0.0423,-0.0212 -0.0423,-0.0212 l -2.47647,-1.41817 c -0.0212,-0.0212 -0.0423,-0.0423 -0.0423,-0.0635 l 0,-2.87864 c 0,-0.0212 0.0212,-0.0423 0.0423,-0.0635 0.0212,-0.0212 0.0423,-0.0212 0.0635,0 l 2.49764,1.41817 c 0.0212,0.0212 0.0212,0.0423 0.0212,0.0847 l 0,2.85747 c 0,0.0212 0,0.0423 -0.0212,0.0635 -0.0212,0 -0.0423,0.0212 -0.0423,0.0212 z"
           style="fill:#ffffff;fill-opacity:1;fill-rule:nonzero;stroke:none" />
        <path
           inkscape:connector-curvature="0"
           id="path6678"
           d="m 251.52032,203.97817 c -0.0212,0 -0.0212,-0.0212 -0.0423,-0.0212 -0.0212,-0.0212 -0.0423,-0.0423 -0.0423,-0.0635 l 0,-2.85747 c 0,-0.0212 0.0212,-0.0423 0.0423,-0.0635 l 2.47647,-1.41817 c 0.0212,-0.0212 0.0423,-0.0212 0.0847,0 0.0212,0 0.0212,0.0423 0.0212,0.0635 l 0,2.85747 c 0,0.0212 0,0.0423 -0.0212,0.0635 l -2.47647,1.41817 c -0.0212,0 -0.0423,0.0212 -0.0423,0.0212 z"
           style="fill:#ffffff;fill-opacity:1;fill-rule:nonzero;stroke:none" />
      </g>
      <g
         transform="matrix(1.1299246,0,0,1.1299246,-129.25637,-213.51718)"
         id="g6680"
         style="">
        <path
           inkscape:connector-curvature="0"
           id="path6682"
           d="m 253.10782,205.88315 -0.33866,0 -3.32314,0 -0.16933,0 c 0.46563,1.62983 -0.14817,1.86266 -2.87866,1.86266 l 0,0.84667 3.45013,0 2.51883,0 3.25964,0 0,-0.84667 c -2.70931,0 -2.96331,-0.23283 -2.51881,-1.86266 z"
           style="fill:#7a7a7a;fill-opacity:1;fill-rule:nonzero;stroke:none" />
        <path
           inkscape:connector-curvature="0"
           id="path6684"
           d="m 257.21413,195.57506 -12.48825,0 c -0.42334,0 -0.762,0.381 -0.762,0.80433 l 0,8.72062 c 0,0.40214 0.33866,0.78314 0.762,0.78314 l 12.48825,0 c 0.4233,0 0.8678,-0.381 0.8678,-0.78314 l 0,-8.72062 c 0,-0.42333 -0.4445,-0.80433 -0.8678,-0.80433 z"
           style="fill:#a0a1a2;fill-opacity:1;fill-rule:nonzero;stroke:none" />
        <path
           inkscape:connector-curvature="0"
           id="path6686"
           d="m 257.2353,195.57506 c 0,0 0,0 -0.0212,0 l -12.48826,0 c -0.42333,0 -0.76199,0.381 -0.76199,0.80433 l 0,8.72062 c 0,0.40214 0.33866,0.78314 0.762,0.78314 l 0.29633,0 12.21309,-10.30809 z"
           style="fill:#ffffff;fill-opacity:1;fill-rule:nonzero;stroke:none" />
        <path
           inkscape:connector-curvature="0"
           id="path6688"
           d="m 245.04337,196.65456 11.93793,0 0,8.14911 -11.93793,0 z"
           style="fill:#59b4d9;fill-opacity:1;fill-rule:nonzero;stroke:none" />
        <path
           inkscape:connector-curvature="0"
           id="path6690"
           d="m 255.9653,196.65456 0,0 -10.92193,0 0,8.14911 0,0 0,-8.14911 z"
           style="fill:#59b4d9;fill-opacity:1;fill-rule:nonzero;stroke:none" />
        <path
           inkscape:connector-curvature="0"
           id="path6692"
           d="m 246.39803,207.74581 9.2286,0 0,0.84667 -9.2286,0 z"
           style="fill:#a0a1a2;fill-opacity:1;fill-rule:nonzero;stroke:none" />
        <path
           inkscape:connector-curvature="0"
           id="path6694"
           d="m 251.16049,196.16772 c 0,0.10584 -0.0847,0.1905 -0.1905,0.1905 -0.10583,0 -0.21167,-0.0847 -0.21167,-0.1905 0,-0.10583 0.10584,-0.21166 0.21167,-0.21166 0.10583,0 0.1905,0.10583 0.1905,0.21166 z"
           style="fill:#b8d432;fill-opacity:1;fill-rule:nonzero;stroke:none" />
        <path
           inkscape:connector-curvature="0"
           id="path6696"
           d="m 251.18166,200.4857 c -0.0212,0 -0.0423,0 -0.0423,-0.0212 l -2.49763,-1.41817 c -0.0212,-0.0212 -0.0212,-0.0423 -0.0212,-0.0635 0,-0.0423 0,-0.0635 0.0212,-0.0635 l 2.47647,-1.43932 c 0.0212,0 0.0635,0 0.0847,0 l 2.47648,1.43932 c 0.0212,0.0212 0.0423,0.0423 0.0423,0.0635 0,0.0212 -0.0212,0.0423 -0.0423,0.0635 l -2.47648,1.41817 c 0,0.0212 -0.0212,0.0212 -0.0212,0.0212 z"
           style="fill:#ffffff;fill-opacity:1;fill-rule:nonzero;stroke:none" />
        <path
           inkscape:connector-curvature="0"
           id="path6698"
           d="m 250.82182,203.97817 c -0.0212,0 -0.0423,-0.0212 -0.0423,-0.0212 l -2.47647,-1.41817 c -0.0212,-0.0212 -0.0423,-0.0423 -0.0423,-0.0635 l 0,-2.87864 c 0,-0.0212 0.0212,-0.0423 0.0423,-0.0635 0.0212,-0.0212 0.0423,-0.0212 0.0635,0 l 2.49764,1.41817 c 0.0212,0.0212 0.0212,0.0423 0.0212,0.0847 l 0,2.85747 c 0,0.0212 0,0.0423 -0.0212,0.0635 -0.0212,0 -0.0423,0.0212 -0.0423,0.0212 z"
           style="fill:#ffffff;fill-opacity:1;fill-rule:nonzero;stroke:none" />
        <path
           inkscape:connector-curvature="0"
           id="path6700"
           d="m 251.52032,203.97817 c -0.0212,0 -0.0212,-0.0212 -0.0423,-0.0212 -0.0212,-0.0212 -0.0423,-0.0423 -0.0423,-0.0635 l 0,-2.85747 c 0,-0.0212 0.0212,-0.0423 0.0423,-0.0635 l 2.47647,-1.41817 c 0.0212,-0.0212 0.0423,-0.0212 0.0847,0 0.0212,0 0.0212,0.0423 0.0212,0.0635 l 0,2.85747 c 0,0.0212 0,0.0423 -0.0212,0.0635 l -2.47647,1.41817 c -0.0212,0 -0.0423,0.0212 -0.0423,0.0212 z"
           style="fill:#ffffff;fill-opacity:1;fill-rule:nonzero;stroke:none" />
      </g>
      <g
         id="g6702"
         transform="matrix(0.3464647,0,0,0.3464647,9.1787347,-38.06453)"
         style="">
        <path
           id="path6704"
           d="m 337.89703,224.55889 c -1.232,0 -2.392,-0.48 -3.261,-1.352 l -20.389,-20.388 c -0.859,-0.859 -1.351,-2.046 -1.351,-3.261 0,-1.214 0.492,-2.402 1.351,-3.26 l 20.389,-20.388 c 0.871,-0.872 2.029,-1.352 3.261,-1.352 1.231,0 2.39,0.48 3.261,1.352 l 20.386,20.388 c 0.873,0.868 1.352,2.027 1.352,3.26 0,1.233 -0.479,2.392 -1.353,3.263 l -20.385,20.386 c -0.87,0.872 -2.03,1.352 -3.261,1.352"
           style="fill:#7fba00"
           inkscape:connector-curvature="0" />
        <path
           id="path6706"
           d="m 358.50903,199.21889 -6.613,-6.612 0,4.668 -7.016,-0.006 c -0.677,-2.418 -2.573,-4.328 -4.984,-5.02 l 0,-6.69 4.613,0 -6.613,-6.613 -6.612,6.613 4.612,0 0,6.689 c -2.407,0.692 -4.301,2.596 -4.981,5.008 l -7.019,-0.006 0,-4.618 -6.613,6.613 6.613,6.612 0,-4.668 7.022,0.006 c 0.683,2.407 2.574,4.305 4.978,4.996 l 0,4.636 c -1,0.728 -2.528,2.258 -2.528,4.04 0,2.481 2.033,4.5 4.514,4.5 2.481,0 4.51,-2.019 4.51,-4.5 0,-1.762 -1.496,-3.274 -2.496,-4.013 l 0,-4.663 c 2.399,-0.689 4.289,-2.583 4.975,-4.983 l 7.025,0.006 0,4.618 6.613,-6.613 z"
           style="fill:#ffffff"
           inkscape:connector-curvature="0" />
        <path
           id="path6708"
           d="m 337.89603,193.96089 c -2.899,0 -5.258,2.359 -5.258,5.258 0,2.899 2.359,5.258 5.258,5.258 2.899,0 5.258,-2.358 5.258,-5.258 0,-2.9 -2.359,-5.258 -5.258,-5.258 z"
           style="fill:#59b4d9"
           inkscape:connector-curvature="0" />
        <path
           id="path6710"
           d="m 341.15803,175.90989 c -0.871,-0.872 -2.029,-1.352 -3.261,-1.352 -1.231,0 -2.389,0.48 -3.26,1.352 l -20.389,20.388 c -0.86,0.858 -1.352,2.046 -1.352,3.26 0,1.215 0.492,2.403 1.352,3.261 l 11.543,11.544 21.715,-32.106 -6.348,-6.347 z"
           style="opacity:0.15;fill:#ffffff"
           inkscape:connector-curvature="0" />
      </g>
      <g
         transform="matrix(1.1299246,0,0,1.1299246,-79.009819,-196.70018)"
         id="g6782"
         style="">
        <path
           inkscape:connector-curvature="0"
           id="path6784"
           d="m 253.10782,205.88315 -0.33866,0 -3.32314,0 -0.16933,0 c 0.46563,1.62983 -0.14817,1.86266 -2.87866,1.86266 l 0,0.84667 3.45013,0 2.51883,0 3.25964,0 0,-0.84667 c -2.70931,0 -2.96331,-0.23283 -2.51881,-1.86266 z"
           style="fill:#7a7a7a;fill-opacity:1;fill-rule:nonzero;stroke:none" />
        <path
           inkscape:connector-curvature="0"
           id="path6786"
           d="m 257.21413,195.57506 -12.48825,0 c -0.42334,0 -0.762,0.381 -0.762,0.80433 l 0,8.72062 c 0,0.40214 0.33866,0.78314 0.762,0.78314 l 12.48825,0 c 0.4233,0 0.8678,-0.381 0.8678,-0.78314 l 0,-8.72062 c 0,-0.42333 -0.4445,-0.80433 -0.8678,-0.80433 z"
           style="fill:#a0a1a2;fill-opacity:1;fill-rule:nonzero;stroke:none" />
        <path
           inkscape:connector-curvature="0"
           id="path6788"
           d="m 257.2353,195.57506 c 0,0 0,0 -0.0212,0 l -12.48826,0 c -0.42333,0 -0.76199,0.381 -0.76199,0.80433 l 0,8.72062 c 0,0.40214 0.33866,0.78314 0.762,0.78314 l 0.29633,0 12.21309,-10.30809 z"
           style="fill:#ffffff;fill-opacity:1;fill-rule:nonzero;stroke:none" />
        <path
           inkscape:connector-curvature="0"
           id="path6790"
           d="m 245.04337,196.65456 11.93793,0 0,8.14911 -11.93793,0 z"
           style="fill:#59b4d9;fill-opacity:1;fill-rule:nonzero;stroke:none" />
        <path
           inkscape:connector-curvature="0"
           id="path6792"
           d="m 255.9653,196.65456 0,0 -10.92193,0 0,8.14911 0,0 0,-8.14911 z"
           style="fill:#59b4d9;fill-opacity:1;fill-rule:nonzero;stroke:none" />
        <path
           inkscape:connector-curvature="0"
           id="path6794"
           d="m 246.39803,207.74581 9.2286,0 0,0.84667 -9.2286,0 z"
           style="fill:#a0a1a2;fill-opacity:1;fill-rule:nonzero;stroke:none" />
        <path
           inkscape:connector-curvature="0"
           id="path6796"
           d="m 251.16049,196.16772 c 0,0.10584 -0.0847,0.1905 -0.1905,0.1905 -0.10583,0 -0.21167,-0.0847 -0.21167,-0.1905 0,-0.10583 0.10584,-0.21166 0.21167,-0.21166 0.10583,0 0.1905,0.10583 0.1905,0.21166 z"
           style="fill:#b8d432;fill-opacity:1;fill-rule:nonzero;stroke:none" />
        <path
           inkscape:connector-curvature="0"
           id="path6798"
           d="m 251.18166,200.4857 c -0.0212,0 -0.0423,0 -0.0423,-0.0212 l -2.49763,-1.41817 c -0.0212,-0.0212 -0.0212,-0.0423 -0.0212,-0.0635 0,-0.0423 0,-0.0635 0.0212,-0.0635 l 2.47647,-1.43932 c 0.0212,0 0.0635,0 0.0847,0 l 2.47648,1.43932 c 0.0212,0.0212 0.0423,0.0423 0.0423,0.0635 0,0.0212 -0.0212,0.0423 -0.0423,0.0635 l -2.47648,1.41817 c 0,0.0212 -0.0212,0.0212 -0.0212,0.0212 z"
           style="fill:#ffffff;fill-opacity:1;fill-rule:nonzero;stroke:none" />
        <path
           inkscape:connector-curvature="0"
           id="path6800"
           d="m 250.82182,203.97817 c -0.0212,0 -0.0423,-0.0212 -0.0423,-0.0212 l -2.47647,-1.41817 c -0.0212,-0.0212 -0.0423,-0.0423 -0.0423,-0.0635 l 0,-2.87864 c 0,-0.0212 0.0212,-0.0423 0.0423,-0.0635 0.0212,-0.0212 0.0423,-0.0212 0.0635,0 l 2.49764,1.41817 c 0.0212,0.0212 0.0212,0.0423 0.0212,0.0847 l 0,2.85747 c 0,0.0212 0,0.0423 -0.0212,0.0635 -0.0212,0 -0.0423,0.0212 -0.0423,0.0212 z"
           style="fill:#ffffff;fill-opacity:1;fill-rule:nonzero;stroke:none" />
        <path
           inkscape:connector-curvature="0"
           id="path6802"
           d="m 251.52032,203.97817 c -0.0212,0 -0.0212,-0.0212 -0.0423,-0.0212 -0.0212,-0.0212 -0.0423,-0.0423 -0.0423,-0.0635 l 0,-2.85747 c 0,-0.0212 0.0212,-0.0423 0.0423,-0.0635 l 2.47647,-1.41817 c 0.0212,-0.0212 0.0423,-0.0212 0.0847,0 0.0212,0 0.0212,0.0423 0.0212,0.0635 l 0,2.85747 c 0,0.0212 0,0.0423 -0.0212,0.0635 l -2.47647,1.41817 c -0.0212,0 -0.0423,0.0212 -0.0423,0.0212 z"
           style="fill:#ffffff;fill-opacity:1;fill-rule:nonzero;stroke:none" />
      </g>
      <g
         id="g6804"
         transform="matrix(1.1299246,0,0,1.1299246,-79.009819,-179.59807)"
         style="">
        <path
           style="fill:#7a7a7a;fill-opacity:1;fill-rule:nonzero;stroke:none"
           d="m 253.10782,205.88315 -0.33866,0 -3.32314,0 -0.16933,0 c 0.46563,1.62983 -0.14817,1.86266 -2.87866,1.86266 l 0,0.84667 3.45013,0 2.51883,0 3.25964,0 0,-0.84667 c -2.70931,0 -2.96331,-0.23283 -2.51881,-1.86266 z"
           id="path6806"
           inkscape:connector-curvature="0" />
        <path
           style="fill:#a0a1a2;fill-opacity:1;fill-rule:nonzero;stroke:none"
           d="m 257.21413,195.57506 -12.48825,0 c -0.42334,0 -0.762,0.381 -0.762,0.80433 l 0,8.72062 c 0,0.40214 0.33866,0.78314 0.762,0.78314 l 12.48825,0 c 0.4233,0 0.8678,-0.381 0.8678,-0.78314 l 0,-8.72062 c 0,-0.42333 -0.4445,-0.80433 -0.8678,-0.80433 z"
           id="path6808"
           inkscape:connector-curvature="0" />
        <path
           style="fill:#ffffff;fill-opacity:1;fill-rule:nonzero;stroke:none"
           d="m 257.2353,195.57506 c 0,0 0,0 -0.0212,0 l -12.48826,0 c -0.42333,0 -0.76199,0.381 -0.76199,0.80433 l 0,8.72062 c 0,0.40214 0.33866,0.78314 0.762,0.78314 l 0.29633,0 12.21309,-10.30809 z"
           id="path6810"
           inkscape:connector-curvature="0" />
        <path
           style="fill:#59b4d9;fill-opacity:1;fill-rule:nonzero;stroke:none"
           d="m 245.04337,196.65456 11.93793,0 0,8.14911 -11.93793,0 z"
           id="path6812"
           inkscape:connector-curvature="0" />
        <path
           style="fill:#59b4d9;fill-opacity:1;fill-rule:nonzero;stroke:none"
           d="m 255.9653,196.65456 0,0 -10.92193,0 0,8.14911 0,0 0,-8.14911 z"
           id="path6814"
           inkscape:connector-curvature="0" />
        <path
           style="fill:#a0a1a2;fill-opacity:1;fill-rule:nonzero;stroke:none"
           d="m 246.39803,207.74581 9.2286,0 0,0.84667 -9.2286,0 z"
           id="path6816"
           inkscape:connector-curvature="0" />
        <path
           style="fill:#b8d432;fill-opacity:1;fill-rule:nonzero;stroke:none"
           d="m 251.16049,196.16772 c 0,0.10584 -0.0847,0.1905 -0.1905,0.1905 -0.10583,0 -0.21167,-0.0847 -0.21167,-0.1905 0,-0.10583 0.10584,-0.21166 0.21167,-0.21166 0.10583,0 0.1905,0.10583 0.1905,0.21166 z"
           id="path6818"
           inkscape:connector-curvature="0" />
        <path
           style="fill:#ffffff;fill-opacity:1;fill-rule:nonzero;stroke:none"
           d="m 251.18166,200.4857 c -0.0212,0 -0.0423,0 -0.0423,-0.0212 l -2.49763,-1.41817 c -0.0212,-0.0212 -0.0212,-0.0423 -0.0212,-0.0635 0,-0.0423 0,-0.0635 0.0212,-0.0635 l 2.47647,-1.43932 c 0.0212,0 0.0635,0 0.0847,0 l 2.47648,1.43932 c 0.0212,0.0212 0.0423,0.0423 0.0423,0.0635 0,0.0212 -0.0212,0.0423 -0.0423,0.0635 l -2.47648,1.41817 c 0,0.0212 -0.0212,0.0212 -0.0212,0.0212 z"
           id="path6820"
           inkscape:connector-curvature="0" />
        <path
           style="fill:#ffffff;fill-opacity:1;fill-rule:nonzero;stroke:none"
           d="m 250.82182,203.97817 c -0.0212,0 -0.0423,-0.0212 -0.0423,-0.0212 l -2.47647,-1.41817 c -0.0212,-0.0212 -0.0423,-0.0423 -0.0423,-0.0635 l 0,-2.87864 c 0,-0.0212 0.0212,-0.0423 0.0423,-0.0635 0.0212,-0.0212 0.0423,-0.0212 0.0635,0 l 2.49764,1.41817 c 0.0212,0.0212 0.0212,0.0423 0.0212,0.0847 l 0,2.85747 c 0,0.0212 0,0.0423 -0.0212,0.0635 -0.0212,0 -0.0423,0.0212 -0.0423,0.0212 z"
           id="path6822"
           inkscape:connector-curvature="0" />
        <path
           style="fill:#ffffff;fill-opacity:1;fill-rule:nonzero;stroke:none"
           d="m 251.52032,203.97817 c -0.0212,0 -0.0212,-0.0212 -0.0423,-0.0212 -0.0212,-0.0212 -0.0423,-0.0423 -0.0423,-0.0635 l 0,-2.85747 c 0,-0.0212 0.0212,-0.0423 0.0423,-0.0635 l 2.47647,-1.41817 c 0.0212,-0.0212 0.0423,-0.0212 0.0847,0 0.0212,0 0.0212,0.0423 0.0212,0.0635 l 0,2.85747 c 0,0.0212 0,0.0423 -0.0212,0.0635 l -2.47647,1.41817 c -0.0212,0 -0.0423,0.0212 -0.0423,0.0212 z"
           id="path6824"
           inkscape:connector-curvature="0" />
      </g>
      <g
         id="g6826"
         transform="matrix(1.1299246,0,0,1.1299246,-79.009819,-213.51718)"
         style="">
        <path
           style="fill:#7a7a7a;fill-opacity:1;fill-rule:nonzero;stroke:none"
           d="m 253.10782,205.88315 -0.33866,0 -3.32314,0 -0.16933,0 c 0.46563,1.62983 -0.14817,1.86266 -2.87866,1.86266 l 0,0.84667 3.45013,0 2.51883,0 3.25964,0 0,-0.84667 c -2.70931,0 -2.96331,-0.23283 -2.51881,-1.86266 z"
           id="path6828"
           inkscape:connector-curvature="0" />
        <path
           style="fill:#a0a1a2;fill-opacity:1;fill-rule:nonzero;stroke:none"
           d="m 257.21413,195.57506 -12.48825,0 c -0.42334,0 -0.762,0.381 -0.762,0.80433 l 0,8.72062 c 0,0.40214 0.33866,0.78314 0.762,0.78314 l 12.48825,0 c 0.4233,0 0.8678,-0.381 0.8678,-0.78314 l 0,-8.72062 c 0,-0.42333 -0.4445,-0.80433 -0.8678,-0.80433 z"
           id="path6830"
           inkscape:connector-curvature="0" />
        <path
           style="fill:#ffffff;fill-opacity:1;fill-rule:nonzero;stroke:none"
           d="m 257.2353,195.57506 c 0,0 0,0 -0.0212,0 l -12.48826,0 c -0.42333,0 -0.76199,0.381 -0.76199,0.80433 l 0,8.72062 c 0,0.40214 0.33866,0.78314 0.762,0.78314 l 0.29633,0 12.21309,-10.30809 z"
           id="path6832"
           inkscape:connector-curvature="0" />
        <path
           style="fill:#59b4d9;fill-opacity:1;fill-rule:nonzero;stroke:none"
           d="m 245.04337,196.65456 11.93793,0 0,8.14911 -11.93793,0 z"
           id="path6834"
           inkscape:connector-curvature="0" />
        <path
           style="fill:#59b4d9;fill-opacity:1;fill-rule:nonzero;stroke:none"
           d="m 255.9653,196.65456 0,0 -10.92193,0 0,8.14911 0,0 0,-8.14911 z"
           id="path6836"
           inkscape:connector-curvature="0" />
        <path
           style="fill:#a0a1a2;fill-opacity:1;fill-rule:nonzero;stroke:none"
           d="m 246.39803,207.74581 9.2286,0 0,0.84667 -9.2286,0 z"
           id="path6838"
           inkscape:connector-curvature="0" />
        <path
           style="fill:#b8d432;fill-opacity:1;fill-rule:nonzero;stroke:none"
           d="m 251.16049,196.16772 c 0,0.10584 -0.0847,0.1905 -0.1905,0.1905 -0.10583,0 -0.21167,-0.0847 -0.21167,-0.1905 0,-0.10583 0.10584,-0.21166 0.21167,-0.21166 0.10583,0 0.1905,0.10583 0.1905,0.21166 z"
           id="path6840"
           inkscape:connector-curvature="0" />
        <path
           style="fill:#ffffff;fill-opacity:1;fill-rule:nonzero;stroke:none"
           d="m 251.18166,200.4857 c -0.0212,0 -0.0423,0 -0.0423,-0.0212 l -2.49763,-1.41817 c -0.0212,-0.0212 -0.0212,-0.0423 -0.0212,-0.0635 0,-0.0423 0,-0.0635 0.0212,-0.0635 l 2.47647,-1.43932 c 0.0212,0 0.0635,0 0.0847,0 l 2.47648,1.43932 c 0.0212,0.0212 0.0423,0.0423 0.0423,0.0635 0,0.0212 -0.0212,0.0423 -0.0423,0.0635 l -2.47648,1.41817 c 0,0.0212 -0.0212,0.0212 -0.0212,0.0212 z"
           id="path6842"
           inkscape:connector-curvature="0" />
        <path
           style="fill:#ffffff;fill-opacity:1;fill-rule:nonzero;stroke:none"
           d="m 250.82182,203.97817 c -0.0212,0 -0.0423,-0.0212 -0.0423,-0.0212 l -2.47647,-1.41817 c -0.0212,-0.0212 -0.0423,-0.0423 -0.0423,-0.0635 l 0,-2.87864 c 0,-0.0212 0.0212,-0.0423 0.0423,-0.0635 0.0212,-0.0212 0.0423,-0.0212 0.0635,0 l 2.49764,1.41817 c 0.0212,0.0212 0.0212,0.0423 0.0212,0.0847 l 0,2.85747 c 0,0.0212 0,0.0423 -0.0212,0.0635 -0.0212,0 -0.0423,0.0212 -0.0423,0.0212 z"
           id="path6844"
           inkscape:connector-curvature="0" />
        <path
           style="fill:#ffffff;fill-opacity:1;fill-rule:nonzero;stroke:none"
           d="m 251.52032,203.97817 c -0.0212,0 -0.0212,-0.0212 -0.0423,-0.0212 -0.0212,-0.0212 -0.0423,-0.0423 -0.0423,-0.0635 l 0,-2.85747 c 0,-0.0212 0.0212,-0.0423 0.0423,-0.0635 l 2.47647,-1.41817 c 0.0212,-0.0212 0.0423,-0.0212 0.0847,0 0.0212,0 0.0212,0.0423 0.0212,0.0635 l 0,2.85747 c 0,0.0212 0,0.0423 -0.0212,0.0635 l -2.47647,1.41817 c -0.0212,0 -0.0423,0.0212 -0.0423,0.0212 z"
           id="path6846"
           inkscape:connector-curvature="0" />
      </g>
      <g
         transform="matrix(0.3464647,0,0,0.3464647,58.964164,-38.06453)"
         id="g6848"
         style="">
        <path
           inkscape:connector-curvature="0"
           style="fill:#7fba00"
           d="m 337.89703,224.55889 c -1.232,0 -2.392,-0.48 -3.261,-1.352 l -20.389,-20.388 c -0.859,-0.859 -1.351,-2.046 -1.351,-3.261 0,-1.214 0.492,-2.402 1.351,-3.26 l 20.389,-20.388 c 0.871,-0.872 2.029,-1.352 3.261,-1.352 1.231,0 2.39,0.48 3.261,1.352 l 20.386,20.388 c 0.873,0.868 1.352,2.027 1.352,3.26 0,1.233 -0.479,2.392 -1.353,3.263 l -20.385,20.386 c -0.87,0.872 -2.03,1.352 -3.261,1.352"
           id="path6850" />
        <path
           inkscape:connector-curvature="0"
           style="fill:#ffffff"
           d="m 358.50903,199.21889 -6.613,-6.612 0,4.668 -7.016,-0.006 c -0.677,-2.418 -2.573,-4.328 -4.984,-5.02 l 0,-6.69 4.613,0 -6.613,-6.613 -6.612,6.613 4.612,0 0,6.689 c -2.407,0.692 -4.301,2.596 -4.981,5.008 l -7.019,-0.006 0,-4.618 -6.613,6.613 6.613,6.612 0,-4.668 7.022,0.006 c 0.683,2.407 2.574,4.305 4.978,4.996 l 0,4.636 c -1,0.728 -2.528,2.258 -2.528,4.04 0,2.481 2.033,4.5 4.514,4.5 2.481,0 4.51,-2.019 4.51,-4.5 0,-1.762 -1.496,-3.274 -2.496,-4.013 l 0,-4.663 c 2.399,-0.689 4.289,-2.583 4.975,-4.983 l 7.025,0.006 0,4.618 6.613,-6.613 z"
           id="path6852" />
        <path
           inkscape:connector-curvature="0"
           style="fill:#59b4d9"
           d="m 337.89603,193.96089 c -2.899,0 -5.258,2.359 -5.258,5.258 0,2.899 2.359,5.258 5.258,5.258 2.899,0 5.258,-2.358 5.258,-5.258 0,-2.9 -2.359,-5.258 -5.258,-5.258 z"
           id="path6854" />
        <path
           inkscape:connector-curvature="0"
           style="opacity:0.15;fill:#ffffff"
           d="m 341.15803,175.90989 c -0.871,-0.872 -2.029,-1.352 -3.261,-1.352 -1.231,0 -2.389,0.48 -3.26,1.352 l -20.389,20.388 c -0.86,0.858 -1.352,2.046 -1.352,3.26 0,1.215 0.492,2.403 1.352,3.261 l 11.543,11.544 21.715,-32.106 -6.348,-6.347 z"
           id="path6856" />
      </g>
      <g
         id="g7129"
         transform="matrix(0.3464647,0,0,0.3464647,109.821,-38.06453)"
         style="">
        <path
           id="path7131"
           d="m 337.89703,224.55889 c -1.232,0 -2.392,-0.48 -3.261,-1.352 l -20.389,-20.388 c -0.859,-0.859 -1.351,-2.046 -1.351,-3.261 0,-1.214 0.492,-2.402 1.351,-3.26 l 20.389,-20.388 c 0.871,-0.872 2.029,-1.352 3.261,-1.352 1.231,0 2.39,0.48 3.261,1.352 l 20.386,20.388 c 0.873,0.868 1.352,2.027 1.352,3.26 0,1.233 -0.479,2.392 -1.353,3.263 l -20.385,20.386 c -0.87,0.872 -2.03,1.352 -3.261,1.352"
           style="fill:#7fba00"
           inkscape:connector-curvature="0" />
        <path
           id="path7133"
           d="m 358.50903,199.21889 -6.613,-6.612 0,4.668 -7.016,-0.006 c -0.677,-2.418 -2.573,-4.328 -4.984,-5.02 l 0,-6.69 4.613,0 -6.613,-6.613 -6.612,6.613 4.612,0 0,6.689 c -2.407,0.692 -4.301,2.596 -4.981,5.008 l -7.019,-0.006 0,-4.618 -6.613,6.613 6.613,6.612 0,-4.668 7.022,0.006 c 0.683,2.407 2.574,4.305 4.978,4.996 l 0,4.636 c -1,0.728 -2.528,2.258 -2.528,4.04 0,2.481 2.033,4.5 4.514,4.5 2.481,0 4.51,-2.019 4.51,-4.5 0,-1.762 -1.496,-3.274 -2.496,-4.013 l 0,-4.663 c 2.399,-0.689 4.289,-2.583 4.975,-4.983 l 7.025,0.006 0,4.618 6.613,-6.613 z"
           style="fill:#ffffff"
           inkscape:connector-curvature="0" />
        <path
           id="path7135"
           d="m 337.89603,193.96089 c -2.899,0 -5.258,2.359 -5.258,5.258 0,2.899 2.359,5.258 5.258,5.258 2.899,0 5.258,-2.358 5.258,-5.258 0,-2.9 -2.359,-5.258 -5.258,-5.258 z"
           style="fill:#59b4d9"
           inkscape:connector-curvature="0" />
        <path
           id="path7137"
           d="m 341.15803,175.90989 c -0.871,-0.872 -2.029,-1.352 -3.261,-1.352 -1.231,0 -2.389,0.48 -3.26,1.352 l -20.389,20.388 c -0.86,0.858 -1.352,2.046 -1.352,3.26 0,1.215 0.492,2.403 1.352,3.261 l 11.543,11.544 21.715,-32.106 -6.348,-6.347 z"
           style="opacity:0.15;fill:#ffffff"
           inkscape:connector-curvature="0" />
      </g>
      <g
         transform="matrix(0.56448141,0,0,0.56448141,-41.75038,-611.8937)"
         id="g7367"
         style="">
        <path
           inkscape:connector-curvature="0"
           id="path7109"
           d="m 529.65404,1117.856 -0.6779,0 -6.65194,0 -0.33895,0 c 0.93206,3.2625 -0.29659,3.7285 -5.76222,3.7285 l 0,1.6948 6.90614,0 5.04195,0 6.52483,0 0,-1.6948 c -5.42323,0 -5.93167,-0.466 -5.04191,-3.7285 z"
           style="fill:#7a7a7a;fill-opacity:1;fill-rule:nonzero;stroke:none" />
        <path
           inkscape:connector-curvature="0"
           id="path7111"
           d="m 537.87366,1097.2223 -24.99778,0 c -0.8474,0 -1.5253,0.7626 -1.5253,1.61 l 0,17.4561 c 0,0.805 0.6779,1.5676 1.5253,1.5676 l 24.99778,0 c 0.84732,0 1.73708,-0.7626 1.73708,-1.5676 l 0,-17.4561 c 0,-0.8474 -0.88976,-1.61 -1.73708,-1.61 z"
           style="fill:#a0a1a2;fill-opacity:1;fill-rule:nonzero;stroke:none" />
        <path
           inkscape:connector-curvature="0"
           id="path7113"
           d="m 537.91603,1097.2223 c 0,0 0,0 -0.0424,0 l -24.9978,0 c -0.84738,0 -1.52528,0.7626 -1.52528,1.61 l 0,17.4561 c 0,0.805 0.6779,1.5676 1.5253,1.5676 l 0.59316,0 24.44699,-20.6337 z"
           style="fill:#ffffff;fill-opacity:1;fill-rule:nonzero;stroke:none" />
        <path
           inkscape:connector-curvature="0"
           id="path7115"
           d="m 513.5114,1099.3831 23.8962,0 0,16.3121 -23.8962,0 z"
           style="fill:#59b4d9;fill-opacity:1;fill-rule:nonzero;stroke:none" />
        <path
           inkscape:connector-curvature="0"
           id="path7117"
           d="m 535.37387,1099.3831 0,0 -21.86247,0 0,16.3121 0,0 0,-16.3121 z"
           style="fill:#59b4d9;fill-opacity:1;fill-rule:nonzero;stroke:none" />
        <path
           inkscape:connector-curvature="0"
           id="path7119"
           d="m 516.22303,1121.5845 18.47292,0 0,1.6948 -18.47292,0 z"
           style="fill:#a0a1a2;fill-opacity:1;fill-rule:nonzero;stroke:none" />
        <path
           inkscape:connector-curvature="0"
           id="path7121"
           d="m 525.75606,1098.4086 c 0,0.2119 -0.16954,0.3813 -0.38132,0.3813 -0.21184,0 -0.4237,-0.1695 -0.4237,-0.3813 0,-0.2118 0.21186,-0.4237 0.4237,-0.4237 0.21184,0 0.38132,0.2119 0.38132,0.4237 z"
           style="fill:#b8d432;fill-opacity:1;fill-rule:nonzero;stroke:none" />
        <g
           id="g7362"
           transform="matrix(0.30426716,0,0,0.30426716,377.41147,732.79074)">
          <g
             id="g7359">
            <path
               style="fill:#ffffff;fill-opacity:1"
               inkscape:connector-curvature="0"
               d="m 486.29943,1231.4979 c -0.1,-0.2 -0.3,-0.3 -0.4,-0.5 -0.2,-0.1 -0.4,-0.2 -0.6,-0.2 -0.3,0 -0.5,0.1 -0.7,0.2 -0.2,0.1 -0.3,0.3 -0.5,0.4 -0.1,0.2 -0.2,0.4 -0.3,0.6 -0.1,0.2 -0.1,0.5 -0.1,0.8 0,0.4 0,0.7 0.1,0.9 0.1,0.3 0.2,0.5 0.3,0.6 0.1,0.2 0.3,0.3 0.5,0.3 0.2,0.1 0.4,0.1 0.6,0.1 0.2,0 0.4,0 0.5,-0.1 0.2,-0.1 0.3,-0.2 0.5,-0.4 0.1,-0.2 0.2,-0.4 0.3,-0.6 0.1,-0.2 0.1,-0.5 0.1,-0.9 0,-0.3 0,-0.5 -0.1,-0.8 0,0 -0.1,-0.2 -0.2,-0.4 z"
               id="path57" />
          </g>
          <path
             id="path59"
             d="m 484.99943,1212.3979 c -8,0 -14.4,2.7 -14.4,5.7 l 0,27 c 0,3 6.5,5.8 14.4,5.8 8,0 14.4,-2.7 14.4,-5.7 l 0,-27 c 0.1,-3 -6.4,-5.8 -14.4,-5.8 z m -4.3,22.6 c 0,0.2 -0.1,0.4 -0.2,0.6 -0.1,0.2 -0.2,0.4 -0.4,0.5 -0.2,0.2 -0.4,0.3 -0.6,0.4 -0.2,0.1 -0.5,0.2 -0.9,0.3 -0.3,0.1 -0.7,0.1 -1.2,0.1 -0.2,0 -0.5,0 -0.7,0 -0.2,0 -0.4,0 -0.6,-0.1 -0.2,0 -0.4,-0.1 -0.5,-0.1 -0.2,0 -0.3,-0.1 -0.4,-0.2 l 0,-2.1 c 0.1,0.1 0.3,0.2 0.5,0.3 0.2,0.1 0.3,0.2 0.5,0.3 0.2,0.1 0.4,0.1 0.6,0.2 0.2,0.1 0.4,0.1 0.6,0.1 0.2,0 0.3,0 0.4,-0.1 0.1,0 0.2,-0.1 0.2,-0.1 0.1,0 0.1,-0.1 0.1,-0.2 0,-0.1 0,-0.1 0,-0.2 0,-0.1 0,-0.2 -0.1,-0.3 -0.1,-0.1 -0.1,-0.2 -0.2,-0.2 -0.1,-0.1 -0.2,-0.1 -0.4,-0.2 -0.2,-0.1 -0.3,-0.1 -0.5,-0.2 -0.3,-0.1 -0.6,-0.3 -0.9,-0.5 -0.2,-0.2 -0.4,-0.3 -0.6,-0.5 -0.2,-0.2 -0.3,-0.4 -0.3,-0.6 -0.1,-0.2 -0.1,-0.5 -0.1,-0.7 0,-0.4 0.1,-0.7 0.2,-1 0.2,-0.3 0.4,-0.6 0.6,-0.8 0.3,-0.2 0.6,-0.4 1,-0.5 0.4,-0.1 0.8,-0.2 1.3,-0.2 0.3,0 0.5,0 0.7,0 0.2,0 0.4,0 0.6,0.1 0.2,0 0.3,0.1 0.5,0.1 0.2,0 0.3,0.1 0.4,0.1 l 0,2 c -0.1,-0.1 -0.2,-0.1 -0.4,-0.2 -0.1,-0.1 -0.3,-0.1 -0.5,-0.2 -0.2,-0.1 -0.3,-0.1 -0.5,-0.1 -0.2,0 -0.4,0 -0.6,0 -0.3,0 -0.5,0 -0.6,0.1 -0.2,0.1 -0.2,0.2 -0.2,0.4 0,0.1 0,0.2 0.1,0.2 0,0.1 0.1,0.1 0.2,0.2 0.1,0.1 0.2,0.1 0.3,0.2 0.1,0.1 0.3,0.1 0.5,0.2 0.3,0.1 0.6,0.3 0.9,0.4 0.3,0.2 0.5,0.3 0.7,0.5 0.2,0.2 0.3,0.4 0.5,0.6 0.1,0.2 0.2,0.5 0.2,0.9 -0.1,0.1 -0.2,0.3 -0.2,0.5 z m 5.9,3.8 -1.7,-1.8 c -0.5,0 -1,-0.2 -1.4,-0.3 -0.4,-0.2 -0.8,-0.5 -1.1,-0.8 -0.3,-0.3 -0.6,-0.7 -0.8,-1.2 -0.2,-0.5 -0.3,-1 -0.3,-1.6 0,-0.6 0.1,-1.2 0.3,-1.7 0.2,-0.5 0.5,-0.9 0.8,-1.3 0.3,-0.4 0.8,-0.6 1.2,-0.8 0.5,-0.2 1,-0.3 1.6,-0.3 0.6,0 1.1,0.1 1.5,0.3 0.5,0.2 0.9,0.5 1.2,0.8 0.3,0.3 0.6,0.8 0.8,1.2 0.2,0.5 0.3,1 0.3,1.7 0,0.4 0,0.9 -0.2,1.2 -0.1,0.4 -0.3,0.7 -0.5,1 -0.2,0.3 -0.4,0.6 -0.7,0.8 -0.3,0.2 -0.5,0.4 -0.9,0.6 l 2.6,2.2 -2.7,0 z m 8.6,-2 -5,0 0,-7.7 2.3,0 0,5.9 2.7,0 0,1.8 z m -10.2,-16 c -5.7,0 -10.3,-1.4 -10.3,-3.1 0,-1.7 4.6,-3.1 10.3,-3.1 5.7,0 10.3,1.4 10.3,3.1 0,1.7 -4.6,3.1 -10.3,3.1 z"
             inkscape:connector-curvature="0"
             style="fill:#ffffff;fill-opacity:1" />
        </g>
      </g>
      <path
         sodipodi:nodetypes="ccc"
         inkscape:connector-curvature="0"
         id="path7446"
         d="m 161.35834,939.43757 5.71347,0 0,0"
         style="fill:none;fill-rule:evenodd;stroke:#000000;stroke-width:0.264;stroke-linecap:butt;stroke-linejoin:miter;stroke-miterlimit:4;stroke-dasharray:none;stroke-opacity:1"
         transform="translate(0,-908.36216)" />
      <path
         style="fill:none;fill-rule:evenodd;stroke:#000000;stroke-width:0.264;stroke-linecap:butt;stroke-linejoin:miter;stroke-miterlimit:4;stroke-dasharray:none;stroke-opacity:1"
         d="m 212.93881,939.43757 4.8206,0 0,0"
         id="path7448"
         inkscape:connector-curvature="0"
         sodipodi:nodetypes="ccc"
         transform="translate(0,-908.36216)" />
      <path
         sodipodi:nodetypes="ccc"
         inkscape:connector-curvature="0"
         id="path7792"
         d="m 254.87368,932.70264 0,9.67538 0,6.02231"
         style="fill:none;fill-rule:evenodd;stroke:#6f6f6f;stroke-width:0.33868885;stroke-linecap:butt;stroke-linejoin:miter;stroke-miterlimit:4;stroke-dasharray:0.33868886, 0.33868885999999998;stroke-dashoffset:0;stroke-opacity:1"
         transform="translate(0,-908.36216)" />
      <g
         id="g15135"
         transform="matrix(0.56448141,0,0,0.56448141,-41.75038,-577.97459)"
         style="">
        <path
           style="fill:#7a7a7a;fill-opacity:1;fill-rule:nonzero;stroke:none"
           d="m 529.65404,1117.856 -0.6779,0 -6.65194,0 -0.33895,0 c 0.93206,3.2625 -0.29659,3.7285 -5.76222,3.7285 l 0,1.6948 6.90614,0 5.04195,0 6.52483,0 0,-1.6948 c -5.42323,0 -5.93167,-0.466 -5.04191,-3.7285 z"
           id="path15137"
           inkscape:connector-curvature="0" />
        <path
           style="fill:#a0a1a2;fill-opacity:1;fill-rule:nonzero;stroke:none"
           d="m 537.87366,1097.2223 -24.99778,0 c -0.8474,0 -1.5253,0.7626 -1.5253,1.61 l 0,17.4561 c 0,0.805 0.6779,1.5676 1.5253,1.5676 l 24.99778,0 c 0.84732,0 1.73708,-0.7626 1.73708,-1.5676 l 0,-17.4561 c 0,-0.8474 -0.88976,-1.61 -1.73708,-1.61 z"
           id="path15139"
           inkscape:connector-curvature="0" />
        <path
           style="fill:#ffffff;fill-opacity:1;fill-rule:nonzero;stroke:none"
           d="m 537.91603,1097.2223 c 0,0 0,0 -0.0424,0 l -24.9978,0 c -0.84738,0 -1.52528,0.7626 -1.52528,1.61 l 0,17.4561 c 0,0.805 0.6779,1.5676 1.5253,1.5676 l 0.59316,0 24.44699,-20.6337 z"
           id="path15141"
           inkscape:connector-curvature="0" />
        <path
           style="fill:#59b4d9;fill-opacity:1;fill-rule:nonzero;stroke:none"
           d="m 513.5114,1099.3831 23.8962,0 0,16.3121 -23.8962,0 z"
           id="path15143"
           inkscape:connector-curvature="0" />
        <path
           style="fill:#59b4d9;fill-opacity:1;fill-rule:nonzero;stroke:none"
           d="m 535.37387,1099.3831 0,0 -21.86247,0 0,16.3121 0,0 0,-16.3121 z"
           id="path15145"
           inkscape:connector-curvature="0" />
        <path
           style="fill:#a0a1a2;fill-opacity:1;fill-rule:nonzero;stroke:none"
           d="m 516.22303,1121.5845 18.47292,0 0,1.6948 -18.47292,0 z"
           id="path15147"
           inkscape:connector-curvature="0" />
        <path
           style="fill:#b8d432;fill-opacity:1;fill-rule:nonzero;stroke:none"
           d="m 525.75606,1098.4086 c 0,0.2119 -0.16954,0.3813 -0.38132,0.3813 -0.21184,0 -0.4237,-0.1695 -0.4237,-0.3813 0,-0.2118 0.21186,-0.4237 0.4237,-0.4237 0.21184,0 0.38132,0.2119 0.38132,0.4237 z"
           id="path15149"
           inkscape:connector-curvature="0" />
        <g
           transform="matrix(0.30426716,0,0,0.30426716,377.41147,732.79074)"
           id="g15151">
          <g
             id="g15153">
            <path
               id="path15155"
               d="m 486.29943,1231.4979 c -0.1,-0.2 -0.3,-0.3 -0.4,-0.5 -0.2,-0.1 -0.4,-0.2 -0.6,-0.2 -0.3,0 -0.5,0.1 -0.7,0.2 -0.2,0.1 -0.3,0.3 -0.5,0.4 -0.1,0.2 -0.2,0.4 -0.3,0.6 -0.1,0.2 -0.1,0.5 -0.1,0.8 0,0.4 0,0.7 0.1,0.9 0.1,0.3 0.2,0.5 0.3,0.6 0.1,0.2 0.3,0.3 0.5,0.3 0.2,0.1 0.4,0.1 0.6,0.1 0.2,0 0.4,0 0.5,-0.1 0.2,-0.1 0.3,-0.2 0.5,-0.4 0.1,-0.2 0.2,-0.4 0.3,-0.6 0.1,-0.2 0.1,-0.5 0.1,-0.9 0,-0.3 0,-0.5 -0.1,-0.8 0,0 -0.1,-0.2 -0.2,-0.4 z"
               inkscape:connector-curvature="0"
               style="fill:#ffffff;fill-opacity:1" />
          </g>
          <path
             style="fill:#ffffff;fill-opacity:1"
             inkscape:connector-curvature="0"
             d="m 484.99943,1212.3979 c -8,0 -14.4,2.7 -14.4,5.7 l 0,27 c 0,3 6.5,5.8 14.4,5.8 8,0 14.4,-2.7 14.4,-5.7 l 0,-27 c 0.1,-3 -6.4,-5.8 -14.4,-5.8 z m -4.3,22.6 c 0,0.2 -0.1,0.4 -0.2,0.6 -0.1,0.2 -0.2,0.4 -0.4,0.5 -0.2,0.2 -0.4,0.3 -0.6,0.4 -0.2,0.1 -0.5,0.2 -0.9,0.3 -0.3,0.1 -0.7,0.1 -1.2,0.1 -0.2,0 -0.5,0 -0.7,0 -0.2,0 -0.4,0 -0.6,-0.1 -0.2,0 -0.4,-0.1 -0.5,-0.1 -0.2,0 -0.3,-0.1 -0.4,-0.2 l 0,-2.1 c 0.1,0.1 0.3,0.2 0.5,0.3 0.2,0.1 0.3,0.2 0.5,0.3 0.2,0.1 0.4,0.1 0.6,0.2 0.2,0.1 0.4,0.1 0.6,0.1 0.2,0 0.3,0 0.4,-0.1 0.1,0 0.2,-0.1 0.2,-0.1 0.1,0 0.1,-0.1 0.1,-0.2 0,-0.1 0,-0.1 0,-0.2 0,-0.1 0,-0.2 -0.1,-0.3 -0.1,-0.1 -0.1,-0.2 -0.2,-0.2 -0.1,-0.1 -0.2,-0.1 -0.4,-0.2 -0.2,-0.1 -0.3,-0.1 -0.5,-0.2 -0.3,-0.1 -0.6,-0.3 -0.9,-0.5 -0.2,-0.2 -0.4,-0.3 -0.6,-0.5 -0.2,-0.2 -0.3,-0.4 -0.3,-0.6 -0.1,-0.2 -0.1,-0.5 -0.1,-0.7 0,-0.4 0.1,-0.7 0.2,-1 0.2,-0.3 0.4,-0.6 0.6,-0.8 0.3,-0.2 0.6,-0.4 1,-0.5 0.4,-0.1 0.8,-0.2 1.3,-0.2 0.3,0 0.5,0 0.7,0 0.2,0 0.4,0 0.6,0.1 0.2,0 0.3,0.1 0.5,0.1 0.2,0 0.3,0.1 0.4,0.1 l 0,2 c -0.1,-0.1 -0.2,-0.1 -0.4,-0.2 -0.1,-0.1 -0.3,-0.1 -0.5,-0.2 -0.2,-0.1 -0.3,-0.1 -0.5,-0.1 -0.2,0 -0.4,0 -0.6,0 -0.3,0 -0.5,0 -0.6,0.1 -0.2,0.1 -0.2,0.2 -0.2,0.4 0,0.1 0,0.2 0.1,0.2 0,0.1 0.1,0.1 0.2,0.2 0.1,0.1 0.2,0.1 0.3,0.2 0.1,0.1 0.3,0.1 0.5,0.2 0.3,0.1 0.6,0.3 0.9,0.4 0.3,0.2 0.5,0.3 0.7,0.5 0.2,0.2 0.3,0.4 0.5,0.6 0.1,0.2 0.2,0.5 0.2,0.9 -0.1,0.1 -0.2,0.3 -0.2,0.5 z m 5.9,3.8 -1.7,-1.8 c -0.5,0 -1,-0.2 -1.4,-0.3 -0.4,-0.2 -0.8,-0.5 -1.1,-0.8 -0.3,-0.3 -0.6,-0.7 -0.8,-1.2 -0.2,-0.5 -0.3,-1 -0.3,-1.6 0,-0.6 0.1,-1.2 0.3,-1.7 0.2,-0.5 0.5,-0.9 0.8,-1.3 0.3,-0.4 0.8,-0.6 1.2,-0.8 0.5,-0.2 1,-0.3 1.6,-0.3 0.6,0 1.1,0.1 1.5,0.3 0.5,0.2 0.9,0.5 1.2,0.8 0.3,0.3 0.6,0.8 0.8,1.2 0.2,0.5 0.3,1 0.3,1.7 0,0.4 0,0.9 -0.2,1.2 -0.1,0.4 -0.3,0.7 -0.5,1 -0.2,0.3 -0.4,0.6 -0.7,0.8 -0.3,0.2 -0.5,0.4 -0.9,0.6 l 2.6,2.2 -2.7,0 z m 8.6,-2 -5,0 0,-7.7 2.3,0 0,5.9 2.7,0 0,1.8 z m -10.2,-16 c -5.7,0 -10.3,-1.4 -10.3,-3.1 0,-1.7 4.6,-3.1 10.3,-3.1 5.7,0 10.3,1.4 10.3,3.1 0,1.7 -4.6,3.1 -10.3,3.1 z"
             id="path15157" />
        </g>
      </g>
      <g
         transform="translate(0,-910.36216)"
         id="g15161"
         style="">
        <path
           style="fill:none;fill-rule:evenodd;stroke:#000000;stroke-width:0.264;stroke-linecap:butt;stroke-linejoin:miter;stroke-miterlimit:4;stroke-dasharray:none;stroke-opacity:1"
           d="m 135.16726,941.49858 10.26381,0 0,0"
           id="path6726"
           inkscape:connector-curvature="0" />
        <path
           style="fill:none;fill-rule:evenodd;stroke:#000000;stroke-width:0.264;stroke-linecap:butt;stroke-linejoin:miter;stroke-miterlimit:4;stroke-dasharray:none;stroke-opacity:1"
           d="m 135.077,941.37696 11.08312,-17.85211 0,0"
           id="path6728"
           inkscape:connector-curvature="0"
           sodipodi:nodetypes="ccc" />
        <path
           sodipodi:nodetypes="ccc"
           inkscape:connector-curvature="0"
           id="path15159"
           d="m 135.11524,941.49818 11.08312,17.85211 0,0"
           style="fill:none;fill-rule:evenodd;stroke:#000000;stroke-width:0.264;stroke-linecap:butt;stroke-linejoin:miter;stroke-miterlimit:4;stroke-dasharray:none;stroke-opacity:1" />
      </g>
      <path
         style="fill:none;fill-rule:evenodd;stroke:#000000;stroke-width:0.264;stroke-linecap:butt;stroke-linejoin:miter;stroke-miterlimit:4;stroke-dasharray:none;stroke-opacity:1"
         d="m 185.23073,939.49858 10.26381,0 0,0"
         id="path15168"
         inkscape:connector-curvature="0"
         transform="translate(0,-908.36216)" />
      <path
         style="fill:none;fill-rule:evenodd;stroke:#000000;stroke-width:0.264;stroke-linecap:butt;stroke-linejoin:miter;stroke-miterlimit:4;stroke-dasharray:none;stroke-opacity:1"
         d="m 185.14047,939.37696 11.08312,-17.85211 0,0"
         id="path15170"
         inkscape:connector-curvature="0"
         sodipodi:nodetypes="ccc"
         transform="translate(0,-908.36216)" />
      <path
         sodipodi:nodetypes="ccc"
         inkscape:connector-curvature="0"
         id="path15172"
         d="m 185.17871,939.49818 11.08312,17.85211 0,0"
         style="fill:none;fill-rule:evenodd;stroke:#000000;stroke-width:0.264;stroke-linecap:butt;stroke-linejoin:miter;stroke-miterlimit:4;stroke-dasharray:none;stroke-opacity:1"
         transform="translate(0,-908.36216)" />
      <path
         sodipodi:nodetypes="ccc"
         inkscape:connector-curvature="0"
         id="path15177"
         d="m 235.6481,939.37696 11.08312,-17.85211 0,0"
         style="fill:none;fill-rule:evenodd;stroke:#000000;stroke-width:0.264;stroke-linecap:butt;stroke-linejoin:miter;stroke-miterlimit:4;stroke-dasharray:none;stroke-opacity:1"
         transform="translate(0,-908.36216)" />
      <g
         id="Gateway"
         transform="matrix(0.03999917,0,0,0.03999917,262.62613,39.909516)">
        <path
           id="path10"
           d="m 396.1,117.1 c -104.7,0 -188.8,85 -188.8,188.8 0,103.8 84.1,188.8 188.8,188.8 C 500.8,494.7 585,409.8 585,305.9 585,202 500.9,117.1 396.1,117.1 Z m -17.1,85.8 0,-60.1 34.3,0 0,60.1 17.2,0 -34.3,69.5 -34.3,-69.5 17.1,0 z m -77.3,137.3 -69.5,-34.3 69.5,-34.3 0,17.2 60.1,0 0,34.3 -60.1,0 0,17.1 z m 111.6,60.1 0,60.1 -34.3,0 0,-60.1 -17.2,0 34.3,-69.5 34.3,69.5 -17.1,0 z m 77.3,-60.1 0,-17.2 -60.1,0 0,-34.3 60.1,0 0,-17.2 69.5,34.3 -69.5,34.4 z"
           inkscape:connector-curvature="0"
           style="fill:#2a3282" />
      </g>
    </g>
    <g
       transform="matrix(0.03999917,0,0,0.03999917,-69.998974,77.301807)"
       id="symbols" />
    <rect
       y="82.125359"
       x="135.00717"
       height="59.783676"
       width="158.96292"
       id="rect15425"
       style="fill:#e4faff;fill-opacity:1;stroke:#3a99c6;stroke-width:0.15054353;stroke-miterlimit:4;stroke-dasharray:none;stroke-opacity:1" />
    <rect
       y="84.359734"
       x="137.94986"
       height="53.61264"
       width="27.280029"
       id="rect15427"
       style="fill:#eaeaea;fill-opacity:1;stroke:#4c4c4c;stroke-width:0.16132021;stroke-miterlimit:4;stroke-dasharray:none;stroke-dashoffset:0;stroke-opacity:1" />
    <rect
       style="fill:#eaeaea;fill-opacity:1;stroke:#4c4c4c;stroke-width:0.17021061;stroke-miterlimit:4;stroke-dasharray:none;stroke-dashoffset:0;stroke-opacity:1"
       id="rect15429"
       width="30.374605"
       height="53.603989"
       x="184.98584"
       y="85.163445" />
    <rect
       style="fill:#eaeaea;fill-opacity:1;stroke:#4c4c4c;stroke-width:0.16543306;stroke-miterlimit:4;stroke-dasharray:none;stroke-dashoffset:0;stroke-opacity:1"
       id="rect15431"
       width="28.69091"
       height="53.608639"
       x="235.80415"
       y="84.901909" />
    <g
       id="g15433"
       transform="matrix(1.1299246,0,0,1.1299246,-129.25637,-117.4032)">
      <path
         style="fill:#7a7a7a;fill-opacity:1;fill-rule:nonzero;stroke:none"
         d="m 253.10782,205.88315 -0.33866,0 -3.32314,0 -0.16933,0 c 0.46563,1.62983 -0.14817,1.86266 -2.87866,1.86266 l 0,0.84667 3.45013,0 2.51883,0 3.25964,0 0,-0.84667 c -2.70931,0 -2.96331,-0.23283 -2.51881,-1.86266 z"
         id="path15435"
         inkscape:connector-curvature="0" />
      <path
         style="fill:#a0a1a2;fill-opacity:1;fill-rule:nonzero;stroke:none"
         d="m 257.21413,195.57506 -12.48825,0 c -0.42334,0 -0.762,0.381 -0.762,0.80433 l 0,8.72062 c 0,0.40214 0.33866,0.78314 0.762,0.78314 l 12.48825,0 c 0.4233,0 0.8678,-0.381 0.8678,-0.78314 l 0,-8.72062 c 0,-0.42333 -0.4445,-0.80433 -0.8678,-0.80433 z"
         id="path15437"
         inkscape:connector-curvature="0" />
      <path
         style="fill:#ffffff;fill-opacity:1;fill-rule:nonzero;stroke:none"
         d="m 257.2353,195.57506 c 0,0 0,0 -0.0212,0 l -12.48826,0 c -0.42333,0 -0.76199,0.381 -0.76199,0.80433 l 0,8.72062 c 0,0.40214 0.33866,0.78314 0.762,0.78314 l 0.29633,0 12.21309,-10.30809 z"
         id="path15439"
         inkscape:connector-curvature="0" />
      <path
         style="fill:#59b4d9;fill-opacity:1;fill-rule:nonzero;stroke:none"
         d="m 245.04337,196.65456 11.93793,0 0,8.14911 -11.93793,0 z"
         id="path15441"
         inkscape:connector-curvature="0" />
      <path
         style="fill:#59b4d9;fill-opacity:1;fill-rule:nonzero;stroke:none"
         d="m 255.9653,196.65456 0,0 -10.92193,0 0,8.14911 0,0 0,-8.14911 z"
         id="path15443"
         inkscape:connector-curvature="0" />
      <path
         style="fill:#a0a1a2;fill-opacity:1;fill-rule:nonzero;stroke:none"
         d="m 246.39803,207.74581 9.2286,0 0,0.84667 -9.2286,0 z"
         id="path15445"
         inkscape:connector-curvature="0" />
      <path
         style="fill:#b8d432;fill-opacity:1;fill-rule:nonzero;stroke:none"
         d="m 251.16049,196.16772 c 0,0.10584 -0.0847,0.1905 -0.1905,0.1905 -0.10583,0 -0.21167,-0.0847 -0.21167,-0.1905 0,-0.10583 0.10584,-0.21166 0.21167,-0.21166 0.10583,0 0.1905,0.10583 0.1905,0.21166 z"
         id="path15447"
         inkscape:connector-curvature="0" />
      <path
         style="fill:#ffffff;fill-opacity:1;fill-rule:nonzero;stroke:none"
         d="m 251.18166,200.4857 c -0.0212,0 -0.0423,0 -0.0423,-0.0212 l -2.49763,-1.41817 c -0.0212,-0.0212 -0.0212,-0.0423 -0.0212,-0.0635 0,-0.0423 0,-0.0635 0.0212,-0.0635 l 2.47647,-1.43932 c 0.0212,0 0.0635,0 0.0847,0 l 2.47648,1.43932 c 0.0212,0.0212 0.0423,0.0423 0.0423,0.0635 0,0.0212 -0.0212,0.0423 -0.0423,0.0635 l -2.47648,1.41817 c 0,0.0212 -0.0212,0.0212 -0.0212,0.0212 z"
         id="path15449"
         inkscape:connector-curvature="0" />
      <path
         style="fill:#ffffff;fill-opacity:1;fill-rule:nonzero;stroke:none"
         d="m 250.82182,203.97817 c -0.0212,0 -0.0423,-0.0212 -0.0423,-0.0212 l -2.47647,-1.41817 c -0.0212,-0.0212 -0.0423,-0.0423 -0.0423,-0.0635 l 0,-2.87864 c 0,-0.0212 0.0212,-0.0423 0.0423,-0.0635 0.0212,-0.0212 0.0423,-0.0212 0.0635,0 l 2.49764,1.41817 c 0.0212,0.0212 0.0212,0.0423 0.0212,0.0847 l 0,2.85747 c 0,0.0212 0,0.0423 -0.0212,0.0635 -0.0212,0 -0.0423,0.0212 -0.0423,0.0212 z"
         id="path15451"
         inkscape:connector-curvature="0" />
      <path
         style="fill:#ffffff;fill-opacity:1;fill-rule:nonzero;stroke:none"
         d="m 251.52032,203.97817 c -0.0212,0 -0.0212,-0.0212 -0.0423,-0.0212 -0.0212,-0.0212 -0.0423,-0.0423 -0.0423,-0.0635 l 0,-2.85747 c 0,-0.0212 0.0212,-0.0423 0.0423,-0.0635 l 2.47647,-1.41817 c 0.0212,-0.0212 0.0423,-0.0212 0.0847,0 0.0212,0 0.0212,0.0423 0.0212,0.0635 l 0,2.85747 c 0,0.0212 0,0.0423 -0.0212,0.0635 l -2.47647,1.41817 c -0.0212,0 -0.0423,0.0212 -0.0423,0.0212 z"
         id="path15453"
         inkscape:connector-curvature="0" />
    </g>
    <g
       transform="matrix(1.1299246,0,0,1.1299246,-129.25637,-100.3011)"
       id="g15455">
      <path
         inkscape:connector-curvature="0"
         id="path15457"
         d="m 253.10782,205.88315 -0.33866,0 -3.32314,0 -0.16933,0 c 0.46563,1.62983 -0.14817,1.86266 -2.87866,1.86266 l 0,0.84667 3.45013,0 2.51883,0 3.25964,0 0,-0.84667 c -2.70931,0 -2.96331,-0.23283 -2.51881,-1.86266 z"
         style="fill:#7a7a7a;fill-opacity:1;fill-rule:nonzero;stroke:none" />
      <path
         inkscape:connector-curvature="0"
         id="path15459"
         d="m 257.21413,195.57506 -12.48825,0 c -0.42334,0 -0.762,0.381 -0.762,0.80433 l 0,8.72062 c 0,0.40214 0.33866,0.78314 0.762,0.78314 l 12.48825,0 c 0.4233,0 0.8678,-0.381 0.8678,-0.78314 l 0,-8.72062 c 0,-0.42333 -0.4445,-0.80433 -0.8678,-0.80433 z"
         style="fill:#a0a1a2;fill-opacity:1;fill-rule:nonzero;stroke:none" />
      <path
         inkscape:connector-curvature="0"
         id="path15461"
         d="m 257.2353,195.57506 c 0,0 0,0 -0.0212,0 l -12.48826,0 c -0.42333,0 -0.76199,0.381 -0.76199,0.80433 l 0,8.72062 c 0,0.40214 0.33866,0.78314 0.762,0.78314 l 0.29633,0 12.21309,-10.30809 z"
         style="fill:#ffffff;fill-opacity:1;fill-rule:nonzero;stroke:none" />
      <path
         inkscape:connector-curvature="0"
         id="path15463"
         d="m 245.04337,196.65456 11.93793,0 0,8.14911 -11.93793,0 z"
         style="fill:#59b4d9;fill-opacity:1;fill-rule:nonzero;stroke:none" />
      <path
         inkscape:connector-curvature="0"
         id="path15465"
         d="m 255.9653,196.65456 0,0 -10.92193,0 0,8.14911 0,0 0,-8.14911 z"
         style="fill:#59b4d9;fill-opacity:1;fill-rule:nonzero;stroke:none" />
      <path
         inkscape:connector-curvature="0"
         id="path15467"
         d="m 246.39803,207.74581 9.2286,0 0,0.84667 -9.2286,0 z"
         style="fill:#a0a1a2;fill-opacity:1;fill-rule:nonzero;stroke:none" />
      <path
         inkscape:connector-curvature="0"
         id="path15469"
         d="m 251.16049,196.16772 c 0,0.10584 -0.0847,0.1905 -0.1905,0.1905 -0.10583,0 -0.21167,-0.0847 -0.21167,-0.1905 0,-0.10583 0.10584,-0.21166 0.21167,-0.21166 0.10583,0 0.1905,0.10583 0.1905,0.21166 z"
         style="fill:#b8d432;fill-opacity:1;fill-rule:nonzero;stroke:none" />
      <path
         inkscape:connector-curvature="0"
         id="path15471"
         d="m 251.18166,200.4857 c -0.0212,0 -0.0423,0 -0.0423,-0.0212 l -2.49763,-1.41817 c -0.0212,-0.0212 -0.0212,-0.0423 -0.0212,-0.0635 0,-0.0423 0,-0.0635 0.0212,-0.0635 l 2.47647,-1.43932 c 0.0212,0 0.0635,0 0.0847,0 l 2.47648,1.43932 c 0.0212,0.0212 0.0423,0.0423 0.0423,0.0635 0,0.0212 -0.0212,0.0423 -0.0423,0.0635 l -2.47648,1.41817 c 0,0.0212 -0.0212,0.0212 -0.0212,0.0212 z"
         style="fill:#ffffff;fill-opacity:1;fill-rule:nonzero;stroke:none" />
      <path
         inkscape:connector-curvature="0"
         id="path15473"
         d="m 250.82182,203.97817 c -0.0212,0 -0.0423,-0.0212 -0.0423,-0.0212 l -2.47647,-1.41817 c -0.0212,-0.0212 -0.0423,-0.0423 -0.0423,-0.0635 l 0,-2.87864 c 0,-0.0212 0.0212,-0.0423 0.0423,-0.0635 0.0212,-0.0212 0.0423,-0.0212 0.0635,0 l 2.49764,1.41817 c 0.0212,0.0212 0.0212,0.0423 0.0212,0.0847 l 0,2.85747 c 0,0.0212 0,0.0423 -0.0212,0.0635 -0.0212,0 -0.0423,0.0212 -0.0423,0.0212 z"
         style="fill:#ffffff;fill-opacity:1;fill-rule:nonzero;stroke:none" />
      <path
         inkscape:connector-curvature="0"
         id="path15475"
         d="m 251.52032,203.97817 c -0.0212,0 -0.0212,-0.0212 -0.0423,-0.0212 -0.0212,-0.0212 -0.0423,-0.0423 -0.0423,-0.0635 l 0,-2.85747 c 0,-0.0212 0.0212,-0.0423 0.0423,-0.0635 l 2.47647,-1.41817 c 0.0212,-0.0212 0.0423,-0.0212 0.0847,0 0.0212,0 0.0212,0.0423 0.0212,0.0635 l 0,2.85747 c 0,0.0212 0,0.0423 -0.0212,0.0635 l -2.47647,1.41817 c -0.0212,0 -0.0423,0.0212 -0.0423,0.0212 z"
         style="fill:#ffffff;fill-opacity:1;fill-rule:nonzero;stroke:none" />
    </g>
    <g
       transform="matrix(1.1299246,0,0,1.1299246,-129.25637,-134.2202)"
       id="g15477">
      <path
         inkscape:connector-curvature="0"
         id="path15479"
         d="m 253.10782,205.88315 -0.33866,0 -3.32314,0 -0.16933,0 c 0.46563,1.62983 -0.14817,1.86266 -2.87866,1.86266 l 0,0.84667 3.45013,0 2.51883,0 3.25964,0 0,-0.84667 c -2.70931,0 -2.96331,-0.23283 -2.51881,-1.86266 z"
         style="fill:#7a7a7a;fill-opacity:1;fill-rule:nonzero;stroke:none" />
      <path
         inkscape:connector-curvature="0"
         id="path15481"
         d="m 257.21413,195.57506 -12.48825,0 c -0.42334,0 -0.762,0.381 -0.762,0.80433 l 0,8.72062 c 0,0.40214 0.33866,0.78314 0.762,0.78314 l 12.48825,0 c 0.4233,0 0.8678,-0.381 0.8678,-0.78314 l 0,-8.72062 c 0,-0.42333 -0.4445,-0.80433 -0.8678,-0.80433 z"
         style="fill:#a0a1a2;fill-opacity:1;fill-rule:nonzero;stroke:none" />
      <path
         inkscape:connector-curvature="0"
         id="path15483"
         d="m 257.2353,195.57506 c 0,0 0,0 -0.0212,0 l -12.48826,0 c -0.42333,0 -0.76199,0.381 -0.76199,0.80433 l 0,8.72062 c 0,0.40214 0.33866,0.78314 0.762,0.78314 l 0.29633,0 12.21309,-10.30809 z"
         style="fill:#ffffff;fill-opacity:1;fill-rule:nonzero;stroke:none" />
      <path
         inkscape:connector-curvature="0"
         id="path15485"
         d="m 245.04337,196.65456 11.93793,0 0,8.14911 -11.93793,0 z"
         style="fill:#59b4d9;fill-opacity:1;fill-rule:nonzero;stroke:none" />
      <path
         inkscape:connector-curvature="0"
         id="path15487"
         d="m 255.9653,196.65456 0,0 -10.92193,0 0,8.14911 0,0 0,-8.14911 z"
         style="fill:#59b4d9;fill-opacity:1;fill-rule:nonzero;stroke:none" />
      <path
         inkscape:connector-curvature="0"
         id="path15489"
         d="m 246.39803,207.74581 9.2286,0 0,0.84667 -9.2286,0 z"
         style="fill:#a0a1a2;fill-opacity:1;fill-rule:nonzero;stroke:none" />
      <path
         inkscape:connector-curvature="0"
         id="path15491"
         d="m 251.16049,196.16772 c 0,0.10584 -0.0847,0.1905 -0.1905,0.1905 -0.10583,0 -0.21167,-0.0847 -0.21167,-0.1905 0,-0.10583 0.10584,-0.21166 0.21167,-0.21166 0.10583,0 0.1905,0.10583 0.1905,0.21166 z"
         style="fill:#b8d432;fill-opacity:1;fill-rule:nonzero;stroke:none" />
      <path
         inkscape:connector-curvature="0"
         id="path15493"
         d="m 251.18166,200.4857 c -0.0212,0 -0.0423,0 -0.0423,-0.0212 l -2.49763,-1.41817 c -0.0212,-0.0212 -0.0212,-0.0423 -0.0212,-0.0635 0,-0.0423 0,-0.0635 0.0212,-0.0635 l 2.47647,-1.43932 c 0.0212,0 0.0635,0 0.0847,0 l 2.47648,1.43932 c 0.0212,0.0212 0.0423,0.0423 0.0423,0.0635 0,0.0212 -0.0212,0.0423 -0.0423,0.0635 l -2.47648,1.41817 c 0,0.0212 -0.0212,0.0212 -0.0212,0.0212 z"
         style="fill:#ffffff;fill-opacity:1;fill-rule:nonzero;stroke:none" />
      <path
         inkscape:connector-curvature="0"
         id="path15495"
         d="m 250.82182,203.97817 c -0.0212,0 -0.0423,-0.0212 -0.0423,-0.0212 l -2.47647,-1.41817 c -0.0212,-0.0212 -0.0423,-0.0423 -0.0423,-0.0635 l 0,-2.87864 c 0,-0.0212 0.0212,-0.0423 0.0423,-0.0635 0.0212,-0.0212 0.0423,-0.0212 0.0635,0 l 2.49764,1.41817 c 0.0212,0.0212 0.0212,0.0423 0.0212,0.0847 l 0,2.85747 c 0,0.0212 0,0.0423 -0.0212,0.0635 -0.0212,0 -0.0423,0.0212 -0.0423,0.0212 z"
         style="fill:#ffffff;fill-opacity:1;fill-rule:nonzero;stroke:none" />
      <path
         inkscape:connector-curvature="0"
         id="path15497"
         d="m 251.52032,203.97817 c -0.0212,0 -0.0212,-0.0212 -0.0423,-0.0212 -0.0212,-0.0212 -0.0423,-0.0423 -0.0423,-0.0635 l 0,-2.85747 c 0,-0.0212 0.0212,-0.0423 0.0423,-0.0635 l 2.47647,-1.41817 c 0.0212,-0.0212 0.0423,-0.0212 0.0847,0 0.0212,0 0.0212,0.0423 0.0212,0.0635 l 0,2.85747 c 0,0.0212 0,0.0423 -0.0212,0.0635 l -2.47647,1.41817 c -0.0212,0 -0.0423,0.0212 -0.0423,0.0212 z"
         style="fill:#ffffff;fill-opacity:1;fill-rule:nonzero;stroke:none" />
    </g>
    <g
       id="g15499"
       transform="matrix(0.3464647,0,0,0.3464647,9.1787347,41.232445)">
      <path
         id="path15501"
         d="m 337.89703,224.55889 c -1.232,0 -2.392,-0.48 -3.261,-1.352 l -20.389,-20.388 c -0.859,-0.859 -1.351,-2.046 -1.351,-3.261 0,-1.214 0.492,-2.402 1.351,-3.26 l 20.389,-20.388 c 0.871,-0.872 2.029,-1.352 3.261,-1.352 1.231,0 2.39,0.48 3.261,1.352 l 20.386,20.388 c 0.873,0.868 1.352,2.027 1.352,3.26 0,1.233 -0.479,2.392 -1.353,3.263 l -20.385,20.386 c -0.87,0.872 -2.03,1.352 -3.261,1.352"
         style="fill:#7fba00"
         inkscape:connector-curvature="0" />
      <path
         id="path15503"
         d="m 358.50903,199.21889 -6.613,-6.612 0,4.668 -7.016,-0.006 c -0.677,-2.418 -2.573,-4.328 -4.984,-5.02 l 0,-6.69 4.613,0 -6.613,-6.613 -6.612,6.613 4.612,0 0,6.689 c -2.407,0.692 -4.301,2.596 -4.981,5.008 l -7.019,-0.006 0,-4.618 -6.613,6.613 6.613,6.612 0,-4.668 7.022,0.006 c 0.683,2.407 2.574,4.305 4.978,4.996 l 0,4.636 c -1,0.728 -2.528,2.258 -2.528,4.04 0,2.481 2.033,4.5 4.514,4.5 2.481,0 4.51,-2.019 4.51,-4.5 0,-1.762 -1.496,-3.274 -2.496,-4.013 l 0,-4.663 c 2.399,-0.689 4.289,-2.583 4.975,-4.983 l 7.025,0.006 0,4.618 6.613,-6.613 z"
         style="fill:#ffffff"
         inkscape:connector-curvature="0" />
      <path
         id="path15505"
         d="m 337.89603,193.96089 c -2.899,0 -5.258,2.359 -5.258,5.258 0,2.899 2.359,5.258 5.258,5.258 2.899,0 5.258,-2.358 5.258,-5.258 0,-2.9 -2.359,-5.258 -5.258,-5.258 z"
         style="fill:#59b4d9"
         inkscape:connector-curvature="0" />
      <path
         id="path15507"
         d="m 341.15803,175.90989 c -0.871,-0.872 -2.029,-1.352 -3.261,-1.352 -1.231,0 -2.389,0.48 -3.26,1.352 l -20.389,20.388 c -0.86,0.858 -1.352,2.046 -1.352,3.26 0,1.215 0.492,2.403 1.352,3.261 l 11.543,11.544 21.715,-32.106 -6.348,-6.347 z"
         style="opacity:0.15;fill:#ffffff"
         inkscape:connector-curvature="0" />
    </g>
    <g
       transform="matrix(1.1299246,0,0,1.1299246,-79.009819,-117.4032)"
       id="g15509">
      <path
         inkscape:connector-curvature="0"
         id="path15511"
         d="m 253.10782,205.88315 -0.33866,0 -3.32314,0 -0.16933,0 c 0.46563,1.62983 -0.14817,1.86266 -2.87866,1.86266 l 0,0.84667 3.45013,0 2.51883,0 3.25964,0 0,-0.84667 c -2.70931,0 -2.96331,-0.23283 -2.51881,-1.86266 z"
         style="fill:#7a7a7a;fill-opacity:1;fill-rule:nonzero;stroke:none" />
      <path
         inkscape:connector-curvature="0"
         id="path15513"
         d="m 257.21413,195.57506 -12.48825,0 c -0.42334,0 -0.762,0.381 -0.762,0.80433 l 0,8.72062 c 0,0.40214 0.33866,0.78314 0.762,0.78314 l 12.48825,0 c 0.4233,0 0.8678,-0.381 0.8678,-0.78314 l 0,-8.72062 c 0,-0.42333 -0.4445,-0.80433 -0.8678,-0.80433 z"
         style="fill:#a0a1a2;fill-opacity:1;fill-rule:nonzero;stroke:none" />
      <path
         inkscape:connector-curvature="0"
         id="path15515"
         d="m 257.2353,195.57506 c 0,0 0,0 -0.0212,0 l -12.48826,0 c -0.42333,0 -0.76199,0.381 -0.76199,0.80433 l 0,8.72062 c 0,0.40214 0.33866,0.78314 0.762,0.78314 l 0.29633,0 12.21309,-10.30809 z"
         style="fill:#ffffff;fill-opacity:1;fill-rule:nonzero;stroke:none" />
      <path
         inkscape:connector-curvature="0"
         id="path15517"
         d="m 245.04337,196.65456 11.93793,0 0,8.14911 -11.93793,0 z"
         style="fill:#59b4d9;fill-opacity:1;fill-rule:nonzero;stroke:none" />
      <path
         inkscape:connector-curvature="0"
         id="path15519"
         d="m 255.9653,196.65456 0,0 -10.92193,0 0,8.14911 0,0 0,-8.14911 z"
         style="fill:#59b4d9;fill-opacity:1;fill-rule:nonzero;stroke:none" />
      <path
         inkscape:connector-curvature="0"
         id="path15521"
         d="m 246.39803,207.74581 9.2286,0 0,0.84667 -9.2286,0 z"
         style="fill:#a0a1a2;fill-opacity:1;fill-rule:nonzero;stroke:none" />
      <path
         inkscape:connector-curvature="0"
         id="path15523"
         d="m 251.16049,196.16772 c 0,0.10584 -0.0847,0.1905 -0.1905,0.1905 -0.10583,0 -0.21167,-0.0847 -0.21167,-0.1905 0,-0.10583 0.10584,-0.21166 0.21167,-0.21166 0.10583,0 0.1905,0.10583 0.1905,0.21166 z"
         style="fill:#b8d432;fill-opacity:1;fill-rule:nonzero;stroke:none" />
      <path
         inkscape:connector-curvature="0"
         id="path15525"
         d="m 251.18166,200.4857 c -0.0212,0 -0.0423,0 -0.0423,-0.0212 l -2.49763,-1.41817 c -0.0212,-0.0212 -0.0212,-0.0423 -0.0212,-0.0635 0,-0.0423 0,-0.0635 0.0212,-0.0635 l 2.47647,-1.43932 c 0.0212,0 0.0635,0 0.0847,0 l 2.47648,1.43932 c 0.0212,0.0212 0.0423,0.0423 0.0423,0.0635 0,0.0212 -0.0212,0.0423 -0.0423,0.0635 l -2.47648,1.41817 c 0,0.0212 -0.0212,0.0212 -0.0212,0.0212 z"
         style="fill:#ffffff;fill-opacity:1;fill-rule:nonzero;stroke:none" />
      <path
         inkscape:connector-curvature="0"
         id="path15527"
         d="m 250.82182,203.97817 c -0.0212,0 -0.0423,-0.0212 -0.0423,-0.0212 l -2.47647,-1.41817 c -0.0212,-0.0212 -0.0423,-0.0423 -0.0423,-0.0635 l 0,-2.87864 c 0,-0.0212 0.0212,-0.0423 0.0423,-0.0635 0.0212,-0.0212 0.0423,-0.0212 0.0635,0 l 2.49764,1.41817 c 0.0212,0.0212 0.0212,0.0423 0.0212,0.0847 l 0,2.85747 c 0,0.0212 0,0.0423 -0.0212,0.0635 -0.0212,0 -0.0423,0.0212 -0.0423,0.0212 z"
         style="fill:#ffffff;fill-opacity:1;fill-rule:nonzero;stroke:none" />
      <path
         inkscape:connector-curvature="0"
         id="path15529"
         d="m 251.52032,203.97817 c -0.0212,0 -0.0212,-0.0212 -0.0423,-0.0212 -0.0212,-0.0212 -0.0423,-0.0423 -0.0423,-0.0635 l 0,-2.85747 c 0,-0.0212 0.0212,-0.0423 0.0423,-0.0635 l 2.47647,-1.41817 c 0.0212,-0.0212 0.0423,-0.0212 0.0847,0 0.0212,0 0.0212,0.0423 0.0212,0.0635 l 0,2.85747 c 0,0.0212 0,0.0423 -0.0212,0.0635 l -2.47647,1.41817 c -0.0212,0 -0.0423,0.0212 -0.0423,0.0212 z"
         style="fill:#ffffff;fill-opacity:1;fill-rule:nonzero;stroke:none" />
    </g>
    <g
       id="g15531"
       transform="matrix(1.1299246,0,0,1.1299246,-79.009819,-100.3011)">
      <path
         style="fill:#7a7a7a;fill-opacity:1;fill-rule:nonzero;stroke:none"
         d="m 253.10782,205.88315 -0.33866,0 -3.32314,0 -0.16933,0 c 0.46563,1.62983 -0.14817,1.86266 -2.87866,1.86266 l 0,0.84667 3.45013,0 2.51883,0 3.25964,0 0,-0.84667 c -2.70931,0 -2.96331,-0.23283 -2.51881,-1.86266 z"
         id="path15533"
         inkscape:connector-curvature="0" />
      <path
         style="fill:#a0a1a2;fill-opacity:1;fill-rule:nonzero;stroke:none"
         d="m 257.21413,195.57506 -12.48825,0 c -0.42334,0 -0.762,0.381 -0.762,0.80433 l 0,8.72062 c 0,0.40214 0.33866,0.78314 0.762,0.78314 l 12.48825,0 c 0.4233,0 0.8678,-0.381 0.8678,-0.78314 l 0,-8.72062 c 0,-0.42333 -0.4445,-0.80433 -0.8678,-0.80433 z"
         id="path15535"
         inkscape:connector-curvature="0" />
      <path
         style="fill:#ffffff;fill-opacity:1;fill-rule:nonzero;stroke:none"
         d="m 257.2353,195.57506 c 0,0 0,0 -0.0212,0 l -12.48826,0 c -0.42333,0 -0.76199,0.381 -0.76199,0.80433 l 0,8.72062 c 0,0.40214 0.33866,0.78314 0.762,0.78314 l 0.29633,0 12.21309,-10.30809 z"
         id="path15537"
         inkscape:connector-curvature="0" />
      <path
         style="fill:#59b4d9;fill-opacity:1;fill-rule:nonzero;stroke:none"
         d="m 245.04337,196.65456 11.93793,0 0,8.14911 -11.93793,0 z"
         id="path15539"
         inkscape:connector-curvature="0" />
      <path
         style="fill:#59b4d9;fill-opacity:1;fill-rule:nonzero;stroke:none"
         d="m 255.9653,196.65456 0,0 -10.92193,0 0,8.14911 0,0 0,-8.14911 z"
         id="path15541"
         inkscape:connector-curvature="0" />
      <path
         style="fill:#a0a1a2;fill-opacity:1;fill-rule:nonzero;stroke:none"
         d="m 246.39803,207.74581 9.2286,0 0,0.84667 -9.2286,0 z"
         id="path15543"
         inkscape:connector-curvature="0" />
      <path
         style="fill:#b8d432;fill-opacity:1;fill-rule:nonzero;stroke:none"
         d="m 251.16049,196.16772 c 0,0.10584 -0.0847,0.1905 -0.1905,0.1905 -0.10583,0 -0.21167,-0.0847 -0.21167,-0.1905 0,-0.10583 0.10584,-0.21166 0.21167,-0.21166 0.10583,0 0.1905,0.10583 0.1905,0.21166 z"
         id="path15545"
         inkscape:connector-curvature="0" />
      <path
         style="fill:#ffffff;fill-opacity:1;fill-rule:nonzero;stroke:none"
         d="m 251.18166,200.4857 c -0.0212,0 -0.0423,0 -0.0423,-0.0212 l -2.49763,-1.41817 c -0.0212,-0.0212 -0.0212,-0.0423 -0.0212,-0.0635 0,-0.0423 0,-0.0635 0.0212,-0.0635 l 2.47647,-1.43932 c 0.0212,0 0.0635,0 0.0847,0 l 2.47648,1.43932 c 0.0212,0.0212 0.0423,0.0423 0.0423,0.0635 0,0.0212 -0.0212,0.0423 -0.0423,0.0635 l -2.47648,1.41817 c 0,0.0212 -0.0212,0.0212 -0.0212,0.0212 z"
         id="path15547"
         inkscape:connector-curvature="0" />
      <path
         style="fill:#ffffff;fill-opacity:1;fill-rule:nonzero;stroke:none"
         d="m 250.82182,203.97817 c -0.0212,0 -0.0423,-0.0212 -0.0423,-0.0212 l -2.47647,-1.41817 c -0.0212,-0.0212 -0.0423,-0.0423 -0.0423,-0.0635 l 0,-2.87864 c 0,-0.0212 0.0212,-0.0423 0.0423,-0.0635 0.0212,-0.0212 0.0423,-0.0212 0.0635,0 l 2.49764,1.41817 c 0.0212,0.0212 0.0212,0.0423 0.0212,0.0847 l 0,2.85747 c 0,0.0212 0,0.0423 -0.0212,0.0635 -0.0212,0 -0.0423,0.0212 -0.0423,0.0212 z"
         id="path15549"
         inkscape:connector-curvature="0" />
      <path
         style="fill:#ffffff;fill-opacity:1;fill-rule:nonzero;stroke:none"
         d="m 251.52032,203.97817 c -0.0212,0 -0.0212,-0.0212 -0.0423,-0.0212 -0.0212,-0.0212 -0.0423,-0.0423 -0.0423,-0.0635 l 0,-2.85747 c 0,-0.0212 0.0212,-0.0423 0.0423,-0.0635 l 2.47647,-1.41817 c 0.0212,-0.0212 0.0423,-0.0212 0.0847,0 0.0212,0 0.0212,0.0423 0.0212,0.0635 l 0,2.85747 c 0,0.0212 0,0.0423 -0.0212,0.0635 l -2.47647,1.41817 c -0.0212,0 -0.0423,0.0212 -0.0423,0.0212 z"
         id="path15551"
         inkscape:connector-curvature="0" />
    </g>
    <g
       id="g15553"
       transform="matrix(1.1299246,0,0,1.1299246,-79.009819,-134.2202)">
      <path
         style="fill:#7a7a7a;fill-opacity:1;fill-rule:nonzero;stroke:none"
         d="m 253.10782,205.88315 -0.33866,0 -3.32314,0 -0.16933,0 c 0.46563,1.62983 -0.14817,1.86266 -2.87866,1.86266 l 0,0.84667 3.45013,0 2.51883,0 3.25964,0 0,-0.84667 c -2.70931,0 -2.96331,-0.23283 -2.51881,-1.86266 z"
         id="path15555"
         inkscape:connector-curvature="0" />
      <path
         style="fill:#a0a1a2;fill-opacity:1;fill-rule:nonzero;stroke:none"
         d="m 257.21413,195.57506 -12.48825,0 c -0.42334,0 -0.762,0.381 -0.762,0.80433 l 0,8.72062 c 0,0.40214 0.33866,0.78314 0.762,0.78314 l 12.48825,0 c 0.4233,0 0.8678,-0.381 0.8678,-0.78314 l 0,-8.72062 c 0,-0.42333 -0.4445,-0.80433 -0.8678,-0.80433 z"
         id="path15557"
         inkscape:connector-curvature="0" />
      <path
         style="fill:#ffffff;fill-opacity:1;fill-rule:nonzero;stroke:none"
         d="m 257.2353,195.57506 c 0,0 0,0 -0.0212,0 l -12.48826,0 c -0.42333,0 -0.76199,0.381 -0.76199,0.80433 l 0,8.72062 c 0,0.40214 0.33866,0.78314 0.762,0.78314 l 0.29633,0 12.21309,-10.30809 z"
         id="path15559"
         inkscape:connector-curvature="0" />
      <path
         style="fill:#59b4d9;fill-opacity:1;fill-rule:nonzero;stroke:none"
         d="m 245.04337,196.65456 11.93793,0 0,8.14911 -11.93793,0 z"
         id="path15561"
         inkscape:connector-curvature="0" />
      <path
         style="fill:#59b4d9;fill-opacity:1;fill-rule:nonzero;stroke:none"
         d="m 255.9653,196.65456 0,0 -10.92193,0 0,8.14911 0,0 0,-8.14911 z"
         id="path15563"
         inkscape:connector-curvature="0" />
      <path
         style="fill:#a0a1a2;fill-opacity:1;fill-rule:nonzero;stroke:none"
         d="m 246.39803,207.74581 9.2286,0 0,0.84667 -9.2286,0 z"
         id="path15565"
         inkscape:connector-curvature="0" />
      <path
         style="fill:#b8d432;fill-opacity:1;fill-rule:nonzero;stroke:none"
         d="m 251.16049,196.16772 c 0,0.10584 -0.0847,0.1905 -0.1905,0.1905 -0.10583,0 -0.21167,-0.0847 -0.21167,-0.1905 0,-0.10583 0.10584,-0.21166 0.21167,-0.21166 0.10583,0 0.1905,0.10583 0.1905,0.21166 z"
         id="path15567"
         inkscape:connector-curvature="0" />
      <path
         style="fill:#ffffff;fill-opacity:1;fill-rule:nonzero;stroke:none"
         d="m 251.18166,200.4857 c -0.0212,0 -0.0423,0 -0.0423,-0.0212 l -2.49763,-1.41817 c -0.0212,-0.0212 -0.0212,-0.0423 -0.0212,-0.0635 0,-0.0423 0,-0.0635 0.0212,-0.0635 l 2.47647,-1.43932 c 0.0212,0 0.0635,0 0.0847,0 l 2.47648,1.43932 c 0.0212,0.0212 0.0423,0.0423 0.0423,0.0635 0,0.0212 -0.0212,0.0423 -0.0423,0.0635 l -2.47648,1.41817 c 0,0.0212 -0.0212,0.0212 -0.0212,0.0212 z"
         id="path15569"
         inkscape:connector-curvature="0" />
      <path
         style="fill:#ffffff;fill-opacity:1;fill-rule:nonzero;stroke:none"
         d="m 250.82182,203.97817 c -0.0212,0 -0.0423,-0.0212 -0.0423,-0.0212 l -2.47647,-1.41817 c -0.0212,-0.0212 -0.0423,-0.0423 -0.0423,-0.0635 l 0,-2.87864 c 0,-0.0212 0.0212,-0.0423 0.0423,-0.0635 0.0212,-0.0212 0.0423,-0.0212 0.0635,0 l 2.49764,1.41817 c 0.0212,0.0212 0.0212,0.0423 0.0212,0.0847 l 0,2.85747 c 0,0.0212 0,0.0423 -0.0212,0.0635 -0.0212,0 -0.0423,0.0212 -0.0423,0.0212 z"
         id="path15571"
         inkscape:connector-curvature="0" />
      <path
         style="fill:#ffffff;fill-opacity:1;fill-rule:nonzero;stroke:none"
         d="m 251.52032,203.97817 c -0.0212,0 -0.0212,-0.0212 -0.0423,-0.0212 -0.0212,-0.0212 -0.0423,-0.0423 -0.0423,-0.0635 l 0,-2.85747 c 0,-0.0212 0.0212,-0.0423 0.0423,-0.0635 l 2.47647,-1.41817 c 0.0212,-0.0212 0.0423,-0.0212 0.0847,0 0.0212,0 0.0212,0.0423 0.0212,0.0635 l 0,2.85747 c 0,0.0212 0,0.0423 -0.0212,0.0635 l -2.47647,1.41817 c -0.0212,0 -0.0423,0.0212 -0.0423,0.0212 z"
         id="path15573"
         inkscape:connector-curvature="0" />
    </g>
    <g
       transform="matrix(0.3464647,0,0,0.3464647,58.964164,41.232445)"
       id="g15575">
      <path
         inkscape:connector-curvature="0"
         style="fill:#7fba00"
         d="m 337.89703,224.55889 c -1.232,0 -2.392,-0.48 -3.261,-1.352 l -20.389,-20.388 c -0.859,-0.859 -1.351,-2.046 -1.351,-3.261 0,-1.214 0.492,-2.402 1.351,-3.26 l 20.389,-20.388 c 0.871,-0.872 2.029,-1.352 3.261,-1.352 1.231,0 2.39,0.48 3.261,1.352 l 20.386,20.388 c 0.873,0.868 1.352,2.027 1.352,3.26 0,1.233 -0.479,2.392 -1.353,3.263 l -20.385,20.386 c -0.87,0.872 -2.03,1.352 -3.261,1.352"
         id="path15577" />
      <path
         inkscape:connector-curvature="0"
         style="fill:#ffffff"
         d="m 358.50903,199.21889 -6.613,-6.612 0,4.668 -7.016,-0.006 c -0.677,-2.418 -2.573,-4.328 -4.984,-5.02 l 0,-6.69 4.613,0 -6.613,-6.613 -6.612,6.613 4.612,0 0,6.689 c -2.407,0.692 -4.301,2.596 -4.981,5.008 l -7.019,-0.006 0,-4.618 -6.613,6.613 6.613,6.612 0,-4.668 7.022,0.006 c 0.683,2.407 2.574,4.305 4.978,4.996 l 0,4.636 c -1,0.728 -2.528,2.258 -2.528,4.04 0,2.481 2.033,4.5 4.514,4.5 2.481,0 4.51,-2.019 4.51,-4.5 0,-1.762 -1.496,-3.274 -2.496,-4.013 l 0,-4.663 c 2.399,-0.689 4.289,-2.583 4.975,-4.983 l 7.025,0.006 0,4.618 6.613,-6.613 z"
         id="path15579" />
      <path
         inkscape:connector-curvature="0"
         style="fill:#59b4d9"
         d="m 337.89603,193.96089 c -2.899,0 -5.258,2.359 -5.258,5.258 0,2.899 2.359,5.258 5.258,5.258 2.899,0 5.258,-2.358 5.258,-5.258 0,-2.9 -2.359,-5.258 -5.258,-5.258 z"
         id="path15581" />
      <path
         inkscape:connector-curvature="0"
         style="opacity:0.15;fill:#ffffff"
         d="m 341.15803,175.90989 c -0.871,-0.872 -2.029,-1.352 -3.261,-1.352 -1.231,0 -2.389,0.48 -3.26,1.352 l -20.389,20.388 c -0.86,0.858 -1.352,2.046 -1.352,3.26 0,1.215 0.492,2.403 1.352,3.261 l 11.543,11.544 21.715,-32.106 -6.348,-6.347 z"
         id="path15583" />
    </g>
    <g
       id="g15585"
       transform="matrix(0.3464647,0,0,0.3464647,109.821,41.232445)">
      <path
         id="path15587"
         d="m 337.89703,224.55889 c -1.232,0 -2.392,-0.48 -3.261,-1.352 l -20.389,-20.388 c -0.859,-0.859 -1.351,-2.046 -1.351,-3.261 0,-1.214 0.492,-2.402 1.351,-3.26 l 20.389,-20.388 c 0.871,-0.872 2.029,-1.352 3.261,-1.352 1.231,0 2.39,0.48 3.261,1.352 l 20.386,20.388 c 0.873,0.868 1.352,2.027 1.352,3.26 0,1.233 -0.479,2.392 -1.353,3.263 l -20.385,20.386 c -0.87,0.872 -2.03,1.352 -3.261,1.352"
         style="fill:#7fba00"
         inkscape:connector-curvature="0" />
      <path
         id="path15589"
         d="m 358.50903,199.21889 -6.613,-6.612 0,4.668 -7.016,-0.006 c -0.677,-2.418 -2.573,-4.328 -4.984,-5.02 l 0,-6.69 4.613,0 -6.613,-6.613 -6.612,6.613 4.612,0 0,6.689 c -2.407,0.692 -4.301,2.596 -4.981,5.008 l -7.019,-0.006 0,-4.618 -6.613,6.613 6.613,6.612 0,-4.668 7.022,0.006 c 0.683,2.407 2.574,4.305 4.978,4.996 l 0,4.636 c -1,0.728 -2.528,2.258 -2.528,4.04 0,2.481 2.033,4.5 4.514,4.5 2.481,0 4.51,-2.019 4.51,-4.5 0,-1.762 -1.496,-3.274 -2.496,-4.013 l 0,-4.663 c 2.399,-0.689 4.289,-2.583 4.975,-4.983 l 7.025,0.006 0,4.618 6.613,-6.613 z"
         style="fill:#ffffff"
         inkscape:connector-curvature="0" />
      <path
         id="path15591"
         d="m 337.89603,193.96089 c -2.899,0 -5.258,2.359 -5.258,5.258 0,2.899 2.359,5.258 5.258,5.258 2.899,0 5.258,-2.358 5.258,-5.258 0,-2.9 -2.359,-5.258 -5.258,-5.258 z"
         style="fill:#59b4d9"
         inkscape:connector-curvature="0" />
      <path
         id="path15593"
         d="m 341.15803,175.90989 c -0.871,-0.872 -2.029,-1.352 -3.261,-1.352 -1.231,0 -2.389,0.48 -3.26,1.352 l -20.389,20.388 c -0.86,0.858 -1.352,2.046 -1.352,3.26 0,1.215 0.492,2.403 1.352,3.261 l 11.543,11.544 21.715,-32.106 -6.348,-6.347 z"
         style="opacity:0.15;fill:#ffffff"
         inkscape:connector-curvature="0" />
    </g>
    <g
       transform="matrix(0.56448141,0,0,0.56448141,-41.75038,-532.59672)"
       id="g15595">
      <path
         inkscape:connector-curvature="0"
         id="path15597"
         d="m 529.65404,1117.856 -0.6779,0 -6.65194,0 -0.33895,0 c 0.93206,3.2625 -0.29659,3.7285 -5.76222,3.7285 l 0,1.6948 6.90614,0 5.04195,0 6.52483,0 0,-1.6948 c -5.42323,0 -5.93167,-0.466 -5.04191,-3.7285 z"
         style="fill:#7a7a7a;fill-opacity:1;fill-rule:nonzero;stroke:none" />
      <path
         inkscape:connector-curvature="0"
         id="path15599"
         d="m 537.87366,1097.2223 -24.99778,0 c -0.8474,0 -1.5253,0.7626 -1.5253,1.61 l 0,17.4561 c 0,0.805 0.6779,1.5676 1.5253,1.5676 l 24.99778,0 c 0.84732,0 1.73708,-0.7626 1.73708,-1.5676 l 0,-17.4561 c 0,-0.8474 -0.88976,-1.61 -1.73708,-1.61 z"
         style="fill:#a0a1a2;fill-opacity:1;fill-rule:nonzero;stroke:none" />
      <path
         inkscape:connector-curvature="0"
         id="path15601"
         d="m 537.91603,1097.2223 c 0,0 0,0 -0.0424,0 l -24.9978,0 c -0.84738,0 -1.52528,0.7626 -1.52528,1.61 l 0,17.4561 c 0,0.805 0.6779,1.5676 1.5253,1.5676 l 0.59316,0 24.44699,-20.6337 z"
         style="fill:#ffffff;fill-opacity:1;fill-rule:nonzero;stroke:none" />
      <path
         inkscape:connector-curvature="0"
         id="path15603"
         d="m 513.5114,1099.3831 23.8962,0 0,16.3121 -23.8962,0 z"
         style="fill:#59b4d9;fill-opacity:1;fill-rule:nonzero;stroke:none" />
      <path
         inkscape:connector-curvature="0"
         id="path15605"
         d="m 535.37387,1099.3831 0,0 -21.86247,0 0,16.3121 0,0 0,-16.3121 z"
         style="fill:#59b4d9;fill-opacity:1;fill-rule:nonzero;stroke:none" />
      <path
         inkscape:connector-curvature="0"
         id="path15607"
         d="m 516.22303,1121.5845 18.47292,0 0,1.6948 -18.47292,0 z"
         style="fill:#a0a1a2;fill-opacity:1;fill-rule:nonzero;stroke:none" />
      <path
         inkscape:connector-curvature="0"
         id="path15609"
         d="m 525.75606,1098.4086 c 0,0.2119 -0.16954,0.3813 -0.38132,0.3813 -0.21184,0 -0.4237,-0.1695 -0.4237,-0.3813 0,-0.2118 0.21186,-0.4237 0.4237,-0.4237 0.21184,0 0.38132,0.2119 0.38132,0.4237 z"
         style="fill:#b8d432;fill-opacity:1;fill-rule:nonzero;stroke:none" />
      <g
         id="g15611"
         transform="matrix(0.30426716,0,0,0.30426716,377.41147,732.79074)">
        <g
           id="g15613">
          <path
             style="fill:#ffffff;fill-opacity:1"
             inkscape:connector-curvature="0"
             d="m 486.29943,1231.4979 c -0.1,-0.2 -0.3,-0.3 -0.4,-0.5 -0.2,-0.1 -0.4,-0.2 -0.6,-0.2 -0.3,0 -0.5,0.1 -0.7,0.2 -0.2,0.1 -0.3,0.3 -0.5,0.4 -0.1,0.2 -0.2,0.4 -0.3,0.6 -0.1,0.2 -0.1,0.5 -0.1,0.8 0,0.4 0,0.7 0.1,0.9 0.1,0.3 0.2,0.5 0.3,0.6 0.1,0.2 0.3,0.3 0.5,0.3 0.2,0.1 0.4,0.1 0.6,0.1 0.2,0 0.4,0 0.5,-0.1 0.2,-0.1 0.3,-0.2 0.5,-0.4 0.1,-0.2 0.2,-0.4 0.3,-0.6 0.1,-0.2 0.1,-0.5 0.1,-0.9 0,-0.3 0,-0.5 -0.1,-0.8 0,0 -0.1,-0.2 -0.2,-0.4 z"
             id="path15615" />
        </g>
        <path
           id="path15617"
           d="m 484.99943,1212.3979 c -8,0 -14.4,2.7 -14.4,5.7 l 0,27 c 0,3 6.5,5.8 14.4,5.8 8,0 14.4,-2.7 14.4,-5.7 l 0,-27 c 0.1,-3 -6.4,-5.8 -14.4,-5.8 z m -4.3,22.6 c 0,0.2 -0.1,0.4 -0.2,0.6 -0.1,0.2 -0.2,0.4 -0.4,0.5 -0.2,0.2 -0.4,0.3 -0.6,0.4 -0.2,0.1 -0.5,0.2 -0.9,0.3 -0.3,0.1 -0.7,0.1 -1.2,0.1 -0.2,0 -0.5,0 -0.7,0 -0.2,0 -0.4,0 -0.6,-0.1 -0.2,0 -0.4,-0.1 -0.5,-0.1 -0.2,0 -0.3,-0.1 -0.4,-0.2 l 0,-2.1 c 0.1,0.1 0.3,0.2 0.5,0.3 0.2,0.1 0.3,0.2 0.5,0.3 0.2,0.1 0.4,0.1 0.6,0.2 0.2,0.1 0.4,0.1 0.6,0.1 0.2,0 0.3,0 0.4,-0.1 0.1,0 0.2,-0.1 0.2,-0.1 0.1,0 0.1,-0.1 0.1,-0.2 0,-0.1 0,-0.1 0,-0.2 0,-0.1 0,-0.2 -0.1,-0.3 -0.1,-0.1 -0.1,-0.2 -0.2,-0.2 -0.1,-0.1 -0.2,-0.1 -0.4,-0.2 -0.2,-0.1 -0.3,-0.1 -0.5,-0.2 -0.3,-0.1 -0.6,-0.3 -0.9,-0.5 -0.2,-0.2 -0.4,-0.3 -0.6,-0.5 -0.2,-0.2 -0.3,-0.4 -0.3,-0.6 -0.1,-0.2 -0.1,-0.5 -0.1,-0.7 0,-0.4 0.1,-0.7 0.2,-1 0.2,-0.3 0.4,-0.6 0.6,-0.8 0.3,-0.2 0.6,-0.4 1,-0.5 0.4,-0.1 0.8,-0.2 1.3,-0.2 0.3,0 0.5,0 0.7,0 0.2,0 0.4,0 0.6,0.1 0.2,0 0.3,0.1 0.5,0.1 0.2,0 0.3,0.1 0.4,0.1 l 0,2 c -0.1,-0.1 -0.2,-0.1 -0.4,-0.2 -0.1,-0.1 -0.3,-0.1 -0.5,-0.2 -0.2,-0.1 -0.3,-0.1 -0.5,-0.1 -0.2,0 -0.4,0 -0.6,0 -0.3,0 -0.5,0 -0.6,0.1 -0.2,0.1 -0.2,0.2 -0.2,0.4 0,0.1 0,0.2 0.1,0.2 0,0.1 0.1,0.1 0.2,0.2 0.1,0.1 0.2,0.1 0.3,0.2 0.1,0.1 0.3,0.1 0.5,0.2 0.3,0.1 0.6,0.3 0.9,0.4 0.3,0.2 0.5,0.3 0.7,0.5 0.2,0.2 0.3,0.4 0.5,0.6 0.1,0.2 0.2,0.5 0.2,0.9 -0.1,0.1 -0.2,0.3 -0.2,0.5 z m 5.9,3.8 -1.7,-1.8 c -0.5,0 -1,-0.2 -1.4,-0.3 -0.4,-0.2 -0.8,-0.5 -1.1,-0.8 -0.3,-0.3 -0.6,-0.7 -0.8,-1.2 -0.2,-0.5 -0.3,-1 -0.3,-1.6 0,-0.6 0.1,-1.2 0.3,-1.7 0.2,-0.5 0.5,-0.9 0.8,-1.3 0.3,-0.4 0.8,-0.6 1.2,-0.8 0.5,-0.2 1,-0.3 1.6,-0.3 0.6,0 1.1,0.1 1.5,0.3 0.5,0.2 0.9,0.5 1.2,0.8 0.3,0.3 0.6,0.8 0.8,1.2 0.2,0.5 0.3,1 0.3,1.7 0,0.4 0,0.9 -0.2,1.2 -0.1,0.4 -0.3,0.7 -0.5,1 -0.2,0.3 -0.4,0.6 -0.7,0.8 -0.3,0.2 -0.5,0.4 -0.9,0.6 l 2.6,2.2 -2.7,0 z m 8.6,-2 -5,0 0,-7.7 2.3,0 0,5.9 2.7,0 0,1.8 z m -10.2,-16 c -5.7,0 -10.3,-1.4 -10.3,-3.1 0,-1.7 4.6,-3.1 10.3,-3.1 5.7,0 10.3,1.4 10.3,3.1 0,1.7 -4.6,3.1 -10.3,3.1 z"
           inkscape:connector-curvature="0"
           style="fill:#ffffff;fill-opacity:1" />
      </g>
    </g>
    <path
       sodipodi:nodetypes="ccc"
       inkscape:connector-curvature="0"
       id="path15619"
       d="m 161.35834,110.37238 5.71347,0 0,0"
       style="fill:none;fill-rule:evenodd;stroke:#000000;stroke-width:0.264;stroke-linecap:butt;stroke-linejoin:miter;stroke-miterlimit:4;stroke-dasharray:none;stroke-opacity:1" />
    <path
       style="fill:none;fill-rule:evenodd;stroke:#000000;stroke-width:0.264;stroke-linecap:butt;stroke-linejoin:miter;stroke-miterlimit:4;stroke-dasharray:none;stroke-opacity:1"
       d="m 212.93881,110.37238 4.8206,0 0,0"
       id="path15621"
       inkscape:connector-curvature="0"
       sodipodi:nodetypes="ccc" />
    <path
       sodipodi:nodetypes="ccc"
       inkscape:connector-curvature="0"
       id="path15623"
       d="m 254.87368,103.63745 0,9.67538 0,6.02231"
       style="fill:none;fill-rule:evenodd;stroke:#6f6f6f;stroke-width:0.33868885;stroke-linecap:butt;stroke-linejoin:miter;stroke-miterlimit:4;stroke-dasharray:0.33868886, 0.33868886;stroke-dashoffset:0;stroke-opacity:1" />
    <g
       id="g15625"
       transform="matrix(0.56448141,0,0,0.56448141,-41.75038,-498.67762)">
      <path
         style="fill:#7a7a7a;fill-opacity:1;fill-rule:nonzero;stroke:none"
         d="m 529.65404,1117.856 -0.6779,0 -6.65194,0 -0.33895,0 c 0.93206,3.2625 -0.29659,3.7285 -5.76222,3.7285 l 0,1.6948 6.90614,0 5.04195,0 6.52483,0 0,-1.6948 c -5.42323,0 -5.93167,-0.466 -5.04191,-3.7285 z"
         id="path15627"
         inkscape:connector-curvature="0" />
      <path
         style="fill:#a0a1a2;fill-opacity:1;fill-rule:nonzero;stroke:none"
         d="m 537.87366,1097.2223 -24.99778,0 c -0.8474,0 -1.5253,0.7626 -1.5253,1.61 l 0,17.4561 c 0,0.805 0.6779,1.5676 1.5253,1.5676 l 24.99778,0 c 0.84732,0 1.73708,-0.7626 1.73708,-1.5676 l 0,-17.4561 c 0,-0.8474 -0.88976,-1.61 -1.73708,-1.61 z"
         id="path15629"
         inkscape:connector-curvature="0" />
      <path
         style="fill:#ffffff;fill-opacity:1;fill-rule:nonzero;stroke:none"
         d="m 537.91603,1097.2223 c 0,0 0,0 -0.0424,0 l -24.9978,0 c -0.84738,0 -1.52528,0.7626 -1.52528,1.61 l 0,17.4561 c 0,0.805 0.6779,1.5676 1.5253,1.5676 l 0.59316,0 24.44699,-20.6337 z"
         id="path15631"
         inkscape:connector-curvature="0" />
      <path
         style="fill:#59b4d9;fill-opacity:1;fill-rule:nonzero;stroke:none"
         d="m 513.5114,1099.3831 23.8962,0 0,16.3121 -23.8962,0 z"
         id="path15633"
         inkscape:connector-curvature="0" />
      <path
         style="fill:#59b4d9;fill-opacity:1;fill-rule:nonzero;stroke:none"
         d="m 535.37387,1099.3831 0,0 -21.86247,0 0,16.3121 0,0 0,-16.3121 z"
         id="path15635"
         inkscape:connector-curvature="0" />
      <path
         style="fill:#a0a1a2;fill-opacity:1;fill-rule:nonzero;stroke:none"
         d="m 516.22303,1121.5845 18.47292,0 0,1.6948 -18.47292,0 z"
         id="path15637"
         inkscape:connector-curvature="0" />
      <path
         style="fill:#b8d432;fill-opacity:1;fill-rule:nonzero;stroke:none"
         d="m 525.75606,1098.4086 c 0,0.2119 -0.16954,0.3813 -0.38132,0.3813 -0.21184,0 -0.4237,-0.1695 -0.4237,-0.3813 0,-0.2118 0.21186,-0.4237 0.4237,-0.4237 0.21184,0 0.38132,0.2119 0.38132,0.4237 z"
         id="path15639"
         inkscape:connector-curvature="0" />
      <g
         transform="matrix(0.30426716,0,0,0.30426716,377.41147,732.79074)"
         id="g15641">
        <g
           id="g15643">
          <path
             id="path15645"
             d="m 486.29943,1231.4979 c -0.1,-0.2 -0.3,-0.3 -0.4,-0.5 -0.2,-0.1 -0.4,-0.2 -0.6,-0.2 -0.3,0 -0.5,0.1 -0.7,0.2 -0.2,0.1 -0.3,0.3 -0.5,0.4 -0.1,0.2 -0.2,0.4 -0.3,0.6 -0.1,0.2 -0.1,0.5 -0.1,0.8 0,0.4 0,0.7 0.1,0.9 0.1,0.3 0.2,0.5 0.3,0.6 0.1,0.2 0.3,0.3 0.5,0.3 0.2,0.1 0.4,0.1 0.6,0.1 0.2,0 0.4,0 0.5,-0.1 0.2,-0.1 0.3,-0.2 0.5,-0.4 0.1,-0.2 0.2,-0.4 0.3,-0.6 0.1,-0.2 0.1,-0.5 0.1,-0.9 0,-0.3 0,-0.5 -0.1,-0.8 0,0 -0.1,-0.2 -0.2,-0.4 z"
             inkscape:connector-curvature="0"
             style="fill:#ffffff;fill-opacity:1" />
        </g>
        <path
           style="fill:#ffffff;fill-opacity:1"
           inkscape:connector-curvature="0"
           d="m 484.99943,1212.3979 c -8,0 -14.4,2.7 -14.4,5.7 l 0,27 c 0,3 6.5,5.8 14.4,5.8 8,0 14.4,-2.7 14.4,-5.7 l 0,-27 c 0.1,-3 -6.4,-5.8 -14.4,-5.8 z m -4.3,22.6 c 0,0.2 -0.1,0.4 -0.2,0.6 -0.1,0.2 -0.2,0.4 -0.4,0.5 -0.2,0.2 -0.4,0.3 -0.6,0.4 -0.2,0.1 -0.5,0.2 -0.9,0.3 -0.3,0.1 -0.7,0.1 -1.2,0.1 -0.2,0 -0.5,0 -0.7,0 -0.2,0 -0.4,0 -0.6,-0.1 -0.2,0 -0.4,-0.1 -0.5,-0.1 -0.2,0 -0.3,-0.1 -0.4,-0.2 l 0,-2.1 c 0.1,0.1 0.3,0.2 0.5,0.3 0.2,0.1 0.3,0.2 0.5,0.3 0.2,0.1 0.4,0.1 0.6,0.2 0.2,0.1 0.4,0.1 0.6,0.1 0.2,0 0.3,0 0.4,-0.1 0.1,0 0.2,-0.1 0.2,-0.1 0.1,0 0.1,-0.1 0.1,-0.2 0,-0.1 0,-0.1 0,-0.2 0,-0.1 0,-0.2 -0.1,-0.3 -0.1,-0.1 -0.1,-0.2 -0.2,-0.2 -0.1,-0.1 -0.2,-0.1 -0.4,-0.2 -0.2,-0.1 -0.3,-0.1 -0.5,-0.2 -0.3,-0.1 -0.6,-0.3 -0.9,-0.5 -0.2,-0.2 -0.4,-0.3 -0.6,-0.5 -0.2,-0.2 -0.3,-0.4 -0.3,-0.6 -0.1,-0.2 -0.1,-0.5 -0.1,-0.7 0,-0.4 0.1,-0.7 0.2,-1 0.2,-0.3 0.4,-0.6 0.6,-0.8 0.3,-0.2 0.6,-0.4 1,-0.5 0.4,-0.1 0.8,-0.2 1.3,-0.2 0.3,0 0.5,0 0.7,0 0.2,0 0.4,0 0.6,0.1 0.2,0 0.3,0.1 0.5,0.1 0.2,0 0.3,0.1 0.4,0.1 l 0,2 c -0.1,-0.1 -0.2,-0.1 -0.4,-0.2 -0.1,-0.1 -0.3,-0.1 -0.5,-0.2 -0.2,-0.1 -0.3,-0.1 -0.5,-0.1 -0.2,0 -0.4,0 -0.6,0 -0.3,0 -0.5,0 -0.6,0.1 -0.2,0.1 -0.2,0.2 -0.2,0.4 0,0.1 0,0.2 0.1,0.2 0,0.1 0.1,0.1 0.2,0.2 0.1,0.1 0.2,0.1 0.3,0.2 0.1,0.1 0.3,0.1 0.5,0.2 0.3,0.1 0.6,0.3 0.9,0.4 0.3,0.2 0.5,0.3 0.7,0.5 0.2,0.2 0.3,0.4 0.5,0.6 0.1,0.2 0.2,0.5 0.2,0.9 -0.1,0.1 -0.2,0.3 -0.2,0.5 z m 5.9,3.8 -1.7,-1.8 c -0.5,0 -1,-0.2 -1.4,-0.3 -0.4,-0.2 -0.8,-0.5 -1.1,-0.8 -0.3,-0.3 -0.6,-0.7 -0.8,-1.2 -0.2,-0.5 -0.3,-1 -0.3,-1.6 0,-0.6 0.1,-1.2 0.3,-1.7 0.2,-0.5 0.5,-0.9 0.8,-1.3 0.3,-0.4 0.8,-0.6 1.2,-0.8 0.5,-0.2 1,-0.3 1.6,-0.3 0.6,0 1.1,0.1 1.5,0.3 0.5,0.2 0.9,0.5 1.2,0.8 0.3,0.3 0.6,0.8 0.8,1.2 0.2,0.5 0.3,1 0.3,1.7 0,0.4 0,0.9 -0.2,1.2 -0.1,0.4 -0.3,0.7 -0.5,1 -0.2,0.3 -0.4,0.6 -0.7,0.8 -0.3,0.2 -0.5,0.4 -0.9,0.6 l 2.6,2.2 -2.7,0 z m 8.6,-2 -5,0 0,-7.7 2.3,0 0,5.9 2.7,0 0,1.8 z m -10.2,-16 c -5.7,0 -10.3,-1.4 -10.3,-3.1 0,-1.7 4.6,-3.1 10.3,-3.1 5.7,0 10.3,1.4 10.3,3.1 0,1.7 -4.6,3.1 -10.3,3.1 z"
           id="path15647" />
      </g>
    </g>
    <g
       transform="translate(0,-831.06519)"
       id="g15649">
      <path
         style="fill:none;fill-rule:evenodd;stroke:#000000;stroke-width:0.264;stroke-linecap:butt;stroke-linejoin:miter;stroke-miterlimit:4;stroke-dasharray:none;stroke-opacity:1"
         d="m 135.16726,941.49858 10.26381,0 0,0"
         id="path15651"
         inkscape:connector-curvature="0" />
      <path
         style="fill:none;fill-rule:evenodd;stroke:#000000;stroke-width:0.264;stroke-linecap:butt;stroke-linejoin:miter;stroke-miterlimit:4;stroke-dasharray:none;stroke-opacity:1"
         d="m 135.077,941.37696 11.08312,-17.85211 0,0"
         id="path15653"
         inkscape:connector-curvature="0"
         sodipodi:nodetypes="ccc" />
      <path
         sodipodi:nodetypes="ccc"
         inkscape:connector-curvature="0"
         id="path15655"
         d="m 135.11524,941.49818 11.08312,17.85211 0,0"
         style="fill:none;fill-rule:evenodd;stroke:#000000;stroke-width:0.264;stroke-linecap:butt;stroke-linejoin:miter;stroke-miterlimit:4;stroke-dasharray:none;stroke-opacity:1" />
    </g>
    <path
       style="fill:none;fill-rule:evenodd;stroke:#000000;stroke-width:0.264;stroke-linecap:butt;stroke-linejoin:miter;stroke-miterlimit:4;stroke-dasharray:none;stroke-opacity:1"
       d="m 185.23073,110.43339 10.26381,0 0,0"
       id="path15657"
       inkscape:connector-curvature="0" />
    <path
       style="fill:none;fill-rule:evenodd;stroke:#000000;stroke-width:0.264;stroke-linecap:butt;stroke-linejoin:miter;stroke-miterlimit:4;stroke-dasharray:none;stroke-opacity:1"
       d="m 185.14047,110.31177 11.08312,-17.85211 0,0"
       id="path15659"
       inkscape:connector-curvature="0"
       sodipodi:nodetypes="ccc" />
    <path
       sodipodi:nodetypes="ccc"
       inkscape:connector-curvature="0"
       id="path15661"
       d="m 185.17871,110.43299 11.08312,17.85211 0,0"
       style="fill:none;fill-rule:evenodd;stroke:#000000;stroke-width:0.264;stroke-linecap:butt;stroke-linejoin:miter;stroke-miterlimit:4;stroke-dasharray:none;stroke-opacity:1" />
    <path
       sodipodi:nodetypes="ccc"
       inkscape:connector-curvature="0"
       id="path15663"
       d="m 235.6481,110.31177 11.08312,-17.85211 0,0"
       style="fill:none;fill-rule:evenodd;stroke:#000000;stroke-width:0.264;stroke-linecap:butt;stroke-linejoin:miter;stroke-miterlimit:4;stroke-dasharray:none;stroke-opacity:1" />
    <g
       id="g15665"
       transform="matrix(0.03999917,0,0,0.03999917,262.563,80.469181)">
      <path
         id="path15667"
         d="m 396.1,117.1 c -104.7,0 -188.8,85 -188.8,188.8 0,103.8 84.1,188.8 188.8,188.8 C 500.8,494.7 585,409.8 585,305.9 585,202 500.9,117.1 396.1,117.1 Z m -17.1,85.8 0,-60.1 34.3,0 0,60.1 17.2,0 -34.3,69.5 -34.3,-69.5 17.1,0 z m -77.3,137.3 -69.5,-34.3 69.5,-34.3 0,17.2 60.1,0 0,34.3 -60.1,0 0,17.1 z m 111.6,60.1 0,60.1 -34.3,0 0,-60.1 -17.2,0 34.3,-69.5 34.3,69.5 -17.1,0 z m 77.3,-60.1 0,-17.2 -60.1,0 0,-34.3 60.1,0 0,-17.2 69.5,34.3 -69.5,34.4 z"
         inkscape:connector-curvature="0"
         style="fill:#2a3282" />
    </g>
    <path
       style="fill:none;fill-rule:evenodd;stroke:#000000;stroke-width:0.6;stroke-linecap:butt;stroke-linejoin:miter;stroke-opacity:1;stroke-miterlimit:4;stroke-dasharray:none"
       d="m 278.21429,59.892857 c 0,25.178571 0,25.178571 0,25.178571"
       id="path16163"
       inkscape:connector-curvature="0" />
  </g>
</svg>
