<?xml version="1.0" encoding="UTF-8" standalone="no"?>
<!-- Created with Inkscape (http://www.inkscape.org/) -->

<svg
   xmlns:dc="http://purl.org/dc/elements/1.1/"
   xmlns:cc="http://creativecommons.org/ns#"
   xmlns:rdf="http://www.w3.org/1999/02/22-rdf-syntax-ns#"
   xmlns:svg="http://www.w3.org/2000/svg"
   xmlns="http://www.w3.org/2000/svg"
   xmlns:sodipodi="http://sodipodi.sourceforge.net/DTD/sodipodi-0.dtd"
   xmlns:inkscape="http://www.inkscape.org/namespaces/inkscape"
   width="320"
   height="144"
   viewBox="0 0 320 144"
   id="svg11446"
   version="1.1"
   inkscape:version="0.91 r13725"
   sodipodi:docname="single-vm.svg">
  <defs
     id="defs11448">
    <marker
       inkscape:stockid="DotM"
       orient="auto"
       refY="0"
       refX="0"
       id="DotM-68-0"
       style="overflow:visible"
       inkscape:isstock="true">
      <path
         inkscape:connector-curvature="0"
         id="path4935-9-77"
         d="m -2.5,-1 c 0,2.76 -2.24,5 -5,5 -2.76,0 -5,-2.24 -5,-5 0,-2.76 2.24,-5 5,-5 2.76,0 5,2.24 5,5 z"
         style="fill:#000000;fill-opacity:1;fill-rule:evenodd;stroke:#000000;stroke-width:1pt;stroke-opacity:1"
         transform="matrix(0.4,0,0,0.4,2.96,0.4)" />
    </marker>
  </defs>
  <sodipodi:namedview
     id="base"
     pagecolor="#ffffff"
     bordercolor="#666666"
     borderopacity="1.0"
     inkscape:pageopacity="0.0"
     inkscape:pageshadow="2"
     inkscape:zoom="1.979899"
     inkscape:cx="90.094065"
     inkscape:cy="49.812693"
     inkscape:document-units="px"
     inkscape:current-layer="layer1"
     showgrid="false"
     units="px"
     inkscape:window-width="1536"
     inkscape:window-height="897"
     inkscape:window-x="1528"
     inkscape:window-y="-8"
     inkscape:window-maximized="1" />
  <metadata
     id="metadata11451">
    <rdf:RDF>
      <cc:Work
         rdf:about="">
        <dc:format>image/svg+xml</dc:format>
        <dc:type
           rdf:resource="http://purl.org/dc/dcmitype/StillImage" />
        <dc:title></dc:title>
      </cc:Work>
    </rdf:RDF>
  </metadata>
  <g
     inkscape:label="Layer 1"
     inkscape:groupmode="layer"
     id="layer1"
     transform="translate(0,-908.36216)">
    <g
       transform="matrix(0.18624006,0,0,0.18624006,-374.85043,966.25687)"
       id="Layer_1_1_">
      <g
         id="File_x2C__general">
        <title
           id="title5">Sheet.1071</title>
      </g>
    </g>
    <g
       transform="matrix(0.18624006,0,0,0.18624006,-374.85043,966.25687)"
       id="Access_control" />
    <g
       transform="matrix(0.18624006,0,0,0.18624006,-374.85043,966.25687)"
       id="Azure_active_directory" />
    <g
       transform="matrix(0.18624006,0,0,0.18624006,-374.85043,966.25687)"
       id="Generic_code" />
    <g
       transform="matrix(0.18624006,0,0,0.18624006,-374.85043,966.25687)"
       id="symbols" />
    <g
       transform="matrix(0.18624006,0,0,0.18624006,-374.85043,966.25687)"
       id="slices" />
    <g
       transform="translate(-272.28659,940.33525)"
       id="Layer_1" />
    <rect
       style="fill:#e4faff;fill-opacity:1;stroke:#3a99c6;stroke-width:0.36307076;stroke-miterlimit:4;stroke-dasharray:none;stroke-opacity:1"
       id="rect4743"
       width="63.091518"
       height="106.06656"
       x="146.02319"
       y="921.10107" />
    <rect
       style="fill:#eaeaea;fill-opacity:1;stroke:#4c4c4c;stroke-width:0.2352213;stroke-miterlimit:4;stroke-dasharray:none;stroke-dashoffset:0;stroke-opacity:1"
       id="rect5174"
       width="50.621178"
       height="61.426472"
       x="152.25836"
       y="933.66882" />
    <g
       id="g5181"
       transform="matrix(1.0340544,0,0,1.0340544,91.769777,1039.8501)">
      <path
         id="path3"
         d="m 75.146903,-19.478485 c 0.189533,-0.189534 0.151627,-0.492787 0,-0.68232 l -0.909759,-0.909759 -4.093916,-3.980196 c -0.189533,-0.189533 -0.454879,-0.189533 -0.644412,0 l 0,0 c -0.189533,0.189533 -0.22744,0.492786 0,0.68232 l 4.283449,4.207635 c 0.189533,0.189533 0.189533,0.492786 0,0.68232 l -4.359263,4.359262 c -0.189533,0.189533 -0.189533,0.492786 0,0.682319 l 0,0 c 0.189534,0.189533 0.492787,0.151627 0.644413,0 l 4.056009,-4.018103 c 0,0 0,0 0.03791,-0.03791 l 0.985572,-0.985572 z"
         style="fill:#3999c6"
         inkscape:connector-curvature="0" />
      <path
         id="path5"
         d="m 56.421028,-19.478485 c -0.189533,-0.189534 -0.151627,-0.492787 0,-0.68232 l 0.90976,-0.909759 4.093916,-3.980196 c 0.189533,-0.189533 0.454879,-0.189533 0.644413,0 l 0,0 c 0.189533,0.189533 0.227439,0.492786 0,0.68232 l -4.207636,4.207635 c -0.189533,0.189533 -0.189533,0.492786 0,0.68232 l 4.283449,4.359262 c 0.189533,0.189533 0.189533,0.492786 0,0.682319 l 0,0 c -0.189533,0.189533 -0.492786,0.151627 -0.644413,0 L 57.368695,-18.4171 c 0,0 0,0 -0.03791,-0.03791 l -0.90976,-1.023478 z"
         style="fill:#3999c6"
         inkscape:connector-curvature="0" />
      <path
         id="path7"
         d="m 63.206315,-19.819645 c 0,0.720226 -0.606506,1.250919 -1.250918,1.250919 -0.644413,0 -1.326732,-0.606506 -1.326732,-1.250919 0,-0.644413 0.530692,-1.250919 1.326732,-1.250919 0.758132,0 1.250918,0.606506 1.250918,1.250919 z"
         style="fill:#7fba00"
         inkscape:connector-curvature="0" />
      <path
         id="path9"
         d="m 67.034885,-19.819645 c 0,0.720226 -0.606506,1.250919 -1.250919,1.250919 -0.644413,0 -1.326732,-0.606506 -1.326732,-1.250919 0,-0.644413 0.606506,-1.250919 1.326732,-1.250919 0.720226,0 1.250919,0.606506 1.250919,1.250919 z"
         style="fill:#7fba00"
         inkscape:connector-curvature="0" />
      <circle
         id="circle11"
         r="1.2509187"
         cy="-19.819645"
         cx="69.650444"
         style="fill:#7fba00" />
    </g>
    <g
       transform="matrix(2.6456564,0,0,2.6456564,-486.55136,429.73786)"
       id="g6636">
      <path
         inkscape:connector-curvature="0"
         id="path6638"
         d="m 253.10782,205.88315 -0.33866,0 -3.32314,0 -0.16933,0 c 0.46563,1.62983 -0.14817,1.86266 -2.87866,1.86266 l 0,0.84667 3.45013,0 2.51883,0 3.25964,0 0,-0.84667 c -2.70931,0 -2.96331,-0.23283 -2.51881,-1.86266 z"
         style="fill:#7a7a7a;fill-opacity:1;fill-rule:nonzero;stroke:none" />
      <path
         inkscape:connector-curvature="0"
         id="path6640"
         d="m 257.21413,195.57506 -12.48825,0 c -0.42334,0 -0.762,0.381 -0.762,0.80433 l 0,8.72062 c 0,0.40214 0.33866,0.78314 0.762,0.78314 l 12.48825,0 c 0.4233,0 0.8678,-0.381 0.8678,-0.78314 l 0,-8.72062 c 0,-0.42333 -0.4445,-0.80433 -0.8678,-0.80433 z"
         style="fill:#a0a1a2;fill-opacity:1;fill-rule:nonzero;stroke:none" />
      <path
         inkscape:connector-curvature="0"
         id="path6642"
         d="m 257.2353,195.57506 c 0,0 0,0 -0.0212,0 l -12.48826,0 c -0.42333,0 -0.76199,0.381 -0.76199,0.80433 l 0,8.72062 c 0,0.40214 0.33866,0.78314 0.762,0.78314 l 0.29633,0 12.21309,-10.30809 z"
         style="fill:#ffffff;fill-opacity:1;fill-rule:nonzero;stroke:none" />
      <path
         inkscape:connector-curvature="0"
         id="path6644"
         d="m 245.04337,196.65456 11.93793,0 0,8.14911 -11.93793,0 z"
         style="fill:#59b4d9;fill-opacity:1;fill-rule:nonzero;stroke:none" />
      <path
         inkscape:connector-curvature="0"
         id="path6646"
         d="m 255.9653,196.65456 0,0 -10.92193,0 0,8.14911 0,0 0,-8.14911 z"
         style="fill:#59b4d9;fill-opacity:1;fill-rule:nonzero;stroke:none" />
      <path
         inkscape:connector-curvature="0"
         id="path6648"
         d="m 246.39803,207.74581 9.2286,0 0,0.84667 -9.2286,0 z"
         style="fill:#a0a1a2;fill-opacity:1;fill-rule:nonzero;stroke:none" />
      <path
         inkscape:connector-curvature="0"
         id="path6650"
         d="m 251.16049,196.16772 c 0,0.10584 -0.0847,0.1905 -0.1905,0.1905 -0.10583,0 -0.21167,-0.0847 -0.21167,-0.1905 0,-0.10583 0.10584,-0.21166 0.21167,-0.21166 0.10583,0 0.1905,0.10583 0.1905,0.21166 z"
         style="fill:#b8d432;fill-opacity:1;fill-rule:nonzero;stroke:none" />
      <path
         inkscape:connector-curvature="0"
         id="path6652"
         d="m 251.18166,200.4857 c -0.0212,0 -0.0423,0 -0.0423,-0.0212 l -2.49763,-1.41817 c -0.0212,-0.0212 -0.0212,-0.0423 -0.0212,-0.0635 0,-0.0423 0,-0.0635 0.0212,-0.0635 l 2.47647,-1.43932 c 0.0212,0 0.0635,0 0.0847,0 l 2.47648,1.43932 c 0.0212,0.0212 0.0423,0.0423 0.0423,0.0635 0,0.0212 -0.0212,0.0423 -0.0423,0.0635 l -2.47648,1.41817 c 0,0.0212 -0.0212,0.0212 -0.0212,0.0212 z"
         style="fill:#ffffff;fill-opacity:1;fill-rule:nonzero;stroke:none" />
      <path
         inkscape:connector-curvature="0"
         id="path6654"
         d="m 250.82182,203.97817 c -0.0212,0 -0.0423,-0.0212 -0.0423,-0.0212 l -2.47647,-1.41817 c -0.0212,-0.0212 -0.0423,-0.0423 -0.0423,-0.0635 l 0,-2.87864 c 0,-0.0212 0.0212,-0.0423 0.0423,-0.0635 0.0212,-0.0212 0.0423,-0.0212 0.0635,0 l 2.49764,1.41817 c 0.0212,0.0212 0.0212,0.0423 0.0212,0.0847 l 0,2.85747 c 0,0.0212 0,0.0423 -0.0212,0.0635 -0.0212,0 -0.0423,0.0212 -0.0423,0.0212 z"
         style="fill:#ffffff;fill-opacity:1;fill-rule:nonzero;stroke:none" />
      <path
         inkscape:connector-curvature="0"
         id="path6656"
         d="m 251.52032,203.97817 c -0.0212,0 -0.0212,-0.0212 -0.0423,-0.0212 -0.0212,-0.0212 -0.0423,-0.0423 -0.0423,-0.0635 l 0,-2.85747 c 0,-0.0212 0.0212,-0.0423 0.0423,-0.0635 l 2.47647,-1.41817 c 0.0212,-0.0212 0.0423,-0.0212 0.0847,0 0.0212,0 0.0212,0.0423 0.0212,0.0635 l 0,2.85747 c 0,0.0212 0,0.0423 -0.0212,0.0635 l -2.47647,1.41817 c -0.0212,0 -0.0423,0.0212 -0.0423,0.0212 z"
         style="fill:#ffffff;fill-opacity:1;fill-rule:nonzero;stroke:none" />
    </g>
    <path
       style="fill:none;fill-rule:evenodd;stroke:#000000;stroke-width:1px;stroke-linecap:butt;stroke-linejoin:miter;stroke-opacity:1;marker-start:url(#DotM-68-0)"
       d="m 130.91609,964.38212 10.35714,0 16.42858,0.1785"
       id="path4865-4"
       inkscape:connector-curvature="0"
       sodipodi:nodetypes="ccc" />
    <text
       xml:space="preserve"
       style="font-style:normal;font-variant:normal;font-weight:normal;font-stretch:normal;font-size:10px;line-height:125%;font-family:sans-serif;-inkscape-font-specification:'sans-serif, Normal';text-align:start;letter-spacing:0px;word-spacing:0px;writing-mode:lr-tb;text-anchor:start;fill:#0090c6;fill-opacity:1;stroke:none;stroke-width:1px;stroke-linecap:butt;stroke-linejoin:miter;stroke-opacity:1"
       x="122.36143"
       y="1041.6534"
       id="text10286"
       sodipodi:linespacing="125%"><tspan
         sodipodi:role="line"
         id="tspan10288"
         x="122.36143"
         y="1041.6534">Azure Virtual Network</tspan></text>
    <text
       sodipodi:linespacing="125%"
       id="text12235"
       y="1004.8851"
       x="159.53429"
       style="font-style:normal;font-variant:normal;font-weight:normal;font-stretch:normal;font-size:10px;line-height:125%;font-family:sans-serif;-inkscape-font-specification:'sans-serif, Normal';text-align:start;letter-spacing:0px;word-spacing:0px;writing-mode:lr-tb;text-anchor:start;fill:#222222;fill-opacity:1;stroke:none;stroke-width:1px;stroke-linecap:butt;stroke-linejoin:miter;stroke-opacity:1"
       xml:space="preserve"><tspan
         y="1004.8851"
         x="159.53429"
         id="tspan12237"
         sodipodi:role="line">Subnet</tspan></text>
    <g
       transform="matrix(0.54946248,0,0,0.54946248,36.316568,908.70192)"
       id="paths">
      <g
         id="Internet">
        <g
           id="XMLID_1_">
          <g
             id="g8" />
          <g
             id="g10">
            <path
               style="fill:none;stroke:#00188f;stroke-miterlimit:10"
               inkscape:connector-curvature="0"
               stroke-miterlimit="10"
               d="m 153,118.4 -45.5,0 c -5.3,0 -9.6,-4.8 -9.6,-10.6 0,-5.8 4.3,-10.6 9.6,-10.6 0.4,0 0.7,0 1.1,0.1 1.6,-2.8 4.3,-4.5 7.3,-4.5 0.8,0 1.6,0.1 2.4,0.4 0,-0.1 0,-0.3 0,-0.4 0,-6.9 5,-12.4 11.2,-12.4 4.3,0 8.3,2.8 10.1,7.2 1.6,-1 3.4,-1.6 5.3,-1.6 6,0 10.8,5.4 10.8,12 0,0.7 -0.1,1.3 -0.2,2 3.2,1.5 5.3,4.9 5.3,8.8 0,4.5 -2.8,8.3 -6.6,9.3 l -1.2,0.3 z"
               id="path12" />
          </g>
        </g>
      </g>
    </g>
    <text
       xml:space="preserve"
       style="font-style:normal;font-variant:normal;font-weight:normal;font-stretch:normal;font-size:10px;line-height:125%;font-family:sans-serif;-inkscape-font-specification:'sans-serif, Normal';text-align:start;letter-spacing:0px;word-spacing:0px;writing-mode:lr-tb;text-anchor:start;fill:#222222;fill-opacity:1;stroke:none;stroke-width:1px;stroke-linecap:butt;stroke-linejoin:miter;stroke-opacity:1"
       x="86.681534"
       y="982.53918"
       id="text12585"
       sodipodi:linespacing="125%"><tspan
         sodipodi:role="line"
         id="tspan12587"
         x="86.681534"
         y="982.53918">Internet</tspan></text>
  </g>
</svg>
