<?xml version="1.0" encoding="UTF-8" standalone="no"?>
<!DOCTYPE svg PUBLIC "-//W3C//DTD SVG 1.1//EN" "http://www.w3.org/Graphics/SVG/1.1/DTD/svg11.dtd">
<!-- Generated by Microsoft Visio, SVG Export single-vm.svg svg11446 -->
<svg xmlns="http://www.w3.org/2000/svg" xmlns:xlink="http://www.w3.org/1999/xlink" xmlns:ev="http://www.w3.org/2001/xml-events"
		xmlns:v="http://schemas.microsoft.com/visio/2003/SVGExtensions/" width="3.33333in" height="1.5in" viewBox="0 0 240 108"
		xml:space="preserve" color-interpolation-filters="sRGB" class="st16">
	<v:documentProperties v:langID="1033" v:viewMarkup="false"/>

	<style type="text/css">
	<![CDATA[
		.st1 {fill:#e4faff;stroke:#3a99c6;stroke-linecap:butt;stroke-width:0.272303}
		.st2 {fill:#eaeaea;stroke:#4c4c4c;stroke-linecap:butt;stroke-width:0.176416}
		.st3 {fill:#3999c6;stroke:none;stroke-linecap:butt;stroke-width:0.775541}
		.st4 {fill:#7fba00;stroke:none;stroke-linecap:butt;stroke-width:0.775541}
		.st5 {fill:#7a7a7a;stroke:none;stroke-linecap:butt;stroke-width:1.98424}
		.st6 {fill:#a0a1a2;stroke:none;stroke-linecap:butt;stroke-width:1.98424}
		.st7 {fill:#ffffff;stroke:none;stroke-linecap:butt;stroke-width:1.98424}
		.st8 {fill:#59b4d9;stroke:none;stroke-linecap:butt;stroke-width:1.98424}
		.st9 {fill:#b8d432;stroke:none;stroke-linecap:butt;stroke-width:1.98424}
		.st10 {stroke:#000000;stroke-linecap:butt;stroke-width:0.75}
		.st11 {fill:#000001;stroke:#000001;stroke-linecap:butt;stroke-width:0.4}
		.st12 {fill:none;stroke:none;stroke-linecap:butt;stroke-width:0.75}
		.st13 {fill:#0090c6;font-family:Arial;font-size:0.625008em}
		.st14 {fill:#222222;font-family:Arial;font-size:0.625008em}
		.st15 {fill:none;stroke:#00188f;stroke-linecap:butt;stroke-width:0.412097}
		.st16 {fill:none;fill-rule:evenodd;font-size:12px;overflow:visible;stroke-linecap:square;stroke-miterlimit:3}
	]]>
	</style>

	<g v:mID="0" v:index="1" v:groupContext="foregroundPage">
		<title>svg11446</title>
		<v:pageProperties v:drawingScale="1" v:pageScale="1" v:drawingUnits="19" v:shadowOffsetX="9" v:shadowOffsetY="-9"/>
		<g id="group1-1" transform="translate(65.0112,-5.78157)" v:mID="1" v:groupContext="group">
			<title>layer1</title>
			<g id="shape2-2" v:mID="2" v:groupContext="shape" transform="translate(44.5062,-13.1143)">
				<title>rect4743</title>
				<rect x="0" y="28.4501" width="47.3186" height="79.5499" class="st1"/>
			</g>
			<g id="shape3-4" v:mID="3" v:groupContext="shape" transform="translate(49.1826,-37.1686)">
				<title>rect5174</title>
				<rect x="0" y="61.9301" width="37.9659" height="46.0699" class="st2"/>
			</g>
			<g id="group4-6" transform="translate(47.426,-14.6519)" v:mID="4" v:groupContext="group">
				<title>g5181</title>
				<g id="shape5-7" v:mID="5" v:groupContext="shape" transform="translate(10.0836,2.84217E-14)">
					<title>path3</title>
					<path d="M4.59 103.94 C4.73 103.8 4.7 103.56 4.59 103.41 L3.88 102.71 L0.71 99.62 C0.56 99.47 0.35 99.47 0.21
								 99.62 C0.06 99.77 0.03 100 0.21 100.15 L3.53 103.41 C3.67 103.56 3.67 103.8 3.53 103.94 L0.15 107.32
								 C0 107.47 0 107.71 0.15 107.85 C0.29 108 0.53 107.97 0.65 107.85 L3.79 104.74 C3.79 104.74 3.79
								 104.74 3.82 104.71 L4.59 103.94 L4.59 103.94 Z" class="st3"/>
				</g>
				<g id="shape6-9" v:mID="6" v:groupContext="shape">
					<title>path5</title>
					<path d="M0.15 103.94 C0 103.8 0.03 103.56 0.15 103.41 L0.85 102.71 L4.03 99.62 C4.17 99.47 4.38 99.47 4.53 99.62
								 C4.67 99.77 4.7 100 4.53 100.15 L1.26 103.41 C1.12 103.56 1.12 103.8 1.26 103.94 L4.59 107.32 C4.73
								 107.47 4.73 107.71 4.59 107.85 C4.44 108 4.2 107.97 4.09 107.85 L0.88 104.77 C0.88 104.77 0.88 104.77
								 0.85 104.74 L0.15 103.94 L0.15 103.94 Z" class="st3"/>
				</g>
				<g id="shape7-11" v:mID="7" v:groupContext="shape" transform="translate(3.41018,-3.35139)">
					<title>path7</title>
					<path d="M2 107.03 C2 107.59 1.53 108 1.03 108 C0.53 108 0 107.53 0 107.03 C0 106.53 0.41 106.06 1.03 106.06
								 C1.62 106.06 2 106.53 2 107.03 Z" class="st4"/>
				</g>
				<g id="shape8-13" v:mID="8" v:groupContext="shape" transform="translate(6.3794,-3.35139)">
					<title>path9</title>
					<path d="M2 107.03 C2 107.59 1.53 108 1.03 108 C0.53 108 0 107.53 0 107.03 C0 106.53 0.47 106.06 1.03 106.06
								 C1.59 106.06 2 106.53 2 107.03 Z" class="st4"/>
				</g>
				<g id="shape9-15" v:mID="9" v:groupContext="shape" transform="translate(9.4368,-3.35139)">
					<title>circle11</title>
					<ellipse cx="0.970138" cy="107.03" rx="0.970138" ry="0.970138" class="st4"/>
				</g>
			</g>
			<g id="group10-17" transform="translate(54.1587,-47.2886)" v:mID="10" v:groupContext="group">
				<title>g6636</title>
				<g id="shape11-18" v:mID="11" v:groupContext="shape" transform="translate(4.83,-9.9476E-14)">
					<title>path6638</title>
					<path d="M13.31 102.62 L12.64 102.62 L6.05 102.62 L5.71 102.62 C6.64 105.86 5.42 106.32 0 106.32 L0 108 L6.85
								 108 L11.84 108 L18.31 108 L18.31 106.32 C12.94 106.32 12.43 105.86 13.31 102.62 Z" class="st5"/>
				</g>
				<g id="shape12-20" v:mID="12" v:groupContext="shape" transform="translate(5.95273E-05,-5.37597)">
					<title>path6640</title>
					<path d="M26.29 87.55 L1.51 87.55 C0.67 87.55 0 88.3 0 89.14 L0 106.45 C0 107.24 0.67 108 1.51 108 L26.29 108
								 C27.13 108 28.01 107.24 28.01 106.45 L28.01 89.14 C28.01 88.3 27.13 87.55 26.29 87.55 Z"
							class="st6"/>
				</g>
				<g id="shape13-22" v:mID="13" v:groupContext="shape" transform="translate(1.13909E-13,-5.37597)">
					<title>path6642</title>
					<path d="M26.33 87.55 C26.33 87.55 26.33 87.55 26.29 87.55 L1.51 87.55 C0.67 87.55 0 88.3 0 89.14 L0 106.45 C0
								 107.24 0.67 108 1.51 108 L2.1 108 L26.33 87.55 L26.33 87.55 Z" class="st7"/>
				</g>
				<g id="shape14-24" v:mID="14" v:groupContext="shape" transform="translate(2.14203,-7.51792)">
					<title>path6644</title>
					<rect x="0" y="91.8302" width="23.6877" height="16.1698" class="st8"/>
				</g>
				<g id="shape15-26" v:mID="15" v:groupContext="shape" transform="translate(2.14203,-7.51792)">
					<title>path6646</title>
					<path d="M21.67 91.83 L0 91.83 L0 108 L0 91.83 L21.67 91.83 Z" class="st8"/>
				</g>
				<g id="shape16-28" v:mID="16" v:groupContext="shape" transform="translate(4.83,1.42109E-14)">
					<title>path6648</title>
					<rect x="0" y="106.32" width="18.3118" height="1.68" class="st6"/>
				</g>
				<g id="shape17-30" v:mID="17" v:groupContext="shape" transform="translate(13.4819,-24.2757)">
					<title>path6650</title>
					<path d="M0.8 107.62 C0.8 107.83 0.63 108 0.42 108 C0.21 108 0 107.83 0 107.62 C0 107.41 0.21 107.2 0.42 107.2
								 C0.63 107.2 0.8 107.41 0.8 107.62 Z" class="st9"/>
				</g>
				<g id="shape18-32" v:mID="18" v:groupContext="shape" transform="translate(9.23998,-16.0858)">
					<title>path6652</title>
					<path d="M5.08 108 C5.04 108 5 108 5 107.96 L0.04 105.14 C0 105.1 0 105.06 0 105.02 C0 104.93 0 104.89 0.04 104.89
								 L4.96 102.04 C5 102.04 5.08 102.04 5.12 102.04 L10.04 104.89 C10.08 104.93 10.12 104.98 10.12 105.02
								 C10.12 105.06 10.08 105.1 10.04 105.14 L5.12 107.96 C5.12 108 5.08 108 5.08 108 L5.08 108 Z"
							class="st7"/>
				</g>
				<g id="shape19-34" v:mID="19" v:groupContext="shape" transform="translate(8.52609,-9.15585)">
					<title>path6654</title>
					<path d="M5.08 108 C5.04 108 5 107.96 5 107.96 L0.08 105.14 C0.04 105.1 0 105.06 0 105.02 L0 99.31 C0 99.26 0.04
								 99.22 0.08 99.18 C0.13 99.14 0.17 99.14 0.21 99.18 L5.17 101.99 C5.21 102.04 5.21 102.08 5.21 102.16
								 L5.21 107.83 C5.21 107.87 5.21 107.92 5.17 107.96 C5.12 107.96 5.08 108 5.08 108 L5.08 108 Z"
							class="st7"/>
				</g>
				<g id="shape20-36" v:mID="20" v:groupContext="shape" transform="translate(14.826,-9.15591)">
					<title>path6656</title>
					<path d="M0.17 108 C0.13 108 0.13 107.96 0.08 107.96 C0.04 107.92 0 107.87 0 107.83 L0 102.16 C0 102.12 0.04
								 102.08 0.08 102.04 L5 99.22 C5.04 99.18 5.08 99.18 5.17 99.22 C5.21 99.22 5.21 99.31 5.21 99.35
								 L5.21 105.02 C5.21 105.06 5.21 105.1 5.17 105.14 L0.25 107.96 C0.21 107.96 0.17 108 0.17 108 L0.17
								 108 Z" class="st7"/>
				</g>
			</g>
			<g id="shape21-38" v:mID="21" v:groupContext="shape" transform="translate(33.1759,-60.0696)">
				<title>path4865-4</title>
				<path d="M0 107.87 L7.77 107.87 L20.09 108" class="st10"/>
				<path d="M1.47 107.87 C1.47 108.69 0.8 109.37 -0.03 109.37 C-0.86 109.37 -1.53 108.69 -1.53 107.87 C-1.53 107.04
							 -0.86 106.37 -0.03 106.37 C0.8 106.37 1.47 107.04 1.47 107.87 Z" class="st11"/>
			</g>
			<g id="shape22-42" v:mID="22" v:groupContext="shape" transform="translate(29.6761,1.42109E-14)">
				<title>text10286</title>
				<desc>Azure Virtual Network</desc>
				<v:textBlock v:margins="rect(0,0,0,0)"/>
				<v:textRect cx="38.4895" cy="103.5" width="76.98" height="9"/>
				<rect x="0" y="99" width="76.9789" height="9" class="st12"/>
				<text x="-0" y="105.75" class="st13" v:langID="1033"><v:paragraph/><v:tabList/>Azure Virtual Network</text>			</g>
			<g id="shape23-45" v:mID="23" v:groupContext="shape" transform="translate(54.6396,-27.5762)">
				<title>text12235</title>
				<desc>Subnet</desc>
				<v:textBlock v:margins="rect(0,0,0,0)"/>
				<v:textRect cx="22.5" cy="103.5" width="45" height="9"/>
				<rect x="0" y="99" width="45" height="9" class="st12"/>
				<text x="0" y="105.75" class="st14" v:langID="1033"><v:paragraph/><v:tabList/>Subnet</text>			</g>
			<g id="group24-48" transform="translate(2.57056,-53.1713)" v:mID="24" v:groupContext="group">
				<title>XMLID_1_</title>
				<g id="shape25-49" v:mID="25" v:groupContext="shape">
					<title>path12</title>
					<path d="M22.71 108 L3.96 108 C1.77 108 0 106.02 0 103.63 C0 101.24 1.77 99.26 3.96 99.26 C4.12 99.26 4.24 99.26
								 4.41 99.3 C5.07 98.15 6.18 97.45 7.42 97.45 C7.75 97.45 8.08 97.49 8.41 97.62 C8.41 97.57 8.41 97.49
								 8.41 97.45 C8.41 94.61 10.47 92.34 13.02 92.34 C14.79 92.34 16.44 93.49 17.18 95.31 C17.84 94.9
								 18.59 94.65 19.37 94.65 C21.84 94.65 23.82 96.87 23.82 99.59 C23.82 99.88 23.78 100.13 23.74 100.42
								 C25.06 101.04 25.92 102.44 25.92 104.04 C25.92 105.9 24.77 107.46 23.2 107.88 L22.71 108 Z"
							class="st15"/>
				</g>
			</g>
			<g id="shape26-51" v:mID="26" v:groupContext="shape" transform="translate(1.91158,-44.3357)">
				<title>text12585</title>
				<desc>Internet</desc>
				<v:textBlock v:margins="rect(0,0,0,0)"/>
				<v:textRect cx="13.6194" cy="103.5" width="27.24" height="9"/>
				<rect x="0" y="99" width="27.2389" height="9" class="st12"/>
				<text x="-0" y="105.75" class="st14" v:langID="1033"><v:paragraph/><v:tabList/>Internet</text>			</g>
		</g>
	</g>
</svg>
